G04 Layer_Physical_Order=2*
G04 Layer_Color=16711680*
%FSLAX23Y23*%
%MOIN*%
G70*
G01*
G75*
%ADD18C,0.010*%
%ADD19C,0.020*%
%ADD20C,0.075*%
%ADD21C,0.024*%
%ADD22C,0.031*%
G36*
X1250Y0D02*
X801D01*
X799Y5D01*
X800Y7D01*
X803Y13D01*
X803Y15D01*
X752D01*
X752Y13D01*
X755Y7D01*
X756Y5D01*
X754Y0D01*
X629D01*
X628Y5D01*
X633Y7D01*
X638Y11D01*
X643Y17D01*
X645Y23D01*
X645Y25D01*
X595D01*
X595Y23D01*
X598Y17D01*
X602Y11D01*
X607Y7D01*
X612Y5D01*
X611Y0D01*
X482D01*
X481Y5D01*
X485Y7D01*
X491Y11D01*
X495Y17D01*
X498Y23D01*
X498Y25D01*
X447D01*
X447Y23D01*
X450Y17D01*
X454Y11D01*
X459Y7D01*
X464Y5D01*
X463Y0D01*
X207D01*
Y133D01*
X207Y133D01*
X208D01*
X215Y135D01*
X218Y136D01*
X224Y140D01*
X224Y140D01*
X227Y143D01*
X227Y143D01*
X231Y149D01*
X232Y152D01*
X234Y159D01*
Y163D01*
X232Y170D01*
X231Y174D01*
X227Y180D01*
X227Y180D01*
X224Y183D01*
X224Y183D01*
X218Y186D01*
X215Y188D01*
X208Y189D01*
X207D01*
X207Y189D01*
Y306D01*
X207Y306D01*
X208D01*
X215Y308D01*
X218Y309D01*
X224Y313D01*
X224Y313D01*
X227Y316D01*
X227Y316D01*
X231Y322D01*
X232Y326D01*
X234Y333D01*
Y337D01*
X232Y343D01*
X231Y347D01*
X227Y353D01*
X227Y353D01*
X224Y356D01*
X224Y356D01*
X218Y360D01*
X215Y361D01*
X208Y363D01*
X207D01*
X207Y363D01*
Y468D01*
X212Y471D01*
X213Y470D01*
X220Y467D01*
X221Y467D01*
Y492D01*
Y517D01*
X220Y517D01*
X213Y515D01*
X212Y513D01*
X207Y516D01*
Y541D01*
X1250D01*
Y0D01*
D02*
G37*
%LPC*%
G36*
X783Y45D02*
Y25D01*
X803D01*
X803Y26D01*
X800Y33D01*
X796Y38D01*
X791Y42D01*
X784Y45D01*
X783Y45D01*
D02*
G37*
G36*
X773D02*
X771Y45D01*
X765Y42D01*
X759Y38D01*
X755Y33D01*
X752Y26D01*
X752Y25D01*
X773D01*
Y45D01*
D02*
G37*
G36*
X1228Y67D02*
X1186D01*
Y24D01*
X1194Y25D01*
X1205Y30D01*
X1215Y38D01*
X1223Y48D01*
X1227Y59D01*
X1228Y67D01*
D02*
G37*
G36*
X477Y55D02*
Y35D01*
X498D01*
X498Y36D01*
X495Y43D01*
X491Y48D01*
X485Y52D01*
X479Y55D01*
X477Y55D01*
D02*
G37*
G36*
X467D02*
X466Y55D01*
X459Y52D01*
X454Y48D01*
X450Y43D01*
X447Y36D01*
X447Y35D01*
X467D01*
Y55D01*
D02*
G37*
G36*
X625D02*
Y35D01*
X645D01*
X645Y36D01*
X643Y43D01*
X638Y48D01*
X633Y52D01*
X627Y55D01*
X625Y55D01*
D02*
G37*
G36*
X615D02*
X613Y55D01*
X607Y52D01*
X602Y48D01*
X598Y43D01*
X595Y36D01*
X595Y35D01*
X615D01*
Y55D01*
D02*
G37*
G36*
X1176Y67D02*
X1134D01*
X1135Y59D01*
X1140Y48D01*
X1147Y38D01*
X1157Y30D01*
X1169Y25D01*
X1176Y24D01*
Y67D01*
D02*
G37*
G36*
X999Y527D02*
X997Y527D01*
X991Y524D01*
X986Y520D01*
X981Y515D01*
X979Y509D01*
X979Y507D01*
X999D01*
Y527D01*
D02*
G37*
G36*
X1181Y520D02*
X1169Y518D01*
X1157Y513D01*
X1147Y506D01*
X1140Y496D01*
X1136Y487D01*
X1036D01*
X1030Y486D01*
X1027Y489D01*
X1027Y489D01*
X1029Y495D01*
X1029Y497D01*
X1009D01*
Y477D01*
X1011Y477D01*
X1014Y478D01*
X1017Y474D01*
X942Y399D01*
X867D01*
X865Y402D01*
X859Y406D01*
X853Y409D01*
X846Y410D01*
X840Y409D01*
X833Y406D01*
X828Y402D01*
X824Y397D01*
X821Y391D01*
X820Y384D01*
X821Y380D01*
X736Y295D01*
X405D01*
X402Y298D01*
X397Y302D01*
X391Y305D01*
X384Y305D01*
X377Y305D01*
X371Y302D01*
X365Y298D01*
X361Y292D01*
X359Y286D01*
X358Y279D01*
X359Y273D01*
X361Y266D01*
X365Y261D01*
X371Y257D01*
X372Y251D01*
X371Y249D01*
X369Y243D01*
X368Y236D01*
X369Y229D01*
X371Y223D01*
X375Y218D01*
X381Y214D01*
X387Y211D01*
X394Y210D01*
X400Y211D01*
X407Y214D01*
X412Y218D01*
X414Y221D01*
X761D01*
X764Y217D01*
X762Y213D01*
X761Y207D01*
X762Y200D01*
X765Y194D01*
X766Y192D01*
X763Y187D01*
X538D01*
X535Y190D01*
X528Y192D01*
X522Y193D01*
X515Y192D01*
X509Y190D01*
X503Y186D01*
X499Y180D01*
X497Y174D01*
X496Y167D01*
X497Y161D01*
X499Y154D01*
X503Y149D01*
X509Y145D01*
X515Y142D01*
X522Y141D01*
X528Y142D01*
X535Y145D01*
X537Y147D01*
X1140D01*
X1147Y138D01*
X1157Y130D01*
X1169Y125D01*
X1178Y124D01*
Y119D01*
X1169Y118D01*
X1157Y113D01*
X1147Y106D01*
X1140Y96D01*
X1135Y84D01*
X1134Y77D01*
X1181D01*
Y72D01*
D01*
Y77D01*
X1228D01*
X1227Y84D01*
X1223Y96D01*
X1215Y106D01*
X1205Y113D01*
X1194Y118D01*
X1184Y119D01*
Y124D01*
X1194Y125D01*
X1205Y130D01*
X1215Y138D01*
X1223Y148D01*
X1227Y159D01*
X1229Y172D01*
X1227Y184D01*
X1223Y196D01*
X1215Y206D01*
X1205Y213D01*
X1194Y218D01*
X1184Y219D01*
Y224D01*
X1194Y225D01*
X1205Y230D01*
X1215Y238D01*
X1223Y248D01*
X1227Y259D01*
X1229Y272D01*
X1227Y284D01*
X1223Y296D01*
X1215Y306D01*
X1205Y313D01*
X1194Y318D01*
X1184Y319D01*
Y324D01*
X1194Y325D01*
X1205Y330D01*
X1215Y338D01*
X1223Y348D01*
X1227Y359D01*
X1229Y372D01*
X1227Y384D01*
X1223Y396D01*
X1215Y406D01*
X1205Y413D01*
X1194Y418D01*
X1184Y419D01*
Y424D01*
X1194Y425D01*
X1205Y430D01*
X1215Y438D01*
X1223Y448D01*
X1227Y459D01*
X1229Y472D01*
X1227Y484D01*
X1223Y496D01*
X1215Y506D01*
X1205Y513D01*
X1194Y518D01*
X1181Y520D01*
D02*
G37*
G36*
X231Y517D02*
Y497D01*
X252D01*
X251Y499D01*
X249Y505D01*
X245Y510D01*
X239Y515D01*
X233Y517D01*
X231Y517D01*
D02*
G37*
G36*
X1009Y527D02*
Y507D01*
X1029D01*
X1029Y509D01*
X1026Y515D01*
X1022Y520D01*
X1017Y524D01*
X1011Y527D01*
X1009Y527D01*
D02*
G37*
G36*
X252Y487D02*
X231D01*
Y467D01*
X233Y467D01*
X239Y470D01*
X245Y474D01*
X249Y479D01*
X251Y485D01*
X252Y487D01*
D02*
G37*
G36*
X999Y497D02*
X979D01*
X979Y495D01*
X981Y489D01*
X986Y484D01*
X991Y479D01*
X997Y477D01*
X999Y477D01*
Y497D01*
D02*
G37*
%LPD*%
G36*
X1140Y448D02*
X1147Y438D01*
X1157Y430D01*
X1169Y425D01*
X1178Y424D01*
Y419D01*
X1169Y418D01*
X1157Y413D01*
X1147Y406D01*
X1140Y396D01*
X1136Y386D01*
X1134Y386D01*
X1129Y382D01*
X968Y222D01*
X808D01*
X806Y225D01*
X800Y229D01*
X794Y232D01*
X794Y232D01*
X779Y247D01*
X774Y250D01*
X768Y252D01*
X414D01*
X412Y255D01*
X407Y259D01*
X406Y259D01*
X409Y264D01*
X742D01*
X748Y265D01*
X753Y269D01*
X843Y358D01*
X846Y358D01*
X853Y359D01*
X859Y361D01*
X865Y365D01*
X867Y369D01*
X948D01*
X954Y370D01*
X959Y373D01*
X1043Y456D01*
X1136D01*
X1140Y448D01*
D02*
G37*
G36*
X1142Y345D02*
X1147Y338D01*
X1157Y330D01*
X1169Y325D01*
X1178Y324D01*
Y319D01*
X1169Y318D01*
X1157Y313D01*
X1147Y306D01*
X1140Y296D01*
X1135Y284D01*
X1133Y272D01*
X1135Y259D01*
X1140Y248D01*
X1147Y238D01*
X1157Y230D01*
X1169Y225D01*
X1178Y224D01*
Y219D01*
X1169Y218D01*
X1157Y213D01*
X1147Y206D01*
X1140Y196D01*
X1136Y187D01*
X980D01*
X980Y192D01*
X980Y193D01*
X985Y196D01*
X1135Y346D01*
X1142Y345D01*
D02*
G37*
%LPC*%
G36*
X989Y350D02*
X987Y350D01*
X981Y347D01*
X976Y343D01*
X972Y338D01*
X969Y332D01*
X969Y330D01*
X989D01*
Y350D01*
D02*
G37*
G36*
X999D02*
Y330D01*
X1019D01*
X1019Y332D01*
X1017Y338D01*
X1012Y343D01*
X1007Y347D01*
X1001Y350D01*
X999Y350D01*
D02*
G37*
G36*
X989Y320D02*
X969D01*
X969Y318D01*
X972Y312D01*
X976Y306D01*
X981Y302D01*
X987Y300D01*
X989Y299D01*
Y320D01*
D02*
G37*
G36*
X1019D02*
X999D01*
Y299D01*
X1001Y300D01*
X1007Y302D01*
X1012Y306D01*
X1017Y312D01*
X1019Y318D01*
X1019Y320D01*
D02*
G37*
%LPD*%
D18*
X768Y236D02*
X797Y207D01*
X384Y279D02*
X742D01*
X394Y236D02*
X768D01*
X1036Y472D02*
X1181D01*
X1139Y372D02*
X1181D01*
X974Y207D02*
X1139Y372D01*
X797Y207D02*
X974D01*
X846Y384D02*
X948D01*
X742Y279D02*
X846Y384D01*
X948D02*
X1036Y472D01*
X787Y207D02*
X797D01*
D19*
X522Y167D02*
X1181D01*
D20*
Y472D02*
D03*
Y372D02*
D03*
Y272D02*
D03*
Y172D02*
D03*
Y72D02*
D03*
D21*
X206Y335D02*
D03*
Y161D02*
D03*
D22*
X994Y325D02*
D03*
X472Y30D02*
D03*
X778Y20D02*
D03*
X1004Y502D02*
D03*
X226Y492D02*
D03*
X620Y30D02*
D03*
X384Y279D02*
D03*
X394Y236D02*
D03*
X522Y167D02*
D03*
X846Y384D02*
D03*
X787Y207D02*
D03*
M02*
