G04 Layer_Color=8388736*
%FSLAX23Y23*%
%MOIN*%
G70*
G01*
G75*
%ADD24R,0.032X0.053*%
%ADD25R,0.055X0.063*%
%ADD26R,0.063X0.055*%
%ADD27R,0.106X0.087*%
%ADD28R,0.099X0.028*%
%ADD29R,0.079X0.138*%
%ADD30R,0.079X0.043*%
%ADD31R,0.039X0.071*%
%ADD32C,0.083*%
%ADD33C,0.032*%
%ADD34C,0.039*%
D24*
X868Y331D02*
D03*
X906D02*
D03*
X943D02*
D03*
Y220D02*
D03*
X906D02*
D03*
X868D02*
D03*
D25*
X577Y98D02*
D03*
X506D02*
D03*
X740D02*
D03*
X669D02*
D03*
D26*
X413Y173D02*
D03*
Y102D02*
D03*
Y368D02*
D03*
Y439D02*
D03*
D27*
X304Y73D02*
D03*
Y423D02*
D03*
X88D02*
D03*
Y73D02*
D03*
D28*
X308Y185D02*
D03*
Y216D02*
D03*
Y248D02*
D03*
Y279D02*
D03*
Y311D02*
D03*
D29*
X766Y335D02*
D03*
D30*
X514Y244D02*
D03*
Y335D02*
D03*
Y425D02*
D03*
D31*
X935Y452D02*
D03*
X857D02*
D03*
D32*
X1181Y472D02*
D03*
Y372D02*
D03*
Y272D02*
D03*
Y172D02*
D03*
Y72D02*
D03*
D33*
X206Y335D02*
D03*
Y161D02*
D03*
D34*
X384Y279D02*
D03*
X522Y167D02*
D03*
X846Y384D02*
D03*
X787Y207D02*
D03*
X384Y236D02*
D03*
M02*
