M48
;Layer_Color=9474304
;FILE_FORMAT=2:3
INCH,LZ
;TYPE=PLATED
T1F00S00C0.012
T2F00S00C0.028
T3F00S00C0.031
T4F00S00C0.040
;TYPE=NON_PLATED
T5F00S00C0.035
%
T01
X00923Y00142
X01023Y00079
X0104Y00256
X00876Y00276
X01269Y00315
X01353Y00346
X00522Y00355
X00422Y00315
T02
X00462Y00197
X00562
X0127
X0137
T03
X00662Y00197
X0117
T04
X01505Y00097
Y00197
Y00297
Y00397
Y00497
T05
X00206Y00161
Y00335
M30
