G04 Layer_Physical_Order=1*
G04 Layer_Color=255*
%FSLAX23Y23*%
%MOIN*%
G70*
G01*
G75*
%ADD10R,0.024X0.045*%
%ADD11R,0.047X0.055*%
%ADD12R,0.098X0.079*%
%ADD13R,0.091X0.020*%
%ADD14R,0.071X0.130*%
%ADD15R,0.071X0.035*%
%ADD16R,0.031X0.063*%
%ADD17R,0.055X0.047*%
%ADD18C,0.010*%
%ADD19R,0.100X0.020*%
%ADD20C,0.075*%
%ADD21C,0.024*%
%ADD22C,0.047*%
%ADD23R,0.051X0.051*%
%ADD24C,0.031*%
G36*
X1585Y0D02*
X207D01*
Y133D01*
X207Y133D01*
X208D01*
X215Y135D01*
X218Y136D01*
X224Y140D01*
X224Y140D01*
X227Y143D01*
X227Y143D01*
X231Y149D01*
X232Y152D01*
X234Y159D01*
Y163D01*
X232Y170D01*
X231Y174D01*
X227Y180D01*
X227Y180D01*
X224Y183D01*
X224Y183D01*
X218Y186D01*
X215Y188D01*
X208Y189D01*
X207D01*
X207Y189D01*
Y306D01*
X207Y306D01*
X208D01*
X215Y308D01*
X218Y309D01*
X224Y313D01*
X224Y313D01*
X227Y316D01*
X227Y316D01*
X231Y322D01*
X232Y326D01*
X234Y333D01*
Y337D01*
X232Y343D01*
X231Y347D01*
X227Y353D01*
X227Y353D01*
X224Y356D01*
X224Y356D01*
X218Y360D01*
X215Y361D01*
X208Y363D01*
X207D01*
X207Y363D01*
Y591D01*
X1585D01*
Y0D01*
D02*
G37*
%LPC*%
G36*
X1404Y192D02*
X1375D01*
Y163D01*
X1379Y164D01*
X1387Y167D01*
X1394Y173D01*
X1400Y180D01*
X1403Y188D01*
X1404Y192D01*
D02*
G37*
G36*
X457D02*
X428D01*
X429Y188D01*
X432Y180D01*
X438Y173D01*
X445Y167D01*
X453Y164D01*
X457Y163D01*
Y192D01*
D02*
G37*
G36*
X595D02*
X567D01*
Y163D01*
X570Y164D01*
X579Y167D01*
X586Y173D01*
X591Y180D01*
X594Y188D01*
X595Y192D01*
D02*
G37*
G36*
X976Y215D02*
X958D01*
X954Y214D01*
X951Y212D01*
X948Y209D01*
X948Y205D01*
Y182D01*
X976D01*
Y215D01*
D02*
G37*
G36*
X364Y180D02*
X313D01*
Y165D01*
X353D01*
X357Y166D01*
X361Y168D01*
X363Y171D01*
X364Y175D01*
Y180D01*
D02*
G37*
G36*
X303D02*
X253D01*
Y175D01*
X253Y171D01*
X256Y168D01*
X259Y166D01*
X263Y165D01*
X303D01*
Y180D01*
D02*
G37*
G36*
X1265Y192D02*
X1237D01*
X1238Y188D01*
X1241Y180D01*
X1246Y173D01*
X1253Y167D01*
X1262Y164D01*
X1265Y163D01*
Y192D01*
D02*
G37*
G36*
X1552Y92D02*
X1510D01*
Y49D01*
X1517Y50D01*
X1529Y55D01*
X1539Y63D01*
X1546Y73D01*
X1551Y84D01*
X1552Y92D01*
D02*
G37*
G36*
X1500D02*
X1458D01*
X1459Y84D01*
X1464Y73D01*
X1471Y63D01*
X1481Y55D01*
X1493Y50D01*
X1500Y49D01*
Y92D01*
D02*
G37*
G36*
X353Y122D02*
X255D01*
X251Y122D01*
X248Y119D01*
X246Y116D01*
X245Y112D01*
Y33D01*
X246Y29D01*
X248Y26D01*
X251Y24D01*
X255Y23D01*
X353D01*
X357Y24D01*
X361Y26D01*
X363Y29D01*
X364Y33D01*
Y112D01*
X363Y116D01*
X361Y119D01*
X357Y122D01*
X353Y122D01*
D02*
G37*
G36*
X976Y172D02*
X948D01*
Y161D01*
X943Y159D01*
X942Y160D01*
X936Y164D01*
X930Y167D01*
X923Y168D01*
X917Y167D01*
X910Y164D01*
X905Y160D01*
X901Y155D01*
X898Y148D01*
X897Y142D01*
X898Y138D01*
X870Y110D01*
X860D01*
X856Y110D01*
X853Y108D01*
X851Y104D01*
X850Y100D01*
Y37D01*
X851Y33D01*
X853Y30D01*
X856Y28D01*
X860Y27D01*
X892D01*
X896Y28D01*
X899Y30D01*
X901Y33D01*
X902Y37D01*
Y99D01*
X919Y116D01*
X923Y116D01*
X930Y117D01*
X936Y119D01*
X942Y123D01*
X946Y129D01*
X948Y135D01*
X949Y138D01*
X954Y140D01*
X954Y140D01*
X958Y139D01*
X976D01*
Y172D01*
D02*
G37*
G36*
X881D02*
X853D01*
Y139D01*
X871D01*
X875Y140D01*
X878Y142D01*
X881Y146D01*
X881Y150D01*
Y172D01*
D02*
G37*
G36*
X970Y110D02*
X938D01*
X934Y110D01*
X931Y108D01*
X929Y104D01*
X928Y100D01*
Y37D01*
X929Y33D01*
X931Y30D01*
X934Y28D01*
X938Y27D01*
X970D01*
X973Y28D01*
X977Y30D01*
X979Y33D01*
X980Y37D01*
Y63D01*
X980Y63D01*
X1002D01*
X1004Y60D01*
X1010Y56D01*
X1016Y54D01*
X1023Y53D01*
X1029Y54D01*
X1036Y56D01*
X1041Y60D01*
X1045Y66D01*
X1048Y72D01*
X1049Y79D01*
X1048Y85D01*
X1045Y92D01*
X1041Y97D01*
X1036Y101D01*
X1029Y104D01*
X1023Y105D01*
X1016Y104D01*
X1010Y101D01*
X1004Y97D01*
X1002Y94D01*
X980D01*
Y100D01*
X979Y104D01*
X977Y108D01*
X973Y110D01*
X970Y110D01*
D02*
G37*
G36*
X871Y215D02*
X853D01*
Y182D01*
X881D01*
Y205D01*
X881Y209D01*
X878Y212D01*
X875Y214D01*
X871Y215D01*
D02*
G37*
G36*
X1365Y563D02*
X1274D01*
X1268Y561D01*
X1263Y558D01*
X1243Y538D01*
X644D01*
X639Y537D01*
X634Y534D01*
X588Y488D01*
X585Y483D01*
X584Y477D01*
Y390D01*
X552Y358D01*
X547Y360D01*
X547Y362D01*
X544Y368D01*
X540Y373D01*
X535Y378D01*
X528Y380D01*
X522Y381D01*
X515Y380D01*
X509Y378D01*
X503Y373D01*
X499Y368D01*
X497Y362D01*
X496Y355D01*
X496Y351D01*
X452Y307D01*
X448Y310D01*
X448Y315D01*
X447Y322D01*
X445Y328D01*
X441Y333D01*
X435Y337D01*
X429Y340D01*
X422Y341D01*
X416Y340D01*
X409Y337D01*
X404Y333D01*
X400Y328D01*
X399Y326D01*
X362D01*
X361Y328D01*
X357Y330D01*
X353Y331D01*
X263D01*
X259Y330D01*
X256Y328D01*
X253Y325D01*
X253Y321D01*
Y301D01*
X253Y297D01*
X255Y295D01*
X253Y293D01*
X253Y289D01*
Y270D01*
X253Y266D01*
X255Y264D01*
X253Y262D01*
X253Y258D01*
Y238D01*
X253Y234D01*
X255Y232D01*
X253Y230D01*
X253Y226D01*
Y207D01*
X253Y203D01*
X255Y201D01*
X253Y199D01*
X253Y195D01*
Y190D01*
X308D01*
X364D01*
Y195D01*
X363Y199D01*
X362Y201D01*
X363Y203D01*
X364Y207D01*
Y226D01*
X363Y228D01*
X367Y232D01*
X367Y233D01*
X447D01*
X448Y228D01*
X445Y226D01*
X438Y221D01*
X432Y214D01*
X429Y206D01*
X428Y202D01*
X462D01*
Y197D01*
X467D01*
Y163D01*
X470Y164D01*
X479Y167D01*
X486Y173D01*
X489Y177D01*
X535D01*
X538Y173D01*
X545Y167D01*
X553Y164D01*
X557Y163D01*
Y197D01*
Y230D01*
X553Y230D01*
X545Y226D01*
X538Y221D01*
X535Y217D01*
X489D01*
X486Y221D01*
X479Y226D01*
X471Y229D01*
X471Y230D01*
X471Y231D01*
X471Y235D01*
X474Y237D01*
X610Y373D01*
X613Y378D01*
X614Y383D01*
Y471D01*
X636Y493D01*
X640Y491D01*
Y489D01*
X678D01*
X716D01*
Y507D01*
X1113D01*
Y495D01*
X1067Y449D01*
X1005D01*
X1001Y448D01*
X998Y446D01*
X996Y443D01*
X995Y439D01*
Y309D01*
X996Y305D01*
X998Y302D01*
X1001Y300D01*
X1005Y299D01*
X1025D01*
Y277D01*
X1022Y274D01*
X1018Y269D01*
X1015Y263D01*
X1014Y256D01*
X1015Y249D01*
X1018Y243D01*
X1022Y237D01*
X1025Y235D01*
Y214D01*
X1025Y214D01*
X1021Y212D01*
X1019Y209D01*
X1017Y209D01*
X1014Y209D01*
X1012Y212D01*
X1009Y214D01*
X1005Y215D01*
X986D01*
Y177D01*
Y139D01*
X1005D01*
X1009Y140D01*
X1012Y142D01*
X1014Y145D01*
X1017Y146D01*
X1019Y145D01*
X1021Y142D01*
X1025Y140D01*
X1029Y139D01*
X1076D01*
X1080Y140D01*
X1083Y142D01*
X1085Y146D01*
X1086Y150D01*
Y162D01*
X1141D01*
X1141Y162D01*
X1145Y161D01*
X1196D01*
X1200Y162D01*
X1203Y164D01*
X1205Y167D01*
X1206Y171D01*
Y222D01*
X1205Y226D01*
X1203Y230D01*
X1200Y232D01*
X1196Y233D01*
X1145D01*
X1141Y232D01*
X1138Y230D01*
X1135Y226D01*
X1135Y222D01*
Y192D01*
X1086D01*
Y205D01*
X1085Y209D01*
X1083Y212D01*
X1080Y214D01*
X1076Y215D01*
X1056D01*
Y235D01*
X1059Y237D01*
X1063Y243D01*
X1066Y249D01*
X1066Y256D01*
X1066Y263D01*
X1063Y269D01*
X1059Y274D01*
X1056Y277D01*
Y299D01*
X1076D01*
X1080Y300D01*
X1083Y302D01*
X1085Y305D01*
X1086Y309D01*
Y425D01*
X1115Y453D01*
X1119Y451D01*
X1119Y449D01*
X1119Y446D01*
X1116Y444D01*
X1114Y441D01*
X1113Y437D01*
Y418D01*
X1188D01*
Y437D01*
X1188Y441D01*
X1185Y444D01*
X1183Y446D01*
X1182Y449D01*
X1183Y451D01*
X1185Y453D01*
X1188Y457D01*
X1188Y461D01*
Y507D01*
X1250D01*
X1256Y509D01*
X1261Y512D01*
X1273Y524D01*
X1277Y522D01*
Y485D01*
X1278Y481D01*
X1280Y478D01*
X1283Y476D01*
X1287Y475D01*
X1311D01*
X1315Y476D01*
X1318Y478D01*
X1321Y476D01*
X1325Y475D01*
X1332D01*
Y508D01*
X1342D01*
Y475D01*
X1348D01*
X1352Y476D01*
X1355Y478D01*
X1358Y476D01*
X1362Y475D01*
X1386D01*
X1390Y476D01*
X1393Y478D01*
X1395Y481D01*
X1396Y485D01*
Y493D01*
X1458D01*
X1459Y484D01*
X1464Y473D01*
X1471Y463D01*
X1481Y455D01*
X1493Y450D01*
X1502Y449D01*
Y444D01*
X1493Y443D01*
X1481Y438D01*
X1471Y431D01*
X1464Y421D01*
X1460Y413D01*
X1396D01*
Y420D01*
X1395Y424D01*
X1393Y427D01*
X1390Y430D01*
X1386Y430D01*
X1362D01*
X1358Y430D01*
X1355Y428D01*
X1352Y430D01*
X1348Y430D01*
X1325D01*
X1321Y430D01*
X1318Y428D01*
X1315Y430D01*
X1311Y430D01*
X1287D01*
X1283Y430D01*
X1280Y427D01*
X1278Y424D01*
X1277Y420D01*
Y375D01*
X1278Y371D01*
X1280Y368D01*
X1283Y366D01*
X1287Y365D01*
X1294D01*
X1296Y360D01*
X1276Y340D01*
X1276Y340D01*
X1269Y341D01*
X1262Y340D01*
X1256Y337D01*
X1250Y333D01*
X1246Y328D01*
X1244Y322D01*
X1243Y315D01*
X1244Y308D01*
X1246Y302D01*
X1250Y296D01*
X1256Y292D01*
X1262Y290D01*
X1269Y289D01*
X1276Y290D01*
X1282Y292D01*
X1287Y296D01*
X1291Y302D01*
X1294Y308D01*
X1295Y315D01*
X1295Y316D01*
X1322Y343D01*
X1328Y342D01*
X1328Y340D01*
X1330Y333D01*
X1335Y328D01*
X1340Y324D01*
X1346Y321D01*
X1353Y320D01*
X1360Y321D01*
X1366Y324D01*
X1371Y328D01*
X1375Y333D01*
X1378Y340D01*
X1379Y346D01*
X1378Y350D01*
X1385Y357D01*
X1388Y362D01*
X1389Y365D01*
X1390Y366D01*
X1393Y368D01*
X1395Y371D01*
X1396Y375D01*
Y382D01*
X1460D01*
X1464Y373D01*
X1471Y363D01*
X1481Y355D01*
X1493Y350D01*
X1502Y349D01*
Y344D01*
X1493Y343D01*
X1481Y338D01*
X1471Y331D01*
X1464Y321D01*
X1459Y309D01*
X1457Y297D01*
X1459Y284D01*
X1464Y273D01*
X1471Y263D01*
X1481Y255D01*
X1493Y250D01*
X1502Y249D01*
Y244D01*
X1493Y243D01*
X1481Y238D01*
X1471Y231D01*
X1464Y221D01*
X1459Y209D01*
X1457Y197D01*
X1459Y184D01*
X1464Y173D01*
X1471Y163D01*
X1481Y155D01*
X1493Y150D01*
X1502Y149D01*
Y144D01*
X1493Y143D01*
X1481Y138D01*
X1471Y131D01*
X1464Y121D01*
X1459Y109D01*
X1458Y102D01*
X1505D01*
X1552D01*
X1551Y109D01*
X1546Y121D01*
X1539Y131D01*
X1529Y138D01*
X1517Y143D01*
X1508Y144D01*
Y149D01*
X1517Y150D01*
X1529Y155D01*
X1539Y163D01*
X1546Y173D01*
X1551Y184D01*
X1553Y197D01*
X1551Y209D01*
X1546Y221D01*
X1539Y231D01*
X1529Y238D01*
X1517Y243D01*
X1508Y244D01*
Y249D01*
X1517Y250D01*
X1529Y255D01*
X1539Y263D01*
X1546Y273D01*
X1551Y284D01*
X1553Y297D01*
X1551Y309D01*
X1546Y321D01*
X1539Y331D01*
X1529Y338D01*
X1517Y343D01*
X1508Y344D01*
Y349D01*
X1517Y350D01*
X1529Y355D01*
X1539Y363D01*
X1546Y373D01*
X1551Y384D01*
X1553Y397D01*
X1551Y409D01*
X1546Y421D01*
X1539Y431D01*
X1529Y438D01*
X1517Y443D01*
X1508Y444D01*
Y449D01*
X1517Y450D01*
X1529Y455D01*
X1539Y463D01*
X1546Y473D01*
X1551Y484D01*
X1553Y497D01*
X1551Y509D01*
X1546Y521D01*
X1539Y531D01*
X1529Y538D01*
X1517Y543D01*
X1505Y545D01*
X1493Y543D01*
X1481Y538D01*
X1471Y531D01*
X1465Y523D01*
X1396D01*
Y531D01*
X1395Y534D01*
X1393Y538D01*
X1390Y540D01*
X1389Y540D01*
X1388Y544D01*
X1385Y549D01*
X1375Y558D01*
X1370Y561D01*
X1365Y563D01*
D02*
G37*
G36*
X1188Y408D02*
X1156D01*
Y379D01*
X1178D01*
X1182Y380D01*
X1185Y382D01*
X1188Y386D01*
X1188Y390D01*
Y408D01*
D02*
G37*
G36*
X1146D02*
X1113D01*
Y390D01*
X1114Y386D01*
X1116Y382D01*
X1119Y380D01*
X1123Y379D01*
X1146D01*
Y408D01*
D02*
G37*
G36*
X783Y459D02*
X743D01*
Y447D01*
X744Y443D01*
X746Y440D01*
X749Y437D01*
X753Y437D01*
X783D01*
Y459D01*
D02*
G37*
G36*
X824Y492D02*
X793D01*
Y469D01*
X834D01*
Y482D01*
X833Y486D01*
X831Y489D01*
X828Y492D01*
X824Y492D01*
D02*
G37*
G36*
X783D02*
X753D01*
X749Y492D01*
X746Y489D01*
X744Y486D01*
X743Y482D01*
Y469D01*
X783D01*
Y492D01*
D02*
G37*
G36*
X834Y459D02*
X793D01*
Y437D01*
X824D01*
X828Y437D01*
X831Y440D01*
X833Y443D01*
X834Y447D01*
Y459D01*
D02*
G37*
G36*
X1375Y230D02*
Y202D01*
X1404D01*
X1403Y206D01*
X1400Y214D01*
X1394Y221D01*
X1387Y226D01*
X1379Y230D01*
X1375Y230D01*
D02*
G37*
G36*
X567Y230D02*
Y202D01*
X595D01*
X594Y206D01*
X591Y214D01*
X586Y221D01*
X579Y226D01*
X570Y230D01*
X567Y230D01*
D02*
G37*
G36*
X1265D02*
X1262Y230D01*
X1253Y226D01*
X1246Y221D01*
X1241Y214D01*
X1238Y206D01*
X1237Y202D01*
X1265D01*
Y230D01*
D02*
G37*
G36*
X1365D02*
X1362Y230D01*
X1353Y226D01*
X1346Y221D01*
X1343Y217D01*
X1297D01*
X1294Y221D01*
X1287Y226D01*
X1279Y230D01*
X1275Y230D01*
Y197D01*
Y163D01*
X1279Y164D01*
X1287Y167D01*
X1294Y173D01*
X1297Y177D01*
X1343D01*
X1346Y173D01*
X1353Y167D01*
X1362Y164D01*
X1365Y163D01*
Y197D01*
Y230D01*
D02*
G37*
G36*
X353Y473D02*
X255D01*
X251Y472D01*
X248Y470D01*
X246Y466D01*
X245Y462D01*
Y384D01*
X246Y380D01*
X248Y377D01*
X251Y374D01*
X255Y374D01*
X353D01*
X357Y374D01*
X361Y377D01*
X363Y380D01*
X364Y384D01*
Y462D01*
X363Y466D01*
X361Y470D01*
X357Y472D01*
X353Y473D01*
D02*
G37*
G36*
X824Y402D02*
X753D01*
X749Y401D01*
X746Y399D01*
X744Y396D01*
X743Y392D01*
Y356D01*
X744Y352D01*
X746Y349D01*
X749Y347D01*
X753Y346D01*
X824D01*
X828Y347D01*
X831Y349D01*
X833Y352D01*
X834Y356D01*
Y392D01*
X833Y396D01*
X831Y399D01*
X828Y401D01*
X824Y402D01*
D02*
G37*
G36*
X716Y479D02*
X678D01*
X640D01*
Y461D01*
X641Y457D01*
X643Y453D01*
X646Y451D01*
X647Y449D01*
X646Y446D01*
X643Y444D01*
X641Y441D01*
X640Y437D01*
Y390D01*
X641Y386D01*
X643Y382D01*
X647Y380D01*
X651Y379D01*
X663D01*
Y353D01*
X664Y348D01*
X667Y343D01*
X727Y283D01*
X676Y233D01*
X636D01*
X632Y232D01*
X629Y230D01*
X627Y226D01*
X626Y222D01*
Y171D01*
X627Y167D01*
X629Y164D01*
X632Y162D01*
X636Y161D01*
X687D01*
X691Y162D01*
X695Y164D01*
X697Y167D01*
X697Y171D01*
Y211D01*
X745Y259D01*
X746Y258D01*
X749Y256D01*
X753Y255D01*
X761D01*
Y215D01*
X753D01*
X749Y214D01*
X746Y212D01*
X744Y209D01*
X743Y205D01*
Y150D01*
X744Y146D01*
X746Y142D01*
X749Y140D01*
X753Y139D01*
X800D01*
X804Y140D01*
X807Y142D01*
X809Y145D01*
X812Y146D01*
X815Y145D01*
X817Y142D01*
X820Y140D01*
X824Y139D01*
X843D01*
Y177D01*
Y215D01*
X824D01*
X820Y214D01*
X817Y212D01*
X815Y209D01*
X812Y209D01*
X809Y209D01*
X807Y212D01*
X804Y214D01*
X800Y215D01*
X792D01*
Y255D01*
X824D01*
X828Y256D01*
X831Y258D01*
X833Y262D01*
X834Y266D01*
Y268D01*
X851D01*
X853Y263D01*
X858Y257D01*
X863Y253D01*
X869Y251D01*
X876Y250D01*
X883Y251D01*
X889Y253D01*
X894Y257D01*
X898Y263D01*
X901Y269D01*
X902Y276D01*
X901Y282D01*
X898Y289D01*
X897Y290D01*
X895Y294D01*
X891Y297D01*
X889Y298D01*
X883Y301D01*
X876Y302D01*
X869Y301D01*
X864Y299D01*
X834D01*
Y301D01*
X833Y305D01*
X831Y308D01*
X828Y310D01*
X824Y311D01*
X753D01*
X749Y310D01*
X746Y308D01*
X745Y308D01*
X694Y360D01*
Y379D01*
X706D01*
X710Y380D01*
X713Y382D01*
X715Y386D01*
X716Y390D01*
Y437D01*
X715Y441D01*
X713Y444D01*
X710Y446D01*
X710Y449D01*
X710Y451D01*
X713Y453D01*
X715Y457D01*
X716Y461D01*
Y479D01*
D02*
G37*
%LPD*%
D10*
X1374Y398D02*
D03*
X1337D02*
D03*
X1299D02*
D03*
Y508D02*
D03*
X1337D02*
D03*
X1374D02*
D03*
D11*
X1052Y177D02*
D03*
X981D02*
D03*
X777D02*
D03*
X848D02*
D03*
D12*
X304Y73D02*
D03*
Y423D02*
D03*
X88D02*
D03*
Y73D02*
D03*
D13*
X308Y185D02*
D03*
Y216D02*
D03*
Y248D02*
D03*
Y279D02*
D03*
Y311D02*
D03*
D14*
X1040Y374D02*
D03*
D15*
X788Y283D02*
D03*
Y374D02*
D03*
Y464D02*
D03*
D16*
X954Y69D02*
D03*
X876D02*
D03*
D17*
X1151Y484D02*
D03*
Y413D02*
D03*
X678D02*
D03*
Y484D02*
D03*
D18*
X662Y197D02*
X748Y283D01*
X678Y353D02*
X748Y283D01*
X788D02*
X884D01*
X1492Y508D02*
X1505Y495D01*
X1365Y547D02*
X1374Y538D01*
Y508D02*
Y538D01*
X1274Y547D02*
X1365D01*
X1250Y523D02*
X1274Y547D01*
X1503Y398D02*
X1505Y395D01*
X1353Y346D02*
X1374Y368D01*
X1337Y379D02*
Y398D01*
X1272Y315D02*
X1337Y379D01*
X959Y64D02*
X974Y79D01*
X1269Y315D02*
X1272D01*
X1374Y398D02*
X1503D01*
X1374Y368D02*
Y398D01*
Y508D02*
X1492D01*
X446Y279D02*
X522Y355D01*
X464Y248D02*
X599Y383D01*
X308Y248D02*
X464D01*
X599Y383D02*
Y477D01*
X875Y94D02*
X923Y142D01*
X875Y79D02*
Y94D01*
X1124Y484D02*
X1151D01*
X1040Y401D02*
X1124Y484D01*
X1040Y374D02*
Y401D01*
X780Y472D02*
X788Y464D01*
X678Y484D02*
X690Y472D01*
X308Y311D02*
X418D01*
X308Y279D02*
X446D01*
X748Y283D02*
X788D01*
X777Y272D02*
X788Y283D01*
X1040Y256D02*
Y374D01*
X876Y276D02*
X884Y283D01*
X974Y79D02*
X1023D01*
X418Y311D02*
X422Y315D01*
X450Y185D02*
X462Y197D01*
X1052Y177D02*
X1151D01*
X644Y523D02*
X1250D01*
X599Y477D02*
X644Y523D01*
X1040Y189D02*
Y256D01*
X678Y353D02*
Y413D01*
X458Y201D02*
X462Y197D01*
X1151Y177D02*
X1170Y197D01*
X1040Y189D02*
X1052Y177D01*
X777D02*
Y272D01*
D19*
X1320Y197D02*
D03*
X512Y197D02*
D03*
D20*
X1505Y497D02*
D03*
Y397D02*
D03*
Y297D02*
D03*
Y197D02*
D03*
Y97D02*
D03*
D21*
X206Y335D02*
D03*
Y161D02*
D03*
D22*
X1370Y197D02*
D03*
X1270D02*
D03*
X462D02*
D03*
X562D02*
D03*
D23*
X1170D02*
D03*
X662D02*
D03*
D24*
X1353Y346D02*
D03*
X1269Y315D02*
D03*
X522Y355D02*
D03*
X923Y142D02*
D03*
X876Y276D02*
D03*
X1023Y79D02*
D03*
X422Y315D02*
D03*
X1040Y256D02*
D03*
M02*
