G04 Layer_Color=32896*
%FSLAX23Y23*%
%MOIN*%
G70*
G01*
G75*
%ADD35R,0.571X0.010*%
%ADD36R,0.010X0.118*%
G36*
X1058Y246D02*
X1044D01*
X1031Y292D01*
X1042D01*
X1051Y254D01*
X1059Y292D01*
X1071D01*
X1058Y246D01*
D02*
G37*
G36*
X1015Y293D02*
X1016Y293D01*
X1018Y293D01*
X1019Y292D01*
X1021Y292D01*
X1022Y291D01*
X1023Y291D01*
X1024Y290D01*
X1025Y290D01*
X1026Y289D01*
X1027Y289D01*
X1028Y288D01*
X1028Y288D01*
X1028Y287D01*
X1029Y287D01*
X1029Y287D01*
X1023Y281D01*
X1023Y282D01*
X1022Y283D01*
X1021Y283D01*
X1020Y284D01*
X1019Y284D01*
X1019Y284D01*
X1017Y285D01*
X1016Y285D01*
X1015Y285D01*
X1015Y285D01*
X1015Y285D01*
X1014D01*
X1013Y285D01*
X1012Y285D01*
X1011Y285D01*
X1011Y285D01*
X1010Y284D01*
X1010Y284D01*
X1009Y284D01*
X1009Y284D01*
X1009Y283D01*
X1008Y283D01*
X1008Y282D01*
X1008Y281D01*
X1008Y281D01*
X1007Y280D01*
Y280D01*
Y280D01*
X1008Y279D01*
X1008Y278D01*
X1008Y277D01*
X1008Y277D01*
X1009Y276D01*
X1009Y276D01*
X1009Y275D01*
X1009Y275D01*
X1010Y275D01*
X1011Y274D01*
X1012Y274D01*
X1013Y274D01*
X1013Y274D01*
X1014Y274D01*
X1017D01*
X1019Y267D01*
X1014D01*
X1013Y267D01*
X1012Y266D01*
X1011Y266D01*
X1010Y266D01*
X1009Y265D01*
X1009Y264D01*
X1008Y264D01*
X1008Y263D01*
X1007Y262D01*
X1007Y262D01*
X1007Y261D01*
X1007Y261D01*
X1007Y260D01*
X1007Y260D01*
Y260D01*
Y260D01*
X1007Y259D01*
X1007Y258D01*
X1007Y257D01*
X1008Y256D01*
X1008Y255D01*
X1008Y255D01*
X1009Y255D01*
X1009Y255D01*
X1010Y254D01*
X1011Y254D01*
X1011Y253D01*
X1012Y253D01*
X1013Y253D01*
X1014Y253D01*
X1014D01*
X1015Y253D01*
X1016Y253D01*
X1017Y253D01*
X1018Y254D01*
X1020Y254D01*
X1021Y255D01*
X1021Y255D01*
X1022Y255D01*
X1022Y256D01*
X1023Y256D01*
X1023Y257D01*
X1024Y257D01*
X1024Y257D01*
X1024Y257D01*
X1024Y257D01*
X1030Y252D01*
X1029Y251D01*
X1028Y250D01*
X1026Y249D01*
X1025Y248D01*
X1024Y247D01*
X1023Y247D01*
X1023Y247D01*
X1023Y247D01*
X1023Y247D01*
X1023D01*
X1021Y246D01*
X1020Y246D01*
X1018Y245D01*
X1017Y245D01*
X1015Y245D01*
X1015D01*
X1015Y245D01*
X1014D01*
X1012Y245D01*
X1010Y245D01*
X1008Y245D01*
X1007Y246D01*
X1006Y246D01*
X1006Y246D01*
X1005Y246D01*
X1005Y246D01*
X1005Y246D01*
X1004Y247D01*
X1004Y247D01*
X1004D01*
X1003Y247D01*
X1002Y248D01*
X1000Y249D01*
X1000Y250D01*
X999Y251D01*
X998Y251D01*
X998Y252D01*
X998Y252D01*
Y252D01*
X997Y253D01*
X997Y254D01*
X996Y255D01*
X996Y257D01*
X996Y258D01*
X996Y258D01*
Y259D01*
Y259D01*
Y259D01*
Y259D01*
X996Y261D01*
X996Y262D01*
X997Y264D01*
X998Y265D01*
X998Y266D01*
X999Y267D01*
X1000Y268D01*
X1001Y268D01*
X1002Y269D01*
X1003Y269D01*
X1004Y270D01*
X1005Y270D01*
X1006Y270D01*
X1006Y270D01*
X1007Y270D01*
X1007D01*
X1005Y271D01*
X1004Y272D01*
X1003Y272D01*
X1002Y273D01*
X1001Y274D01*
X1000Y274D01*
X1000Y274D01*
X1000Y274D01*
X999Y276D01*
X998Y277D01*
X998Y278D01*
X998Y279D01*
X997Y280D01*
X997Y281D01*
X997Y281D01*
Y281D01*
Y281D01*
Y281D01*
X997Y283D01*
X998Y284D01*
X998Y285D01*
X998Y286D01*
X999Y286D01*
X999Y287D01*
X999Y287D01*
X999Y287D01*
X1000Y288D01*
X1001Y289D01*
X1002Y290D01*
X1003Y291D01*
X1003Y291D01*
X1004Y291D01*
X1004Y292D01*
X1005Y292D01*
X1005Y292D01*
X1005D01*
X1006Y292D01*
X1007Y293D01*
X1009Y293D01*
X1010Y293D01*
X1011Y293D01*
X1012D01*
X1012Y293D01*
X1013D01*
X1015Y293D01*
D02*
G37*
G36*
X640Y463D02*
X638D01*
X638Y463D01*
X639Y462D01*
X639Y461D01*
X639Y460D01*
X640Y460D01*
X640Y459D01*
X640Y459D01*
X640Y459D01*
X641Y459D01*
X641Y458D01*
X642Y458D01*
X642Y457D01*
X643Y457D01*
X643Y457D01*
X643Y457D01*
X644Y456D01*
X644Y456D01*
X645Y456D01*
X646Y455D01*
X647Y455D01*
X648Y455D01*
X648Y455D01*
X649Y455D01*
X649Y455D01*
X649D01*
X648Y449D01*
X647Y449D01*
X646Y450D01*
X645Y450D01*
X643Y450D01*
X643Y451D01*
X642Y451D01*
X641Y451D01*
X640Y452D01*
X639Y452D01*
X639Y452D01*
X638Y453D01*
X638Y453D01*
X638Y453D01*
X637Y453D01*
X637Y453D01*
X637Y454D01*
X636Y455D01*
X635Y457D01*
X634Y458D01*
X633Y460D01*
X632Y460D01*
X632Y461D01*
X632Y462D01*
X632Y462D01*
X631Y463D01*
X631Y463D01*
X631Y463D01*
Y463D01*
X619Y498D01*
X627D01*
X636Y469D01*
X644Y498D01*
X652D01*
X640Y463D01*
D02*
G37*
G36*
X529Y481D02*
X506D01*
Y487D01*
X529D01*
Y481D01*
D02*
G37*
G36*
X1095Y293D02*
X1096Y293D01*
X1098Y293D01*
X1099Y292D01*
X1101Y292D01*
X1102Y291D01*
X1103Y291D01*
X1104Y290D01*
X1105Y290D01*
X1106Y289D01*
X1107Y289D01*
X1108Y288D01*
X1108Y288D01*
X1108Y287D01*
X1109Y287D01*
X1109Y287D01*
X1103Y281D01*
X1102Y282D01*
X1102Y283D01*
X1101Y283D01*
X1100Y284D01*
X1099Y284D01*
X1099Y284D01*
X1097Y285D01*
X1096Y285D01*
X1095Y285D01*
X1095Y285D01*
X1095Y285D01*
X1094D01*
X1093Y285D01*
X1092Y285D01*
X1091Y285D01*
X1091Y285D01*
X1090Y284D01*
X1090Y284D01*
X1089Y284D01*
X1089Y284D01*
X1089Y283D01*
X1088Y283D01*
X1088Y282D01*
X1088Y281D01*
X1087Y281D01*
X1087Y280D01*
Y280D01*
Y280D01*
X1087Y279D01*
X1088Y278D01*
X1088Y277D01*
X1088Y277D01*
X1089Y276D01*
X1089Y276D01*
X1089Y275D01*
X1089Y275D01*
X1090Y275D01*
X1091Y274D01*
X1092Y274D01*
X1092Y274D01*
X1093Y274D01*
X1094Y274D01*
X1097D01*
X1098Y267D01*
X1094D01*
X1093Y267D01*
X1092Y266D01*
X1091Y266D01*
X1090Y266D01*
X1089Y265D01*
X1088Y264D01*
X1088Y264D01*
X1088Y263D01*
X1087Y262D01*
X1087Y262D01*
X1087Y261D01*
X1087Y261D01*
X1087Y260D01*
X1087Y260D01*
Y260D01*
Y260D01*
X1087Y259D01*
X1087Y258D01*
X1087Y257D01*
X1088Y256D01*
X1088Y255D01*
X1088Y255D01*
X1089Y255D01*
X1089Y255D01*
X1090Y254D01*
X1090Y254D01*
X1091Y253D01*
X1092Y253D01*
X1093Y253D01*
X1094Y253D01*
X1094D01*
X1095Y253D01*
X1096Y253D01*
X1097Y253D01*
X1098Y254D01*
X1100Y254D01*
X1101Y255D01*
X1101Y255D01*
X1102Y255D01*
X1102Y256D01*
X1103Y256D01*
X1103Y257D01*
X1103Y257D01*
X1104Y257D01*
X1104Y257D01*
X1104Y257D01*
X1110Y252D01*
X1109Y251D01*
X1107Y250D01*
X1106Y249D01*
X1105Y248D01*
X1104Y247D01*
X1103Y247D01*
X1103Y247D01*
X1103Y247D01*
X1103Y247D01*
X1103D01*
X1101Y246D01*
X1100Y246D01*
X1098Y245D01*
X1097Y245D01*
X1095Y245D01*
X1095D01*
X1094Y245D01*
X1094D01*
X1092Y245D01*
X1090Y245D01*
X1088Y245D01*
X1087Y246D01*
X1086Y246D01*
X1086Y246D01*
X1085Y246D01*
X1085Y246D01*
X1085Y246D01*
X1084Y247D01*
X1084Y247D01*
X1084D01*
X1083Y247D01*
X1081Y248D01*
X1080Y249D01*
X1080Y250D01*
X1079Y251D01*
X1078Y251D01*
X1078Y252D01*
X1078Y252D01*
Y252D01*
X1077Y253D01*
X1077Y254D01*
X1076Y255D01*
X1076Y257D01*
X1076Y258D01*
X1076Y258D01*
Y259D01*
Y259D01*
Y259D01*
Y259D01*
X1076Y261D01*
X1076Y262D01*
X1077Y264D01*
X1077Y265D01*
X1078Y266D01*
X1079Y267D01*
X1080Y268D01*
X1081Y268D01*
X1082Y269D01*
X1083Y269D01*
X1084Y270D01*
X1085Y270D01*
X1086Y270D01*
X1086Y270D01*
X1087Y270D01*
X1087D01*
X1085Y271D01*
X1084Y272D01*
X1083Y272D01*
X1082Y273D01*
X1081Y274D01*
X1080Y274D01*
X1080Y274D01*
X1080Y274D01*
X1079Y276D01*
X1078Y277D01*
X1078Y278D01*
X1078Y279D01*
X1077Y280D01*
X1077Y281D01*
X1077Y281D01*
Y281D01*
Y281D01*
Y281D01*
X1077Y283D01*
X1077Y284D01*
X1078Y285D01*
X1078Y286D01*
X1079Y286D01*
X1079Y287D01*
X1079Y287D01*
X1079Y287D01*
X1080Y288D01*
X1081Y289D01*
X1082Y290D01*
X1083Y291D01*
X1083Y291D01*
X1084Y291D01*
X1084Y292D01*
X1084Y292D01*
X1085Y292D01*
X1085D01*
X1086Y292D01*
X1087Y293D01*
X1089Y293D01*
X1090Y293D01*
X1091Y293D01*
X1092D01*
X1092Y293D01*
X1093D01*
X1095Y293D01*
D02*
G37*
G36*
X1068Y49D02*
X1059D01*
Y66D01*
Y68D01*
X1059Y70D01*
X1059Y72D01*
X1059Y73D01*
X1059Y74D01*
X1059Y75D01*
Y75D01*
X1059Y76D01*
Y76D01*
X1059Y76D01*
Y76D01*
Y76D01*
X1059Y78D01*
X1060Y80D01*
X1060Y82D01*
X1060Y83D01*
X1060Y84D01*
X1060Y84D01*
X1060Y85D01*
X1060Y85D01*
X1060Y86D01*
X1060Y86D01*
Y86D01*
Y86D01*
X1048Y49D01*
X1035D01*
Y95D01*
X1044D01*
Y78D01*
X1044Y74D01*
X1044Y71D01*
X1044Y69D01*
X1044Y68D01*
X1043Y66D01*
X1043Y65D01*
X1043Y63D01*
X1043Y62D01*
X1043Y61D01*
X1043Y60D01*
X1043Y59D01*
X1043Y59D01*
X1043Y58D01*
Y58D01*
X1054Y95D01*
X1068D01*
Y49D01*
D02*
G37*
G36*
X1110Y344D02*
X1097D01*
X1095Y344D01*
X1093Y345D01*
X1092Y345D01*
X1090Y345D01*
X1088Y346D01*
X1087Y347D01*
X1086Y347D01*
X1084Y348D01*
X1083Y349D01*
X1082Y350D01*
X1081Y351D01*
X1081Y352D01*
X1080Y353D01*
X1079Y354D01*
X1078Y355D01*
X1078Y356D01*
X1077Y358D01*
X1076Y360D01*
X1076Y362D01*
X1076Y363D01*
X1075Y364D01*
X1075Y365D01*
X1075Y366D01*
X1075Y366D01*
Y367D01*
X1075Y367D01*
Y367D01*
Y368D01*
Y368D01*
X1075Y370D01*
X1075Y372D01*
X1076Y374D01*
X1076Y376D01*
X1077Y378D01*
X1077Y379D01*
X1078Y380D01*
X1078Y382D01*
X1079Y383D01*
X1079Y383D01*
X1080Y384D01*
X1080Y385D01*
X1081Y385D01*
X1081Y385D01*
X1081Y386D01*
X1081Y386D01*
X1083Y386D01*
X1084Y387D01*
X1085Y388D01*
X1087Y388D01*
X1088Y389D01*
X1089Y389D01*
X1091Y390D01*
X1092Y390D01*
X1093Y390D01*
X1094Y390D01*
X1096Y390D01*
X1096Y390D01*
X1097Y391D01*
X1110D01*
Y344D01*
D02*
G37*
G36*
X1028Y49D02*
X1016D01*
X1014Y49D01*
X1012Y49D01*
X1010Y50D01*
X1008Y50D01*
X1007Y51D01*
X1005Y51D01*
X1004Y52D01*
X1003Y53D01*
X1001Y54D01*
X1000Y55D01*
X1000Y56D01*
X999Y57D01*
X998Y58D01*
X997Y59D01*
X997Y60D01*
X996Y61D01*
X995Y63D01*
X994Y65D01*
X994Y67D01*
X994Y68D01*
X994Y69D01*
X993Y70D01*
X993Y70D01*
X993Y71D01*
Y71D01*
X993Y72D01*
Y72D01*
Y72D01*
Y72D01*
X993Y75D01*
X993Y77D01*
X994Y79D01*
X994Y81D01*
X995Y82D01*
X995Y84D01*
X996Y85D01*
X996Y86D01*
X997Y87D01*
X998Y88D01*
X998Y89D01*
X999Y89D01*
X999Y90D01*
X999Y90D01*
X999Y90D01*
X1000Y90D01*
X1001Y91D01*
X1002Y92D01*
X1003Y93D01*
X1005Y93D01*
X1006Y94D01*
X1008Y94D01*
X1009Y94D01*
X1010Y95D01*
X1012Y95D01*
X1013Y95D01*
X1014Y95D01*
X1015Y95D01*
X1015Y95D01*
X1028D01*
Y49D01*
D02*
G37*
G36*
X1091Y96D02*
X1093Y96D01*
X1094Y96D01*
X1095Y95D01*
X1096Y95D01*
X1097Y95D01*
X1097Y95D01*
X1098Y94D01*
X1098Y94D01*
X1099Y94D01*
X1099Y94D01*
X1099Y94D01*
X1099Y94D01*
X1101Y93D01*
X1103Y91D01*
X1104Y90D01*
X1105Y88D01*
X1106Y87D01*
X1106Y87D01*
X1106Y86D01*
X1107Y86D01*
X1107Y86D01*
X1107Y85D01*
X1107Y85D01*
X1108Y83D01*
X1109Y81D01*
X1109Y79D01*
X1109Y77D01*
X1110Y76D01*
X1110Y75D01*
X1110Y74D01*
Y74D01*
X1110Y73D01*
Y73D01*
Y72D01*
Y72D01*
X1110Y70D01*
X1110Y68D01*
X1109Y66D01*
X1109Y64D01*
X1109Y63D01*
X1108Y61D01*
X1108Y60D01*
X1107Y59D01*
X1107Y58D01*
X1106Y57D01*
X1106Y56D01*
X1105Y55D01*
X1105Y55D01*
X1105Y54D01*
X1105Y54D01*
X1105Y54D01*
X1104Y53D01*
X1103Y52D01*
X1101Y51D01*
X1100Y51D01*
X1099Y50D01*
X1098Y50D01*
X1096Y49D01*
X1095Y49D01*
X1094Y49D01*
X1093Y48D01*
X1092Y48D01*
X1091Y48D01*
X1091D01*
X1090Y48D01*
X1090D01*
X1088Y48D01*
X1087Y48D01*
X1085Y48D01*
X1084Y49D01*
X1082Y49D01*
X1081Y49D01*
X1080Y50D01*
X1078Y50D01*
X1077Y51D01*
X1076Y51D01*
X1076Y52D01*
X1075Y52D01*
X1074Y52D01*
X1074Y52D01*
X1074Y53D01*
X1074Y53D01*
Y76D01*
X1091D01*
X1090Y68D01*
X1084D01*
Y57D01*
X1085Y57D01*
X1086Y57D01*
X1087Y56D01*
X1088Y56D01*
X1088Y56D01*
X1089Y56D01*
X1090D01*
X1090Y56D01*
X1091Y56D01*
X1093Y57D01*
X1094Y57D01*
X1095Y58D01*
X1095Y59D01*
X1096Y59D01*
X1096Y60D01*
X1096Y60D01*
Y60D01*
X1097Y60D01*
X1097Y61D01*
X1097Y62D01*
X1098Y63D01*
X1098Y65D01*
X1098Y67D01*
X1098Y68D01*
X1098Y69D01*
X1098Y70D01*
Y71D01*
X1099Y71D01*
Y72D01*
Y72D01*
Y72D01*
X1098Y74D01*
X1098Y75D01*
X1098Y76D01*
X1098Y78D01*
X1098Y79D01*
X1098Y80D01*
X1097Y81D01*
X1097Y81D01*
X1097Y82D01*
X1097Y83D01*
X1096Y83D01*
X1096Y84D01*
X1096Y84D01*
X1096Y84D01*
X1096Y84D01*
Y84D01*
X1095Y85D01*
X1095Y86D01*
X1094Y86D01*
X1093Y87D01*
X1093Y87D01*
X1092Y87D01*
X1091Y88D01*
X1090Y88D01*
X1089Y88D01*
X1089Y88D01*
X1088Y88D01*
X1088D01*
X1087Y88D01*
X1086Y88D01*
X1085Y88D01*
X1085Y88D01*
X1084Y88D01*
X1084Y88D01*
X1084Y88D01*
X1084Y88D01*
X1083Y87D01*
X1082Y87D01*
X1081Y86D01*
X1081Y86D01*
X1080Y85D01*
X1080Y85D01*
X1080Y85D01*
X1079Y85D01*
X1074Y91D01*
X1075Y92D01*
X1076Y93D01*
X1077Y93D01*
X1078Y94D01*
X1079Y94D01*
X1080Y95D01*
X1080Y95D01*
X1080Y95D01*
X1080Y95D01*
X1080D01*
X1082Y95D01*
X1083Y96D01*
X1084Y96D01*
X1086Y96D01*
X1087Y96D01*
X1087D01*
X1088Y96D01*
X1088D01*
X1091Y96D01*
D02*
G37*
G36*
X691Y507D02*
X681D01*
Y474D01*
X681Y473D01*
X681Y472D01*
X681Y470D01*
X680Y469D01*
X680Y468D01*
X679Y467D01*
X679Y466D01*
X678Y466D01*
X678Y466D01*
X678Y466D01*
Y466D01*
X678Y465D01*
X677Y465D01*
X676Y464D01*
X674Y463D01*
X673Y463D01*
X672Y463D01*
X671Y463D01*
X671D01*
X671Y463D01*
X670D01*
X668Y463D01*
X666Y463D01*
X665Y463D01*
X664Y464D01*
X663Y464D01*
X663Y464D01*
X662Y464D01*
X662Y464D01*
X661Y464D01*
X661Y465D01*
X661Y465D01*
X661D01*
X663Y470D01*
X664Y469D01*
X665Y469D01*
X666Y469D01*
X667Y469D01*
X667Y469D01*
X668Y469D01*
X668D01*
X669Y469D01*
X670Y469D01*
X671Y469D01*
X671Y469D01*
X672Y470D01*
X672Y470D01*
X673Y470D01*
X673Y471D01*
X673Y472D01*
X674Y472D01*
Y473D01*
X674Y473D01*
Y473D01*
Y473D01*
Y512D01*
X691D01*
Y507D01*
D02*
G37*
G36*
X559Y499D02*
X560Y499D01*
X561Y499D01*
X562Y498D01*
X563Y498D01*
X563Y498D01*
X564Y498D01*
X565Y497D01*
X565Y497D01*
X566Y497D01*
X566Y497D01*
X566Y497D01*
X566Y496D01*
X567Y496D01*
X567Y496D01*
X567Y496D01*
X568Y495D01*
X568Y495D01*
X569Y494D01*
X569Y493D01*
X570Y493D01*
X570Y492D01*
X570Y491D01*
X570Y490D01*
X570Y490D01*
X570Y490D01*
Y489D01*
Y489D01*
Y489D01*
X570Y488D01*
X570Y488D01*
X570Y486D01*
X570Y485D01*
X569Y484D01*
X569Y484D01*
X568Y483D01*
X568Y483D01*
X568Y483D01*
X567Y482D01*
X566Y482D01*
X565Y481D01*
X564Y480D01*
X562Y480D01*
X561Y479D01*
X560Y479D01*
X560Y479D01*
X560Y479D01*
X559Y479D01*
X559Y479D01*
X559D01*
X558Y479D01*
X557Y478D01*
X556Y478D01*
X555Y478D01*
X554Y477D01*
X554Y477D01*
X554Y477D01*
X554Y477D01*
X553Y477D01*
X553Y476D01*
X552Y476D01*
X552Y476D01*
X552Y476D01*
X551Y476D01*
X551Y475D01*
Y475D01*
X551Y475D01*
X551Y474D01*
X551Y473D01*
Y473D01*
Y473D01*
Y473D01*
X551Y472D01*
X551Y471D01*
X551Y471D01*
X552Y470D01*
X552Y470D01*
X552Y470D01*
X553Y470D01*
X553Y469D01*
X554Y469D01*
X554Y469D01*
X555Y469D01*
X556Y468D01*
X557Y468D01*
X558Y468D01*
X558D01*
X559Y468D01*
X560Y468D01*
X561Y469D01*
X562Y469D01*
X563Y469D01*
X563Y469D01*
X564Y469D01*
X564Y469D01*
X565Y470D01*
X566Y470D01*
X566Y471D01*
X567Y471D01*
X568Y471D01*
X568Y472D01*
X568Y472D01*
X569Y472D01*
X572Y467D01*
X571Y467D01*
X570Y466D01*
X569Y465D01*
X568Y465D01*
X567Y464D01*
X566Y464D01*
X564Y463D01*
X563Y463D01*
X562Y463D01*
X561Y463D01*
X560Y463D01*
X560Y463D01*
X559D01*
X559Y463D01*
X558D01*
X556Y463D01*
X554Y463D01*
X553Y463D01*
X552Y463D01*
X551Y464D01*
X550Y464D01*
X550Y464D01*
X549Y464D01*
X549Y465D01*
X548Y465D01*
X548Y465D01*
X548Y465D01*
X547Y465D01*
X547D01*
X547Y466D01*
X546Y466D01*
X545Y467D01*
X545Y468D01*
X544Y468D01*
X544Y469D01*
X543Y470D01*
X543Y472D01*
X543Y472D01*
X543Y473D01*
X543Y473D01*
Y473D01*
Y473D01*
Y473D01*
Y474D01*
X543Y475D01*
X543Y476D01*
X544Y478D01*
X544Y479D01*
X545Y479D01*
X545Y480D01*
X546Y480D01*
X546Y480D01*
X546D01*
X546Y481D01*
X547Y481D01*
X548Y482D01*
X550Y483D01*
X551Y483D01*
X552Y484D01*
X553Y484D01*
X553Y484D01*
X554Y484D01*
X554Y484D01*
X554Y484D01*
X554D01*
X555Y484D01*
X557Y485D01*
X557Y485D01*
X558Y485D01*
X559Y486D01*
X559Y486D01*
X560Y486D01*
X560D01*
X560Y486D01*
X561Y486D01*
X561Y487D01*
X562Y487D01*
X562Y487D01*
X562Y487D01*
X562Y487D01*
X562Y488D01*
X562Y488D01*
X563Y488D01*
X563Y489D01*
Y489D01*
X563Y489D01*
Y490D01*
Y490D01*
X563Y490D01*
X563Y491D01*
X562Y491D01*
X562Y492D01*
X561Y492D01*
X561Y493D01*
X560Y493D01*
X558Y493D01*
X558Y493D01*
X557Y493D01*
X557Y493D01*
X555D01*
X554Y493D01*
X553Y493D01*
X551Y492D01*
X549Y492D01*
X549Y492D01*
X548Y491D01*
X548Y491D01*
X547Y491D01*
X547Y491D01*
X547Y491D01*
X547Y490D01*
X547Y490D01*
X543Y495D01*
X544Y496D01*
X546Y496D01*
X547Y497D01*
X548Y497D01*
X549Y498D01*
X550Y498D01*
X552Y499D01*
X553Y499D01*
X554Y499D01*
X555Y499D01*
X555Y499D01*
X556Y499D01*
X557D01*
X559Y499D01*
D02*
G37*
G36*
X716Y499D02*
X717Y499D01*
X718Y499D01*
X719Y498D01*
X720Y498D01*
X721Y497D01*
X722Y497D01*
X723Y497D01*
X724Y496D01*
X724Y496D01*
X725Y495D01*
X725Y495D01*
X725Y495D01*
X726Y494D01*
X726Y494D01*
X726Y494D01*
X727Y493D01*
X727Y492D01*
X728Y491D01*
X728Y490D01*
X729Y489D01*
X729Y488D01*
X730Y486D01*
X730Y485D01*
X730Y484D01*
X730Y483D01*
X730Y482D01*
X730Y482D01*
Y481D01*
Y481D01*
Y481D01*
X730Y479D01*
X730Y478D01*
X730Y476D01*
X729Y475D01*
X729Y474D01*
X729Y473D01*
X728Y472D01*
X728Y471D01*
X728Y470D01*
X727Y469D01*
X727Y469D01*
X727Y468D01*
X726Y468D01*
X726Y468D01*
X726Y467D01*
X726Y467D01*
X725Y467D01*
X724Y466D01*
X723Y465D01*
X722Y465D01*
X721Y464D01*
X721Y464D01*
X720Y463D01*
X719Y463D01*
X718Y463D01*
X717Y463D01*
X716Y463D01*
X716Y463D01*
X715D01*
X715Y463D01*
X714D01*
X713Y463D01*
X712Y463D01*
X711Y463D01*
X709Y463D01*
X708Y464D01*
X708Y464D01*
X707Y465D01*
X706Y465D01*
X705Y466D01*
X705Y466D01*
X704Y466D01*
X704Y467D01*
X703Y467D01*
X703Y467D01*
X703Y467D01*
X703Y468D01*
X702Y469D01*
X701Y470D01*
X701Y471D01*
X701Y472D01*
X700Y473D01*
X700Y474D01*
X699Y476D01*
X699Y477D01*
X699Y478D01*
X699Y479D01*
X699Y480D01*
X699Y480D01*
Y480D01*
Y481D01*
Y481D01*
X699Y482D01*
X699Y484D01*
X699Y485D01*
X699Y487D01*
X700Y488D01*
X700Y489D01*
X700Y490D01*
X701Y491D01*
X701Y491D01*
X701Y492D01*
X702Y493D01*
X702Y493D01*
X702Y494D01*
X703Y494D01*
X703Y494D01*
X703Y494D01*
X704Y495D01*
X704Y496D01*
X705Y496D01*
X706Y497D01*
X707Y497D01*
X708Y498D01*
X709Y498D01*
X710Y498D01*
X711Y499D01*
X712Y499D01*
X713Y499D01*
X713Y499D01*
X714Y499D01*
X714D01*
X716Y499D01*
D02*
G37*
G36*
X752D02*
X753Y499D01*
X754Y499D01*
X755Y498D01*
X755Y498D01*
X756Y498D01*
X756Y498D01*
X756Y498D01*
X757Y497D01*
X758Y496D01*
X759Y496D01*
X759Y495D01*
X760Y495D01*
X760Y494D01*
X761Y494D01*
X761Y494D01*
X761Y498D01*
X768D01*
Y449D01*
X760Y450D01*
Y466D01*
X760Y466D01*
X759Y465D01*
X758Y465D01*
X758Y464D01*
X757Y464D01*
X756Y464D01*
X755Y463D01*
X753Y463D01*
X753Y463D01*
X752Y463D01*
X752Y463D01*
X751D01*
X750Y463D01*
X749Y463D01*
X748Y463D01*
X747Y463D01*
X746Y464D01*
X746Y464D01*
X745Y465D01*
X744Y465D01*
X744Y466D01*
X743Y466D01*
X743Y466D01*
X742Y467D01*
X742Y467D01*
X742Y467D01*
X742Y468D01*
X742Y468D01*
X741Y469D01*
X740Y470D01*
X740Y471D01*
X740Y472D01*
X739Y474D01*
X739Y476D01*
X738Y477D01*
X738Y478D01*
X738Y479D01*
X738Y480D01*
X738Y480D01*
Y481D01*
Y481D01*
Y481D01*
X738Y483D01*
X738Y484D01*
X738Y486D01*
X739Y487D01*
X739Y488D01*
X739Y489D01*
X740Y490D01*
X740Y491D01*
X741Y492D01*
X741Y493D01*
X742Y494D01*
X742Y495D01*
X743Y495D01*
X743Y496D01*
X744Y497D01*
X746Y498D01*
X747Y498D01*
X748Y499D01*
X749Y499D01*
X750Y499D01*
X750Y499D01*
X751Y499D01*
X751D01*
X752Y499D01*
D02*
G37*
G36*
X401Y475D02*
X401Y475D01*
X402Y475D01*
X403Y474D01*
X403Y474D01*
X404Y474D01*
X404Y474D01*
X404Y473D01*
X405Y473D01*
X405Y472D01*
X405Y471D01*
X406Y471D01*
X406Y470D01*
X406Y469D01*
Y469D01*
Y469D01*
X406Y468D01*
X406Y467D01*
X405Y466D01*
X405Y466D01*
X405Y465D01*
X404Y465D01*
X404Y465D01*
X404Y464D01*
X403Y464D01*
X403Y463D01*
X402Y463D01*
X401Y463D01*
X401Y463D01*
X400Y463D01*
X400D01*
X399Y463D01*
X398Y463D01*
X397Y463D01*
X396Y464D01*
X396Y464D01*
X395Y464D01*
X395Y464D01*
X395Y464D01*
X394Y465D01*
X394Y466D01*
X394Y467D01*
X393Y467D01*
X393Y468D01*
X393Y469D01*
Y469D01*
Y469D01*
X393Y470D01*
X393Y471D01*
X394Y472D01*
X394Y472D01*
X394Y473D01*
X395Y473D01*
X395Y473D01*
X395Y473D01*
X396Y474D01*
X397Y475D01*
X397Y475D01*
X398Y475D01*
X399Y475D01*
X399Y475D01*
X400D01*
X401Y475D01*
D02*
G37*
G36*
X351Y499D02*
X352Y499D01*
X354Y498D01*
X355Y498D01*
X356Y497D01*
X356Y497D01*
X357Y497D01*
X357Y497D01*
X357D01*
X358Y496D01*
X359Y495D01*
X360Y494D01*
X360Y493D01*
X361Y492D01*
X361Y491D01*
X361Y491D01*
X362Y490D01*
X362Y490D01*
Y490D01*
X363Y498D01*
X374D01*
Y493D01*
X369D01*
Y469D01*
X374D01*
Y463D01*
X354D01*
Y469D01*
X361D01*
Y482D01*
X361Y483D01*
X360Y485D01*
X359Y486D01*
X359Y488D01*
X358Y488D01*
X357Y489D01*
X357Y489D01*
X357Y490D01*
X356Y490D01*
X355Y491D01*
X354Y492D01*
X353Y492D01*
X352Y492D01*
X351Y492D01*
X351Y492D01*
X351D01*
Y485D01*
X345D01*
X344Y498D01*
X345Y498D01*
X346Y499D01*
X347Y499D01*
X348Y499D01*
X348Y499D01*
X349Y499D01*
X349D01*
X351Y499D01*
D02*
G37*
G36*
X610Y473D02*
X610Y471D01*
X610Y470D01*
X609Y468D01*
X609Y467D01*
X608Y466D01*
X608Y466D01*
X608Y465D01*
X608Y465D01*
X607Y464D01*
X605Y464D01*
X604Y463D01*
X603Y463D01*
X602Y463D01*
X601Y463D01*
X601D01*
X601Y463D01*
X600D01*
X599Y463D01*
X598Y463D01*
X597Y463D01*
X596Y463D01*
X595Y464D01*
X595Y464D01*
X594Y464D01*
X594Y464D01*
X593Y465D01*
X592Y465D01*
X591Y466D01*
X591Y467D01*
X590Y467D01*
X590Y468D01*
X589Y468D01*
X589Y468D01*
X589Y463D01*
X582D01*
Y498D01*
X590D01*
Y473D01*
X590Y472D01*
X591Y472D01*
X592Y471D01*
X592Y471D01*
X593Y470D01*
X593Y470D01*
X593Y470D01*
X593Y470D01*
X594Y469D01*
X595Y469D01*
X596Y469D01*
X596Y468D01*
X597Y468D01*
X598Y468D01*
X598D01*
X599Y468D01*
X600Y468D01*
X600Y469D01*
X601Y469D01*
X601Y469D01*
X601Y469D01*
X602Y469D01*
X602Y470D01*
X602Y470D01*
X602Y471D01*
X603Y471D01*
X603Y472D01*
X603Y473D01*
X603Y473D01*
Y474D01*
Y474D01*
Y498D01*
X610D01*
Y473D01*
D02*
G37*
G36*
X446Y506D02*
Y498D01*
X454D01*
Y493D01*
X446D01*
Y474D01*
X446Y473D01*
X446Y472D01*
X446Y470D01*
X445Y469D01*
X445Y468D01*
X444Y467D01*
X444Y467D01*
X444Y466D01*
X443Y466D01*
X443Y466D01*
X443Y466D01*
X443Y466D01*
X442Y465D01*
X442Y465D01*
X440Y464D01*
X439Y463D01*
X437Y463D01*
X436Y463D01*
X435Y463D01*
X435D01*
X434Y463D01*
X434D01*
X433Y463D01*
X432Y463D01*
X431Y463D01*
X430Y463D01*
X429Y463D01*
X429Y463D01*
X429Y463D01*
X428D01*
X427Y464D01*
X427Y464D01*
X426Y464D01*
X425Y465D01*
X425Y465D01*
X424Y465D01*
X424Y465D01*
X424Y465D01*
X426Y470D01*
X428Y470D01*
X429Y469D01*
X430Y469D01*
X431Y469D01*
X432Y469D01*
X432Y469D01*
X433D01*
X434Y469D01*
X435Y469D01*
X436Y469D01*
X436Y469D01*
X437Y469D01*
X437Y470D01*
X437Y470D01*
X437Y470D01*
X438Y470D01*
X438Y471D01*
X439Y472D01*
X439Y472D01*
X439Y473D01*
X439Y474D01*
Y474D01*
Y474D01*
Y493D01*
X428D01*
X427Y498D01*
X439D01*
Y507D01*
X446Y506D01*
D02*
G37*
G36*
X475Y499D02*
X476Y499D01*
X477Y499D01*
X478Y498D01*
X479Y498D01*
X480Y498D01*
X480Y498D01*
X480Y498D01*
X480D01*
X481Y497D01*
X482Y496D01*
X483Y496D01*
X484Y495D01*
X484Y495D01*
X485Y494D01*
X485Y494D01*
X485Y494D01*
X486Y498D01*
X492D01*
Y463D01*
X485D01*
Y488D01*
X484Y489D01*
X484Y490D01*
X483Y490D01*
X482Y491D01*
X482Y491D01*
X481Y492D01*
X481Y492D01*
X481Y492D01*
X480Y492D01*
X479Y493D01*
X479Y493D01*
X478Y493D01*
X477Y493D01*
X477Y493D01*
X477D01*
X476Y493D01*
X475Y493D01*
X475Y493D01*
X474Y493D01*
X474Y493D01*
X474Y493D01*
X474Y493D01*
X473Y493D01*
X473Y492D01*
X473Y492D01*
X472Y491D01*
X472Y491D01*
X472Y490D01*
X472Y490D01*
Y490D01*
X472Y489D01*
X472Y488D01*
X472Y488D01*
Y487D01*
X472Y486D01*
Y486D01*
Y485D01*
Y485D01*
Y485D01*
Y463D01*
X464D01*
Y489D01*
X464Y491D01*
X465Y492D01*
X465Y493D01*
X466Y494D01*
X466Y495D01*
X466Y496D01*
X467Y496D01*
X467Y496D01*
X468Y497D01*
X469Y498D01*
X470Y498D01*
X471Y499D01*
X472Y499D01*
X473Y499D01*
X473D01*
X474Y499D01*
X474D01*
X475Y499D01*
D02*
G37*
G36*
X335Y473D02*
X335Y471D01*
X334Y470D01*
X334Y468D01*
X333Y467D01*
X333Y466D01*
X333Y466D01*
X332Y465D01*
X332Y465D01*
X331Y464D01*
X330Y464D01*
X329Y463D01*
X328Y463D01*
X326Y463D01*
X326Y463D01*
X325D01*
X325Y463D01*
X325D01*
X324Y463D01*
X322Y463D01*
X321Y463D01*
X320Y463D01*
X320Y464D01*
X319Y464D01*
X319Y464D01*
X319Y464D01*
X318Y465D01*
X317Y465D01*
X316Y466D01*
X315Y467D01*
X315Y467D01*
X314Y468D01*
X314Y468D01*
X314Y468D01*
X313Y463D01*
X307D01*
Y498D01*
X314D01*
Y473D01*
X315Y472D01*
X315Y472D01*
X316Y471D01*
X317Y471D01*
X317Y470D01*
X317Y470D01*
X318Y470D01*
X318Y470D01*
X319Y469D01*
X320Y469D01*
X320Y469D01*
X321Y468D01*
X322Y468D01*
X322Y468D01*
X322D01*
X323Y468D01*
X324Y468D01*
X325Y469D01*
X325Y469D01*
X326Y469D01*
X326Y469D01*
X326Y469D01*
X326Y470D01*
X327Y470D01*
X327Y471D01*
X327Y471D01*
X327Y472D01*
X327Y473D01*
X327Y473D01*
Y474D01*
Y474D01*
Y498D01*
X335D01*
Y473D01*
D02*
G37*
G36*
X1066Y361D02*
X1041D01*
Y369D01*
X1066D01*
Y361D01*
D02*
G37*
G36*
X1110Y443D02*
X1097D01*
X1095Y443D01*
X1093Y443D01*
X1092Y443D01*
X1090Y444D01*
X1088Y444D01*
X1087Y445D01*
X1086Y446D01*
X1084Y446D01*
X1083Y447D01*
X1082Y448D01*
X1081Y449D01*
X1081Y450D01*
X1080Y451D01*
X1079Y452D01*
X1078Y453D01*
X1078Y454D01*
X1077Y457D01*
X1076Y459D01*
X1076Y461D01*
X1076Y462D01*
X1075Y462D01*
X1075Y463D01*
X1075Y464D01*
X1075Y465D01*
Y465D01*
X1075Y466D01*
Y466D01*
Y466D01*
Y466D01*
X1075Y468D01*
X1075Y471D01*
X1076Y473D01*
X1076Y474D01*
X1077Y476D01*
X1077Y478D01*
X1078Y479D01*
X1078Y480D01*
X1079Y481D01*
X1079Y482D01*
X1080Y483D01*
X1080Y483D01*
X1081Y484D01*
X1081Y484D01*
X1081Y484D01*
X1081Y484D01*
X1083Y485D01*
X1084Y486D01*
X1085Y486D01*
X1087Y487D01*
X1088Y487D01*
X1089Y488D01*
X1091Y488D01*
X1092Y488D01*
X1093Y489D01*
X1094Y489D01*
X1096Y489D01*
X1096Y489D01*
X1097Y489D01*
X1110D01*
Y443D01*
D02*
G37*
G36*
X1058Y468D02*
X1068D01*
Y460D01*
X1058D01*
Y449D01*
X1049D01*
Y460D01*
X1039D01*
Y468D01*
X1049D01*
Y478D01*
X1058D01*
Y468D01*
D02*
G37*
G36*
X817Y306D02*
X246D01*
Y433D01*
X817D01*
Y306D01*
D02*
G37*
G36*
X1059Y148D02*
X1046D01*
X1032Y194D01*
X1044D01*
X1052Y156D01*
X1061Y194D01*
X1072D01*
X1059Y148D01*
D02*
G37*
G36*
X1106Y169D02*
X1099D01*
X1098Y169D01*
X1097Y170D01*
X1096Y170D01*
X1095Y170D01*
X1095Y170D01*
X1094Y170D01*
X1093D01*
X1092Y170D01*
X1091Y170D01*
X1091Y170D01*
X1090Y169D01*
X1089Y169D01*
X1089Y168D01*
X1088Y167D01*
X1088Y167D01*
X1088Y166D01*
X1088Y165D01*
X1087Y164D01*
X1087Y164D01*
Y163D01*
X1087Y163D01*
Y163D01*
Y163D01*
X1087Y161D01*
X1088Y160D01*
X1088Y159D01*
X1088Y158D01*
X1089Y158D01*
X1089Y157D01*
X1089Y157D01*
X1089Y157D01*
X1090Y156D01*
X1091Y155D01*
X1092Y155D01*
X1093Y155D01*
X1094Y155D01*
X1095Y155D01*
X1095Y154D01*
X1095D01*
X1096Y155D01*
X1097Y155D01*
X1098Y155D01*
X1099Y155D01*
X1099Y155D01*
X1100Y155D01*
X1100Y156D01*
X1100Y156D01*
X1101Y156D01*
X1101Y157D01*
X1102Y157D01*
X1103Y158D01*
X1103Y158D01*
X1103Y159D01*
X1104Y159D01*
X1104Y159D01*
X1110Y153D01*
X1109Y152D01*
X1108Y151D01*
X1107Y150D01*
X1106Y150D01*
X1105Y149D01*
X1104Y149D01*
X1104Y148D01*
X1103Y148D01*
X1103Y148D01*
X1103D01*
X1102Y148D01*
X1100Y147D01*
X1099Y147D01*
X1097Y147D01*
X1096Y146D01*
X1096D01*
X1095Y146D01*
X1094D01*
X1093Y146D01*
X1091Y147D01*
X1089Y147D01*
X1088Y147D01*
X1087Y148D01*
X1087Y148D01*
X1086Y148D01*
X1086Y148D01*
X1085Y148D01*
X1085Y148D01*
X1085Y148D01*
X1085D01*
X1084Y149D01*
X1082Y150D01*
X1081Y151D01*
X1080Y152D01*
X1080Y153D01*
X1079Y154D01*
X1079Y154D01*
X1079Y154D01*
X1079Y154D01*
Y154D01*
X1078Y156D01*
X1077Y157D01*
X1077Y159D01*
X1077Y160D01*
X1077Y161D01*
X1076Y162D01*
X1076Y162D01*
Y162D01*
Y163D01*
Y163D01*
Y163D01*
X1076Y164D01*
X1077Y166D01*
X1077Y167D01*
X1077Y168D01*
X1078Y169D01*
X1078Y170D01*
X1078Y170D01*
X1078Y171D01*
X1078Y171D01*
Y171D01*
X1079Y172D01*
X1080Y173D01*
X1080Y174D01*
X1081Y175D01*
X1082Y175D01*
X1082Y176D01*
X1083Y176D01*
X1083Y176D01*
X1083D01*
X1084Y176D01*
X1085Y177D01*
X1086Y177D01*
X1087Y178D01*
X1088Y178D01*
X1089Y178D01*
X1089D01*
X1091Y178D01*
X1092Y177D01*
X1093Y177D01*
X1094Y177D01*
X1095Y177D01*
X1096Y176D01*
X1096Y176D01*
X1096Y176D01*
X1096Y176D01*
X1096D01*
Y186D01*
X1079D01*
X1078Y194D01*
X1106D01*
Y169D01*
D02*
G37*
%LPC*%
G36*
X1099Y383D02*
X1097D01*
X1096Y383D01*
X1095Y382D01*
X1093Y382D01*
X1092Y382D01*
X1091Y381D01*
X1090Y380D01*
X1089Y380D01*
X1089Y380D01*
X1089Y379D01*
Y379D01*
X1089Y379D01*
X1088Y378D01*
X1088Y377D01*
X1087Y376D01*
X1087Y374D01*
X1087Y372D01*
X1087Y371D01*
X1086Y371D01*
X1086Y370D01*
Y369D01*
X1086Y368D01*
Y368D01*
Y368D01*
Y368D01*
Y366D01*
X1086Y365D01*
X1087Y363D01*
X1087Y362D01*
X1087Y361D01*
X1087Y360D01*
X1087Y359D01*
X1088Y359D01*
X1088Y358D01*
X1088Y357D01*
X1088Y357D01*
X1089Y356D01*
X1089Y356D01*
X1089Y356D01*
X1089Y356D01*
Y356D01*
X1090Y355D01*
X1090Y355D01*
X1091Y354D01*
X1091Y354D01*
X1092Y353D01*
X1094Y353D01*
X1095Y353D01*
X1095Y352D01*
X1096Y352D01*
X1096Y352D01*
X1099D01*
Y383D01*
D02*
G37*
G36*
X1017Y87D02*
X1015D01*
X1014Y87D01*
X1013Y87D01*
X1011Y87D01*
X1010Y86D01*
X1009Y86D01*
X1008Y85D01*
X1008Y85D01*
X1007Y84D01*
X1007Y84D01*
Y84D01*
X1007Y83D01*
X1006Y83D01*
X1006Y82D01*
X1006Y81D01*
X1005Y79D01*
X1005Y77D01*
X1005Y76D01*
X1005Y75D01*
X1005Y74D01*
Y74D01*
X1004Y73D01*
Y73D01*
Y72D01*
Y72D01*
Y71D01*
X1005Y69D01*
X1005Y68D01*
X1005Y67D01*
X1005Y66D01*
X1005Y65D01*
X1006Y64D01*
X1006Y63D01*
X1006Y63D01*
X1006Y62D01*
X1007Y61D01*
X1007Y61D01*
X1007Y61D01*
X1007Y61D01*
X1007Y60D01*
Y60D01*
X1008Y60D01*
X1008Y59D01*
X1009Y59D01*
X1009Y59D01*
X1011Y58D01*
X1012Y57D01*
X1013Y57D01*
X1013Y57D01*
X1014Y57D01*
X1014Y57D01*
X1017D01*
Y87D01*
D02*
G37*
G36*
X715Y493D02*
X714D01*
X713Y493D01*
X712Y493D01*
X711Y492D01*
X710Y492D01*
X709Y491D01*
X709Y491D01*
X709Y490D01*
X708Y490D01*
Y490D01*
X708Y490D01*
X708Y489D01*
X707Y488D01*
X707Y486D01*
X707Y484D01*
X707Y483D01*
X707Y482D01*
X706Y482D01*
Y481D01*
Y481D01*
Y481D01*
Y481D01*
Y480D01*
X707Y479D01*
X707Y478D01*
X707Y477D01*
X707Y476D01*
X707Y475D01*
X707Y474D01*
X707Y474D01*
X708Y473D01*
X708Y473D01*
X708Y472D01*
X708Y472D01*
X708Y472D01*
X708Y471D01*
X708Y471D01*
Y471D01*
X709Y471D01*
X709Y470D01*
X710Y470D01*
X711Y469D01*
X712Y469D01*
X713Y468D01*
X714Y468D01*
X714Y468D01*
X714D01*
X715Y468D01*
X716Y468D01*
X717Y469D01*
X718Y469D01*
X719Y470D01*
X720Y470D01*
X720Y471D01*
X720Y471D01*
X720Y471D01*
X721Y472D01*
X721Y473D01*
X721Y474D01*
X722Y476D01*
X722Y477D01*
X722Y479D01*
X722Y479D01*
Y480D01*
X722Y480D01*
Y481D01*
Y481D01*
Y481D01*
Y482D01*
X722Y483D01*
X722Y484D01*
X722Y485D01*
X722Y486D01*
X722Y487D01*
X722Y487D01*
X721Y488D01*
X721Y488D01*
X721Y489D01*
X721Y489D01*
X721Y490D01*
X721Y490D01*
X720Y490D01*
X720Y490D01*
Y490D01*
X720Y491D01*
X720Y491D01*
X719Y492D01*
X718Y493D01*
X717Y493D01*
X716Y493D01*
X715Y493D01*
X715Y493D01*
D02*
G37*
G36*
X753Y493D02*
X752D01*
X751Y493D01*
X750Y493D01*
X750Y492D01*
X749Y492D01*
X748Y491D01*
X748Y491D01*
X748Y491D01*
X748Y490D01*
Y490D01*
X747Y490D01*
X747Y489D01*
X747Y488D01*
X746Y486D01*
X746Y484D01*
X746Y483D01*
Y482D01*
X746Y482D01*
Y481D01*
Y481D01*
Y481D01*
Y481D01*
Y480D01*
X746Y479D01*
X746Y478D01*
X746Y477D01*
X746Y476D01*
X746Y475D01*
X747Y474D01*
X747Y474D01*
X747Y473D01*
X747Y473D01*
X747Y472D01*
X747Y472D01*
X748Y472D01*
X748Y471D01*
X748Y471D01*
Y471D01*
X748Y471D01*
X749Y470D01*
X749Y470D01*
X750Y469D01*
X751Y469D01*
X752Y468D01*
X753Y468D01*
X753Y468D01*
X753D01*
X754Y468D01*
X755Y469D01*
X756Y469D01*
X756Y469D01*
X757Y470D01*
X758Y470D01*
X759Y471D01*
X760Y472D01*
X760Y472D01*
X760Y472D01*
X760Y472D01*
Y472D01*
Y488D01*
X760Y489D01*
X759Y490D01*
X759Y491D01*
X758Y491D01*
X758Y492D01*
X757Y492D01*
X757Y492D01*
X757Y492D01*
X756Y492D01*
X755Y493D01*
X755Y493D01*
X754Y493D01*
X754Y493D01*
X753Y493D01*
D02*
G37*
G36*
X1099Y481D02*
X1097D01*
X1096Y481D01*
X1095Y481D01*
X1093Y481D01*
X1092Y480D01*
X1091Y479D01*
X1090Y479D01*
X1089Y478D01*
X1089Y478D01*
X1089Y478D01*
Y478D01*
X1089Y477D01*
X1088Y476D01*
X1088Y476D01*
X1087Y475D01*
X1087Y473D01*
X1087Y471D01*
X1087Y470D01*
X1086Y469D01*
X1086Y468D01*
Y468D01*
X1086Y467D01*
Y467D01*
Y466D01*
Y466D01*
Y465D01*
X1086Y463D01*
X1087Y462D01*
X1087Y461D01*
X1087Y460D01*
X1087Y459D01*
X1087Y458D01*
X1088Y457D01*
X1088Y456D01*
X1088Y456D01*
X1088Y455D01*
X1089Y455D01*
X1089Y455D01*
X1089Y454D01*
X1089Y454D01*
Y454D01*
X1090Y454D01*
X1090Y453D01*
X1091Y453D01*
X1091Y452D01*
X1092Y452D01*
X1094Y451D01*
X1095Y451D01*
X1095Y451D01*
X1096Y451D01*
X1096Y451D01*
X1099D01*
Y481D01*
D02*
G37*
G36*
X425Y368D02*
X400D01*
Y360D01*
X425D01*
Y368D01*
D02*
G37*
G36*
X548Y389D02*
X537D01*
Y363D01*
Y363D01*
Y362D01*
Y362D01*
Y362D01*
Y361D01*
Y361D01*
X537Y360D01*
X537Y359D01*
X537Y358D01*
X536Y357D01*
X536Y356D01*
Y355D01*
X536Y355D01*
X536Y355D01*
X536Y354D01*
X536Y353D01*
X535Y353D01*
X535Y352D01*
X535Y352D01*
X534Y352D01*
X534Y351D01*
X534Y351D01*
X534Y351D01*
X533Y351D01*
X532Y350D01*
X532Y350D01*
X531Y350D01*
X530D01*
X530Y350D01*
X529Y350D01*
X529Y351D01*
X528Y351D01*
X527Y351D01*
X527Y352D01*
X527Y352D01*
X527Y352D01*
X526Y352D01*
X526Y353D01*
X526Y353D01*
X525Y354D01*
X525Y355D01*
X525Y356D01*
Y356D01*
X525Y356D01*
X525Y357D01*
X525Y357D01*
X525Y358D01*
X525Y360D01*
X525Y361D01*
Y363D01*
Y389D01*
X514D01*
Y359D01*
Y359D01*
Y358D01*
Y358D01*
Y358D01*
X514Y357D01*
Y357D01*
X514Y356D01*
X514Y354D01*
X515Y353D01*
X515Y352D01*
X516Y350D01*
Y350D01*
X516Y350D01*
X516Y350D01*
X516Y350D01*
X516Y349D01*
X517Y348D01*
X518Y347D01*
X519Y346D01*
X520Y345D01*
X521Y344D01*
X521D01*
X522Y344D01*
X522Y344D01*
X522Y344D01*
X522Y344D01*
X523Y344D01*
X523Y344D01*
X524Y343D01*
X525Y343D01*
X527Y343D01*
X529Y342D01*
X531Y342D01*
X531D01*
X532Y342D01*
X533Y342D01*
X533Y343D01*
X534Y343D01*
X535Y343D01*
X537Y343D01*
X538Y344D01*
X539Y344D01*
X541Y345D01*
X541Y345D01*
X542Y346D01*
X543Y347D01*
X543Y347D01*
X543Y347D01*
X544Y347D01*
X544Y347D01*
X544Y348D01*
X545Y348D01*
X545Y349D01*
X545Y350D01*
X546Y351D01*
X546Y352D01*
X547Y353D01*
X547Y354D01*
X547Y355D01*
X547Y356D01*
X548Y357D01*
X548Y359D01*
Y389D01*
D02*
G37*
G36*
X570Y396D02*
X570D01*
X569Y396D01*
X569Y396D01*
X568Y396D01*
X567Y396D01*
X566Y395D01*
X566Y395D01*
X566Y395D01*
X565Y394D01*
X565Y394D01*
X565Y394D01*
X565Y393D01*
X564Y392D01*
X564Y392D01*
X564Y391D01*
Y390D01*
Y390D01*
X564Y390D01*
X564Y389D01*
X564Y388D01*
X565Y388D01*
X565Y387D01*
X566Y386D01*
X566Y386D01*
X566Y386D01*
X566Y386D01*
X567Y386D01*
X568Y385D01*
X568Y385D01*
X569Y385D01*
X570Y385D01*
X571D01*
X571Y385D01*
X572Y385D01*
X572Y385D01*
X573Y385D01*
X574Y386D01*
X575Y386D01*
X575Y386D01*
X575Y387D01*
X575Y387D01*
X575Y388D01*
X576Y388D01*
X576Y389D01*
X576Y390D01*
X576Y391D01*
Y391D01*
Y391D01*
X576Y391D01*
X576Y392D01*
X576Y393D01*
X576Y393D01*
X575Y394D01*
X575Y395D01*
X574Y395D01*
X574Y395D01*
X574Y395D01*
X573Y396D01*
X573Y396D01*
X572Y396D01*
X571Y396D01*
X570Y396D01*
D02*
G37*
G36*
X649D02*
X648D01*
X648Y396D01*
X647Y396D01*
X647Y396D01*
X646Y396D01*
X645Y395D01*
X644Y395D01*
X644Y395D01*
X644Y394D01*
X644Y394D01*
X644Y394D01*
X643Y393D01*
X643Y392D01*
X643Y392D01*
X643Y391D01*
Y390D01*
Y390D01*
X643Y390D01*
X643Y389D01*
X643Y388D01*
X643Y388D01*
X644Y387D01*
X644Y386D01*
X644Y386D01*
X645Y386D01*
X645Y386D01*
X646Y386D01*
X646Y385D01*
X647Y385D01*
X648Y385D01*
X649Y385D01*
X649D01*
X650Y385D01*
X650Y385D01*
X651Y385D01*
X652Y385D01*
X653Y386D01*
X653Y386D01*
X653Y386D01*
X654Y387D01*
X654Y387D01*
X654Y388D01*
X654Y388D01*
X655Y389D01*
X655Y390D01*
X655Y391D01*
Y391D01*
Y391D01*
X655Y391D01*
X655Y392D01*
X655Y393D01*
X654Y393D01*
X654Y394D01*
X653Y395D01*
X653Y395D01*
X653Y395D01*
X653Y395D01*
X652Y396D01*
X651Y396D01*
X651Y396D01*
X650Y396D01*
X649Y396D01*
D02*
G37*
G36*
X374Y389D02*
X365D01*
Y351D01*
X357D01*
Y343D01*
X386D01*
Y351D01*
X375D01*
Y379D01*
X385Y373D01*
X389Y380D01*
X374Y389D01*
D02*
G37*
G36*
X690Y379D02*
X690D01*
X690Y379D01*
X689Y379D01*
X689Y379D01*
X688Y379D01*
X688Y379D01*
X687Y378D01*
X687Y378D01*
X687Y378D01*
X687Y378D01*
X686Y378D01*
X686Y377D01*
X686Y377D01*
X685Y376D01*
X685Y375D01*
X685Y375D01*
X685Y375D01*
X685Y376D01*
X685Y376D01*
X684Y376D01*
X684Y377D01*
X683Y377D01*
X682Y378D01*
X680Y379D01*
X680Y379D01*
X679Y379D01*
X678Y379D01*
X677Y379D01*
X677D01*
X677Y379D01*
X676Y379D01*
X675Y379D01*
X674Y379D01*
X674Y378D01*
X673Y378D01*
X672Y377D01*
X672Y377D01*
X672Y376D01*
X671Y376D01*
X671Y375D01*
X671Y374D01*
X670Y373D01*
X670Y372D01*
X670Y371D01*
X670Y370D01*
Y369D01*
Y343D01*
X679D01*
Y368D01*
Y368D01*
Y368D01*
Y369D01*
X679Y369D01*
X679Y370D01*
X679Y370D01*
X679Y371D01*
Y371D01*
X680Y371D01*
X680Y371D01*
X680Y371D01*
X680Y371D01*
X681D01*
X681Y371D01*
X681Y371D01*
X682Y371D01*
X682Y371D01*
X683Y370D01*
X684Y370D01*
X684Y369D01*
Y343D01*
X692D01*
Y368D01*
Y368D01*
Y368D01*
Y369D01*
X692Y369D01*
X692Y370D01*
X692Y370D01*
X692Y371D01*
Y371D01*
X692Y371D01*
X692Y371D01*
X693Y371D01*
X693Y371D01*
X693D01*
X694Y371D01*
X694Y371D01*
X695Y371D01*
X695Y371D01*
X696Y370D01*
X696Y370D01*
X697Y369D01*
Y343D01*
X706D01*
Y378D01*
X698D01*
X698Y375D01*
X698Y375D01*
X697Y375D01*
X697Y376D01*
X697Y376D01*
X696Y377D01*
X696Y377D01*
X695Y378D01*
X694Y378D01*
X694Y378D01*
X694Y378D01*
X694Y379D01*
X693Y379D01*
X693Y379D01*
X692Y379D01*
X691Y379D01*
X690Y379D01*
D02*
G37*
G36*
X491Y390D02*
X490D01*
X490Y390D01*
X489D01*
X488Y390D01*
X487Y390D01*
X486Y389D01*
X485Y389D01*
X484Y389D01*
X482Y389D01*
X481Y388D01*
X480Y388D01*
X478Y387D01*
X477Y386D01*
X476Y385D01*
X474Y384D01*
X480Y378D01*
X480Y378D01*
X480Y379D01*
X480Y379D01*
X481Y379D01*
X482Y380D01*
X483Y380D01*
X484Y381D01*
X484Y381D01*
X485Y381D01*
X485Y381D01*
X485Y381D01*
X486Y382D01*
X487Y382D01*
X488Y382D01*
X489Y382D01*
X490Y382D01*
X490D01*
X491Y382D01*
X492Y382D01*
X493Y382D01*
X493Y382D01*
X494Y381D01*
X495Y381D01*
X495Y381D01*
X495Y381D01*
X496Y380D01*
X496Y380D01*
X496Y380D01*
X496Y379D01*
X497Y378D01*
X497Y378D01*
Y378D01*
Y377D01*
X497Y377D01*
X497Y377D01*
X496Y376D01*
X496Y376D01*
X496Y375D01*
X496Y375D01*
X496Y375D01*
X496Y375D01*
X495Y375D01*
X495Y374D01*
X494Y374D01*
X494Y374D01*
X493Y373D01*
X493Y373D01*
X493Y373D01*
X492Y373D01*
X492Y373D01*
X491Y373D01*
X490Y372D01*
X489Y372D01*
X487Y371D01*
X487D01*
X487Y371D01*
X487Y371D01*
X486Y371D01*
X486Y371D01*
X485Y370D01*
X484Y370D01*
X484Y370D01*
X482Y369D01*
X480Y368D01*
X479Y367D01*
X478Y366D01*
X477Y366D01*
X477Y366D01*
X477Y366D01*
X477Y366D01*
X477Y365D01*
X476Y365D01*
X476Y365D01*
X476Y364D01*
X475Y364D01*
X475Y363D01*
X475Y362D01*
X475Y361D01*
X474Y361D01*
X474Y359D01*
X474Y358D01*
X474Y357D01*
Y357D01*
Y357D01*
Y356D01*
Y356D01*
X474Y356D01*
X474Y355D01*
X474Y354D01*
X474Y353D01*
X475Y352D01*
X475Y350D01*
X476Y349D01*
Y349D01*
X476Y349D01*
X476Y349D01*
X477Y348D01*
X478Y347D01*
X479Y346D01*
X480Y346D01*
X481Y345D01*
X482Y344D01*
X482D01*
X483Y344D01*
X483Y344D01*
X483Y344D01*
X484Y344D01*
X484Y343D01*
X485Y343D01*
X485Y343D01*
X486Y343D01*
X487Y343D01*
X488Y343D01*
X490Y342D01*
X492Y342D01*
X493D01*
X493Y342D01*
X494Y342D01*
X495Y342D01*
X496Y343D01*
X497Y343D01*
X499Y343D01*
X500Y343D01*
X502Y344D01*
X503Y344D01*
X505Y345D01*
X506Y346D01*
X508Y347D01*
X509Y348D01*
X510Y349D01*
X505Y355D01*
X505Y355D01*
X504Y355D01*
X504Y354D01*
X504Y354D01*
X503Y354D01*
X503Y353D01*
X502Y353D01*
X501Y353D01*
X500Y352D01*
X500Y352D01*
X498Y351D01*
X497Y351D01*
X496Y351D01*
X495Y350D01*
X494Y350D01*
X492Y350D01*
X492D01*
X491Y350D01*
X491Y350D01*
X490Y351D01*
X489Y351D01*
X488Y351D01*
X487Y352D01*
X487Y352D01*
X487Y352D01*
X486Y352D01*
X486Y353D01*
X486Y353D01*
X485Y354D01*
X485Y355D01*
X485Y356D01*
Y356D01*
Y356D01*
X485Y357D01*
X485Y357D01*
X485Y358D01*
X486Y359D01*
X486Y359D01*
X487Y360D01*
X487Y360D01*
X487Y360D01*
X488Y360D01*
X488Y361D01*
X489Y361D01*
X490Y362D01*
X491Y362D01*
X492Y362D01*
X492Y362D01*
X493Y363D01*
X493D01*
X493Y363D01*
X494Y363D01*
X494Y363D01*
X495Y363D01*
X496Y364D01*
X497Y364D01*
X498Y364D01*
X499Y365D01*
X501Y366D01*
X502Y367D01*
X503Y367D01*
X504Y368D01*
X504Y368D01*
X505Y368D01*
X505Y368D01*
X505Y369D01*
X505Y369D01*
X505Y369D01*
X506Y370D01*
X506Y371D01*
X507Y372D01*
X507Y373D01*
X508Y375D01*
X508Y376D01*
X508Y377D01*
Y377D01*
Y377D01*
Y377D01*
X508Y377D01*
X508Y378D01*
X508Y379D01*
X507Y380D01*
X507Y381D01*
X506Y383D01*
X506Y384D01*
Y384D01*
X505Y384D01*
X505Y384D01*
X505Y385D01*
X504Y386D01*
X503Y386D01*
X502Y387D01*
X501Y388D01*
X499Y388D01*
X499D01*
X499Y389D01*
X499Y389D01*
X499Y389D01*
X498Y389D01*
X498Y389D01*
X497Y389D01*
X496Y389D01*
X494Y390D01*
X492Y390D01*
X491Y390D01*
D02*
G37*
G36*
X468Y389D02*
X453D01*
X452Y389D01*
X452D01*
X451Y389D01*
X450Y389D01*
X449Y389D01*
X447Y388D01*
X445Y388D01*
X443Y387D01*
X442Y387D01*
X441Y386D01*
X441D01*
X441Y386D01*
X440Y386D01*
X440Y386D01*
X440Y385D01*
X439Y385D01*
X439Y384D01*
X439Y384D01*
X438Y383D01*
X438Y383D01*
X437Y382D01*
X437Y381D01*
X437Y380D01*
X436Y379D01*
X436Y378D01*
X436Y377D01*
Y377D01*
Y377D01*
Y377D01*
X436Y377D01*
X436Y376D01*
X436Y375D01*
X437Y374D01*
X437Y373D01*
X438Y372D01*
X439Y371D01*
X439Y371D01*
X439Y370D01*
X439Y370D01*
X440Y369D01*
X441Y369D01*
X442Y368D01*
X443Y368D01*
X444Y367D01*
X444D01*
X444Y367D01*
X444D01*
X444Y367D01*
X443Y367D01*
X443Y367D01*
X442Y367D01*
X441Y366D01*
X440Y366D01*
X438Y365D01*
X437Y364D01*
X437D01*
X437Y364D01*
X437Y364D01*
X436Y363D01*
X436Y362D01*
X435Y361D01*
X435Y360D01*
X434Y358D01*
X434Y358D01*
Y357D01*
Y357D01*
Y356D01*
Y356D01*
X434Y356D01*
X434Y355D01*
X434Y354D01*
X435Y353D01*
X435Y353D01*
X435Y352D01*
X435Y351D01*
X436Y350D01*
X436Y349D01*
X437Y348D01*
X438Y348D01*
X438Y347D01*
X439Y346D01*
X439D01*
X440Y346D01*
X440Y346D01*
X440Y346D01*
X441Y346D01*
X441Y345D01*
X442Y345D01*
X443Y345D01*
X444Y345D01*
X445Y344D01*
X446Y344D01*
X447Y344D01*
X448Y344D01*
X450Y344D01*
X451Y343D01*
X453Y343D01*
X468D01*
Y389D01*
D02*
G37*
G36*
X604Y379D02*
X603D01*
X603Y379D01*
X603D01*
X602Y379D01*
X601Y379D01*
X600Y379D01*
X599Y378D01*
X598Y378D01*
X597Y377D01*
X597Y377D01*
X596Y376D01*
X596Y376D01*
X596Y375D01*
X595Y374D01*
X595Y372D01*
X594Y371D01*
X594Y369D01*
Y343D01*
X605D01*
Y366D01*
Y366D01*
Y366D01*
Y366D01*
X605Y367D01*
Y368D01*
X605Y369D01*
X605Y369D01*
X605Y370D01*
X605Y370D01*
Y371D01*
X606Y371D01*
X606Y371D01*
X606Y371D01*
X606Y371D01*
X607Y372D01*
X607Y372D01*
X608Y372D01*
X608D01*
X609Y372D01*
X609Y372D01*
X609Y371D01*
X610Y371D01*
X611Y371D01*
X611Y371D01*
X611Y371D01*
X611Y370D01*
X612Y370D01*
X612Y370D01*
X612Y369D01*
X613Y369D01*
X614Y368D01*
X614Y368D01*
Y343D01*
X624D01*
Y378D01*
X615D01*
X615Y374D01*
X615Y374D01*
X614Y375D01*
X614Y375D01*
X613Y376D01*
X612Y376D01*
X612Y377D01*
X611Y378D01*
X610Y378D01*
X610Y378D01*
X609Y378D01*
X609Y378D01*
X608Y379D01*
X607Y379D01*
X606Y379D01*
X605Y379D01*
X604Y379D01*
D02*
G37*
G36*
X662Y378D02*
X643D01*
Y350D01*
X634D01*
Y343D01*
X663D01*
Y350D01*
X653D01*
Y371D01*
X662D01*
Y378D01*
D02*
G37*
G36*
X584D02*
X564D01*
Y350D01*
X555D01*
Y343D01*
X584D01*
Y350D01*
X574D01*
Y371D01*
X584D01*
Y378D01*
D02*
G37*
%LPD*%
G36*
X457Y371D02*
X453D01*
X452Y371D01*
X452Y371D01*
X451Y371D01*
X450Y371D01*
X449Y372D01*
X449Y372D01*
X448Y372D01*
X448Y372D01*
X448Y373D01*
X448Y373D01*
X447Y373D01*
X447Y374D01*
X447Y375D01*
X447Y376D01*
Y376D01*
Y377D01*
X447Y377D01*
X447Y378D01*
X447Y378D01*
X448Y379D01*
X448Y379D01*
X449Y380D01*
X449Y380D01*
X449Y380D01*
X449Y380D01*
X450Y381D01*
X451Y381D01*
X452Y381D01*
X453Y381D01*
X454Y381D01*
X457D01*
Y371D01*
D02*
G37*
G36*
Y351D02*
X453D01*
X452Y351D01*
X451Y351D01*
X450Y352D01*
X449Y352D01*
X448Y352D01*
X447Y353D01*
X447Y353D01*
X447Y353D01*
X447Y353D01*
X446Y354D01*
X446Y354D01*
X446Y355D01*
X445Y356D01*
X445Y357D01*
Y357D01*
Y357D01*
Y358D01*
X445Y358D01*
X446Y359D01*
X446Y360D01*
X446Y361D01*
X447Y361D01*
X447Y362D01*
X447Y362D01*
X448Y362D01*
X448Y362D01*
X449Y363D01*
X449Y363D01*
X450Y363D01*
X451Y363D01*
X453Y363D01*
X457D01*
Y351D01*
D02*
G37*
D35*
X531Y537D02*
D03*
D36*
X251Y483D02*
D03*
X812D02*
D03*
M02*
