G04 Layer_Physical_Order=1*
G04 Layer_Color=255*
%FSLAX23Y23*%
%MOIN*%
G70*
G01*
G75*
%ADD10R,0.024X0.045*%
%ADD11R,0.047X0.055*%
%ADD12R,0.055X0.047*%
%ADD13R,0.098X0.079*%
%ADD14R,0.091X0.020*%
%ADD15R,0.071X0.130*%
%ADD16R,0.071X0.035*%
%ADD17R,0.031X0.063*%
%ADD18C,0.010*%
%ADD19C,0.075*%
%ADD20C,0.024*%
%ADD21C,0.031*%
G36*
X1250Y541D02*
X1250Y-0D01*
X207Y0D01*
Y128D01*
X208Y133D01*
X215Y135D01*
X218Y136D01*
X224Y140D01*
X224Y140D01*
X227Y143D01*
X227Y143D01*
X231Y149D01*
X232Y152D01*
X234Y159D01*
Y163D01*
X232Y170D01*
X231Y174D01*
X227Y180D01*
X227Y180D01*
X224Y183D01*
X224Y183D01*
X218Y186D01*
X215Y188D01*
X208Y189D01*
X207D01*
X207Y189D01*
X207Y302D01*
X208Y306D01*
X215Y308D01*
X218Y309D01*
X224Y313D01*
X224Y313D01*
X227Y316D01*
X227Y316D01*
X231Y322D01*
X232Y326D01*
X234Y333D01*
Y337D01*
X232Y343D01*
X231Y347D01*
X227Y353D01*
X227Y353D01*
X224Y356D01*
X224Y356D01*
X218Y360D01*
X215Y361D01*
X208Y363D01*
X207D01*
X207Y363D01*
Y541D01*
X1250Y541D01*
D02*
G37*
%LPC*%
G36*
X451Y97D02*
X418D01*
Y69D01*
X441D01*
X445Y69D01*
X448Y72D01*
X450Y75D01*
X451Y79D01*
Y97D01*
D02*
G37*
G36*
X408D02*
X376D01*
Y79D01*
X376Y75D01*
X379Y72D01*
X382Y69D01*
X386Y69D01*
X408D01*
Y97D01*
D02*
G37*
G36*
X664Y136D02*
X646D01*
X642Y135D01*
X638Y133D01*
X636Y130D01*
X635Y126D01*
Y103D01*
X664D01*
Y136D01*
D02*
G37*
G36*
X451Y434D02*
X413D01*
X376D01*
Y415D01*
X376Y411D01*
X379Y408D01*
X382Y406D01*
X382Y404D01*
X382Y401D01*
X379Y399D01*
X376Y396D01*
X376Y392D01*
Y358D01*
X349Y331D01*
X263D01*
X259Y330D01*
X256Y328D01*
X253Y325D01*
X253Y321D01*
Y301D01*
X253Y297D01*
X255Y295D01*
X253Y293D01*
X253Y289D01*
Y270D01*
X253Y266D01*
X255Y264D01*
X253Y262D01*
X253Y258D01*
Y238D01*
X253Y234D01*
X255Y232D01*
X253Y230D01*
X253Y226D01*
Y207D01*
X253Y203D01*
X255Y201D01*
X253Y199D01*
X253Y195D01*
Y190D01*
X308D01*
X364D01*
Y195D01*
X363Y199D01*
X362Y201D01*
X363Y203D01*
X364Y207D01*
Y213D01*
X369Y215D01*
X371Y214D01*
X377Y211D01*
X380Y211D01*
X381Y210D01*
X381Y206D01*
X379Y204D01*
X376Y201D01*
X376Y197D01*
Y150D01*
X376Y146D01*
X379Y142D01*
X382Y140D01*
X382Y138D01*
X382Y135D01*
X379Y133D01*
X376Y130D01*
X376Y126D01*
Y107D01*
X451D01*
Y126D01*
X450Y130D01*
X448Y133D01*
X445Y135D01*
X445Y138D01*
X445Y140D01*
X448Y142D01*
X450Y146D01*
X451Y150D01*
Y197D01*
X450Y201D01*
X448Y204D01*
X445Y206D01*
X441Y207D01*
X436D01*
Y294D01*
X441Y296D01*
X470Y267D01*
X469Y266D01*
X468Y262D01*
Y226D01*
X469Y222D01*
X471Y219D01*
X474Y217D01*
X478Y216D01*
X506D01*
Y188D01*
X503Y186D01*
X499Y180D01*
X497Y174D01*
X496Y167D01*
X497Y161D01*
X499Y154D01*
X503Y149D01*
X509Y145D01*
X515Y142D01*
X522Y141D01*
X528Y142D01*
X535Y145D01*
X540Y149D01*
X544Y154D01*
X547Y161D01*
X548Y167D01*
X547Y174D01*
X544Y180D01*
X540Y186D01*
X537Y188D01*
Y216D01*
X549D01*
X553Y217D01*
X556Y219D01*
X559Y222D01*
X559Y226D01*
Y262D01*
X559Y266D01*
X556Y269D01*
X553Y271D01*
X549Y272D01*
X507D01*
X478Y302D01*
X478Y303D01*
X480Y307D01*
X549D01*
X553Y308D01*
X556Y310D01*
X559Y313D01*
X559Y317D01*
Y352D01*
X559Y356D01*
X556Y360D01*
X553Y362D01*
X549Y363D01*
X478D01*
X474Y362D01*
X471Y360D01*
X469Y356D01*
X468Y352D01*
Y318D01*
X464Y316D01*
X463Y316D01*
X448Y331D01*
X448Y337D01*
X450Y341D01*
X451Y344D01*
Y392D01*
X450Y396D01*
X448Y399D01*
X445Y401D01*
X445Y404D01*
X445Y406D01*
X448Y408D01*
X450Y411D01*
X451Y415D01*
Y434D01*
D02*
G37*
G36*
X501Y136D02*
X482D01*
X478Y135D01*
X475Y133D01*
X473Y130D01*
X472Y126D01*
Y103D01*
X501D01*
Y136D01*
D02*
G37*
G36*
X1176Y67D02*
X1134D01*
X1135Y59D01*
X1140Y48D01*
X1147Y38D01*
X1157Y30D01*
X1169Y25D01*
X1176Y24D01*
Y67D01*
D02*
G37*
G36*
X353Y122D02*
X255D01*
X251Y122D01*
X248Y119D01*
X246Y116D01*
X245Y112D01*
Y33D01*
X246Y29D01*
X248Y26D01*
X251Y24D01*
X255Y23D01*
X353D01*
X357Y24D01*
X361Y26D01*
X363Y29D01*
X364Y33D01*
Y112D01*
X363Y116D01*
X361Y119D01*
X357Y122D01*
X353Y122D01*
D02*
G37*
G36*
X1228Y67D02*
X1186D01*
Y24D01*
X1194Y25D01*
X1205Y30D01*
X1215Y38D01*
X1223Y48D01*
X1227Y59D01*
X1228Y67D01*
D02*
G37*
G36*
X664Y93D02*
X635D01*
Y71D01*
X636Y67D01*
X638Y64D01*
X642Y61D01*
X646Y61D01*
X664D01*
Y93D01*
D02*
G37*
G36*
X501Y93D02*
X472D01*
Y71D01*
X473Y67D01*
X475Y64D01*
X478Y61D01*
X482Y61D01*
X501D01*
Y93D01*
D02*
G37*
G36*
X303Y180D02*
X253D01*
Y175D01*
X253Y171D01*
X256Y168D01*
X259Y166D01*
X263Y165D01*
X303D01*
Y180D01*
D02*
G37*
G36*
X509Y453D02*
X478D01*
X474Y452D01*
X471Y450D01*
X469Y447D01*
X468Y443D01*
Y430D01*
X509D01*
Y453D01*
D02*
G37*
G36*
X559Y420D02*
X519D01*
Y397D01*
X549D01*
X553Y398D01*
X556Y400D01*
X559Y404D01*
X559Y407D01*
Y420D01*
D02*
G37*
G36*
X549Y453D02*
X519D01*
Y430D01*
X559D01*
Y443D01*
X559Y447D01*
X556Y450D01*
X553Y452D01*
X549Y453D01*
D02*
G37*
G36*
X441Y473D02*
X418D01*
Y444D01*
X451D01*
Y463D01*
X450Y467D01*
X448Y470D01*
X445Y472D01*
X441Y473D01*
D02*
G37*
G36*
X408D02*
X386D01*
X382Y472D01*
X379Y470D01*
X376Y467D01*
X376Y463D01*
Y444D01*
X408D01*
Y473D01*
D02*
G37*
G36*
X509Y420D02*
X468D01*
Y407D01*
X469Y404D01*
X471Y400D01*
X474Y398D01*
X478Y397D01*
X509D01*
Y420D01*
D02*
G37*
G36*
X901Y253D02*
X894D01*
X890Y253D01*
X887Y251D01*
X884Y253D01*
X880Y253D01*
X856D01*
X852Y253D01*
X849Y250D01*
X847Y247D01*
X846Y243D01*
Y222D01*
X808D01*
X806Y225D01*
X800Y229D01*
X794Y232D01*
X787Y233D01*
X781Y232D01*
X774Y229D01*
X769Y225D01*
X765Y220D01*
X762Y213D01*
X761Y207D01*
X762Y200D01*
X765Y194D01*
X769Y188D01*
X774Y184D01*
X781Y182D01*
X787Y181D01*
X794Y182D01*
X800Y184D01*
X806Y188D01*
X808Y191D01*
X849D01*
X849Y191D01*
X852Y188D01*
X856Y188D01*
X880D01*
X884Y188D01*
X887Y190D01*
X890Y188D01*
X894Y188D01*
X901D01*
Y220D01*
Y253D01*
D02*
G37*
G36*
X364Y180D02*
X313D01*
Y165D01*
X353D01*
X357Y166D01*
X361Y168D01*
X363Y171D01*
X364Y175D01*
Y180D01*
D02*
G37*
G36*
X955Y253D02*
X931D01*
X927Y253D01*
X924Y251D01*
X921Y253D01*
X917Y253D01*
X911D01*
Y220D01*
Y188D01*
X917D01*
X921Y188D01*
X924Y190D01*
X927Y188D01*
X931Y188D01*
X955D01*
X959Y188D01*
X962Y191D01*
X964Y194D01*
X965Y198D01*
Y243D01*
X964Y247D01*
X962Y250D01*
X959Y253D01*
X955Y253D01*
D02*
G37*
G36*
X353Y473D02*
X255D01*
X251Y472D01*
X248Y470D01*
X246Y466D01*
X245Y462D01*
Y384D01*
X246Y380D01*
X248Y377D01*
X251Y374D01*
X255Y374D01*
X353D01*
X357Y374D01*
X361Y377D01*
X363Y380D01*
X364Y384D01*
Y462D01*
X363Y466D01*
X361Y470D01*
X357Y472D01*
X353Y473D01*
D02*
G37*
G36*
X1181Y520D02*
X1169Y518D01*
X1157Y513D01*
X1147Y506D01*
X1140Y496D01*
X1135Y484D01*
X1133Y472D01*
X1135Y459D01*
X1140Y448D01*
X1147Y438D01*
X1157Y430D01*
X1169Y425D01*
X1178Y424D01*
Y419D01*
X1169Y418D01*
X1157Y413D01*
X1147Y406D01*
X1140Y396D01*
X1135Y384D01*
X1133Y372D01*
X1135Y359D01*
X1140Y348D01*
X1147Y338D01*
X1157Y330D01*
X1169Y325D01*
X1178Y324D01*
Y319D01*
X1169Y318D01*
X1157Y313D01*
X1147Y306D01*
X1140Y296D01*
X1139Y294D01*
X963D01*
X962Y295D01*
X962Y301D01*
X964Y304D01*
X965Y308D01*
Y353D01*
X964Y357D01*
X962Y361D01*
X959Y363D01*
X955Y364D01*
X931D01*
X927Y363D01*
X925Y361D01*
X921Y364D01*
Y378D01*
X946Y403D01*
X949Y408D01*
X950Y410D01*
X950D01*
X954Y411D01*
X958Y413D01*
X960Y417D01*
X961Y421D01*
Y484D01*
X960Y488D01*
X958Y491D01*
X954Y493D01*
X950Y494D01*
X919D01*
X915Y493D01*
X912Y491D01*
X909Y488D01*
X909Y484D01*
Y421D01*
X909Y417D01*
X912Y413D01*
X912Y412D01*
X895Y395D01*
X891Y390D01*
X890Y384D01*
Y364D01*
X886Y361D01*
X884Y363D01*
X880Y364D01*
X870D01*
X867Y369D01*
X869Y371D01*
X872Y377D01*
X872Y384D01*
X872Y391D01*
X869Y397D01*
X865Y402D01*
X861Y405D01*
X862Y410D01*
X872D01*
X876Y411D01*
X880Y413D01*
X882Y417D01*
X883Y421D01*
Y484D01*
X882Y488D01*
X880Y491D01*
X876Y493D01*
X872Y494D01*
X841D01*
X837Y493D01*
X834Y491D01*
X832Y488D01*
X831Y484D01*
Y449D01*
X792Y410D01*
X730D01*
X726Y409D01*
X723Y407D01*
X721Y404D01*
X720Y400D01*
Y311D01*
X566Y156D01*
X563Y152D01*
X561Y146D01*
Y136D01*
X553D01*
X549Y135D01*
X546Y133D01*
X544Y130D01*
X541Y130D01*
X539Y130D01*
X537Y133D01*
X533Y135D01*
X530Y136D01*
X511D01*
Y98D01*
Y61D01*
X530D01*
X533Y61D01*
X537Y64D01*
X539Y67D01*
X541Y67D01*
X544Y67D01*
X546Y64D01*
X549Y61D01*
X553Y61D01*
X600D01*
X604Y61D01*
X608Y64D01*
X610Y67D01*
X611Y71D01*
Y126D01*
X610Y130D01*
X608Y133D01*
X604Y135D01*
X600Y136D01*
X596D01*
X594Y141D01*
X717Y264D01*
X723Y263D01*
X723Y262D01*
X725Y261D01*
Y136D01*
X717D01*
X713Y135D01*
X709Y133D01*
X707Y130D01*
X705Y130D01*
X702Y130D01*
X700Y133D01*
X697Y135D01*
X693Y136D01*
X674D01*
Y98D01*
Y61D01*
X693D01*
X697Y61D01*
X700Y64D01*
X702Y67D01*
X705Y67D01*
X707Y67D01*
X709Y64D01*
X713Y61D01*
X717Y61D01*
X764D01*
X768Y61D01*
X771Y64D01*
X773Y67D01*
X774Y71D01*
Y126D01*
X773Y130D01*
X771Y133D01*
X768Y135D01*
X764Y136D01*
X755D01*
Y259D01*
X801D01*
X805Y260D01*
X808Y262D01*
X809Y263D01*
X815Y265D01*
X816Y265D01*
X822Y263D01*
X1134D01*
X1135Y259D01*
X1140Y248D01*
X1147Y238D01*
X1157Y230D01*
X1169Y225D01*
X1178Y224D01*
Y219D01*
X1169Y218D01*
X1157Y213D01*
X1147Y206D01*
X1140Y196D01*
X1135Y184D01*
X1133Y172D01*
X1135Y159D01*
X1140Y148D01*
X1147Y138D01*
X1157Y130D01*
X1169Y125D01*
X1178Y124D01*
Y119D01*
X1169Y118D01*
X1157Y113D01*
X1147Y106D01*
X1140Y96D01*
X1135Y84D01*
X1134Y77D01*
X1181D01*
Y72D01*
D01*
Y77D01*
X1228D01*
X1227Y84D01*
X1223Y96D01*
X1215Y106D01*
X1205Y113D01*
X1194Y118D01*
X1184Y119D01*
Y124D01*
X1194Y125D01*
X1205Y130D01*
X1215Y138D01*
X1223Y148D01*
X1227Y159D01*
X1229Y172D01*
X1227Y184D01*
X1223Y196D01*
X1215Y206D01*
X1205Y213D01*
X1194Y218D01*
X1184Y219D01*
Y224D01*
X1194Y225D01*
X1205Y230D01*
X1215Y238D01*
X1223Y248D01*
X1227Y259D01*
X1229Y272D01*
X1227Y284D01*
X1223Y296D01*
X1215Y306D01*
X1205Y313D01*
X1194Y318D01*
X1184Y319D01*
Y324D01*
X1194Y325D01*
X1205Y330D01*
X1215Y338D01*
X1223Y348D01*
X1227Y359D01*
X1229Y372D01*
X1227Y384D01*
X1223Y396D01*
X1215Y406D01*
X1205Y413D01*
X1194Y418D01*
X1184Y419D01*
Y424D01*
X1194Y425D01*
X1205Y430D01*
X1215Y438D01*
X1223Y448D01*
X1227Y459D01*
X1229Y472D01*
X1227Y484D01*
X1223Y496D01*
X1215Y506D01*
X1205Y513D01*
X1194Y518D01*
X1181Y520D01*
D02*
G37*
%LPD*%
D10*
X868Y331D02*
D03*
X906D02*
D03*
X943D02*
D03*
Y220D02*
D03*
X906D02*
D03*
X868D02*
D03*
D11*
X577Y98D02*
D03*
X506D02*
D03*
X740D02*
D03*
X669D02*
D03*
D12*
X413Y173D02*
D03*
Y102D02*
D03*
Y368D02*
D03*
Y439D02*
D03*
D13*
X304Y73D02*
D03*
Y423D02*
D03*
X88D02*
D03*
Y73D02*
D03*
D14*
X308Y185D02*
D03*
Y216D02*
D03*
Y248D02*
D03*
Y279D02*
D03*
Y311D02*
D03*
D15*
X766Y335D02*
D03*
D16*
X514Y244D02*
D03*
Y335D02*
D03*
Y425D02*
D03*
D17*
X935Y452D02*
D03*
X857D02*
D03*
D18*
X787Y207D02*
X868D01*
X378Y241D02*
X384Y236D01*
X852Y448D02*
Y457D01*
X822Y279D02*
X1181D01*
X766Y335D02*
X822Y279D01*
X421Y165D02*
Y337D01*
X350Y311D02*
X413Y374D01*
X308Y248D02*
X315Y241D01*
X308Y184D02*
Y185D01*
Y279D02*
X384D01*
X494Y87D02*
X506Y98D01*
X740D02*
Y309D01*
X906Y220D02*
X907Y219D01*
X846Y352D02*
Y384D01*
Y352D02*
X868Y331D01*
X906Y384D02*
X935Y413D01*
X906Y331D02*
Y384D01*
X868Y207D02*
Y220D01*
X514Y244D02*
X522Y236D01*
Y167D02*
Y236D01*
X935Y413D02*
Y453D01*
X766Y335D02*
Y362D01*
X852Y448D01*
X384Y236D02*
Y236D01*
X315Y241D02*
X378D01*
X308Y311D02*
X350D01*
X413Y344D02*
Y368D01*
Y374D01*
Y157D02*
X421Y165D01*
X413Y344D02*
X421Y337D01*
X514Y244D01*
X506Y433D02*
X514Y425D01*
X577Y98D02*
Y146D01*
X740Y309D01*
X766Y335D01*
D19*
X1181Y472D02*
D03*
Y372D02*
D03*
Y272D02*
D03*
Y172D02*
D03*
Y72D02*
D03*
D20*
X206Y335D02*
D03*
Y161D02*
D03*
D21*
X384Y279D02*
D03*
X522Y167D02*
D03*
X846Y384D02*
D03*
X787Y207D02*
D03*
X384Y236D02*
D03*
M02*
