G04 Layer_Color=65535*
%FSLAX23Y23*%
%MOIN*%
G70*
G01*
G75*
%ADD18C,0.010*%
%ADD22C,0.010*%
%ADD23C,0.008*%
G36*
X1052Y489D02*
X1053Y489D01*
X1054Y489D01*
X1055Y489D01*
X1057Y488D01*
X1058Y488D01*
X1059Y488D01*
X1061Y487D01*
X1062Y487D01*
X1063Y486D01*
X1065Y486D01*
X1066Y485D01*
X1067Y484D01*
X1067Y484D01*
X1068Y484D01*
X1068Y484D01*
X1068Y483D01*
X1069Y483D01*
X1069Y482D01*
X1070Y481D01*
X1071Y480D01*
X1071Y479D01*
X1072Y478D01*
X1072Y476D01*
X1073Y474D01*
X1073Y473D01*
X1073Y471D01*
X1074Y468D01*
X1074Y466D01*
Y466D01*
Y466D01*
Y466D01*
X1074Y465D01*
Y465D01*
X1074Y464D01*
X1073Y463D01*
X1073Y462D01*
X1073Y462D01*
X1073Y461D01*
X1072Y459D01*
X1072Y457D01*
X1071Y454D01*
X1070Y453D01*
X1070Y452D01*
X1069Y451D01*
X1068Y450D01*
X1067Y449D01*
X1066Y448D01*
X1065Y447D01*
X1064Y446D01*
X1063Y446D01*
X1062Y445D01*
X1060Y444D01*
X1059Y444D01*
X1057Y443D01*
X1055Y443D01*
X1053Y443D01*
X1051Y443D01*
X1039D01*
Y489D01*
X1052D01*
X1052Y489D01*
D02*
G37*
G36*
X1110Y361D02*
X1084D01*
Y369D01*
X1110D01*
Y361D01*
D02*
G37*
G36*
X1054Y390D02*
X1055Y390D01*
X1056Y390D01*
X1057Y390D01*
X1058Y390D01*
X1060Y390D01*
X1061Y389D01*
X1062Y389D01*
X1064Y388D01*
X1065Y388D01*
X1066Y387D01*
X1068Y386D01*
X1069Y386D01*
X1069Y386D01*
X1069Y385D01*
X1070Y385D01*
X1070Y385D01*
X1070Y384D01*
X1071Y383D01*
X1072Y383D01*
X1072Y382D01*
X1073Y380D01*
X1073Y379D01*
X1074Y378D01*
X1074Y376D01*
X1075Y374D01*
X1075Y372D01*
X1075Y370D01*
X1075Y368D01*
Y368D01*
Y367D01*
Y367D01*
X1075Y367D01*
Y366D01*
X1075Y366D01*
X1075Y365D01*
X1075Y364D01*
X1075Y363D01*
X1075Y362D01*
X1074Y360D01*
X1073Y358D01*
X1073Y356D01*
X1072Y355D01*
X1071Y354D01*
X1071Y353D01*
X1070Y352D01*
X1069Y351D01*
X1068Y350D01*
X1067Y349D01*
X1066Y348D01*
X1065Y347D01*
X1063Y347D01*
X1062Y346D01*
X1060Y345D01*
X1059Y345D01*
X1057Y345D01*
X1055Y344D01*
X1053Y344D01*
X1041D01*
Y391D01*
X1053D01*
X1054Y390D01*
D02*
G37*
G36*
X1100Y468D02*
X1110D01*
Y460D01*
X1100D01*
Y449D01*
X1091D01*
Y460D01*
X1081D01*
Y468D01*
X1091D01*
Y478D01*
X1100D01*
Y468D01*
D02*
G37*
G36*
X726Y43D02*
X718Y23D01*
X724D01*
X725Y31D01*
X732D01*
Y23D01*
X735D01*
Y17D01*
X732D01*
Y10D01*
X724D01*
X724Y17D01*
X710D01*
Y22D01*
X719Y45D01*
X726Y43D01*
D02*
G37*
G36*
X401Y528D02*
X401D01*
X402Y528D01*
X403Y527D01*
X404Y527D01*
X405Y527D01*
X406Y527D01*
X406D01*
X406Y527D01*
X407Y527D01*
X407Y527D01*
X407Y526D01*
X408Y526D01*
X409Y526D01*
X409Y525D01*
X410Y525D01*
X411Y524D01*
X407Y519D01*
X407Y519D01*
X407Y519D01*
X407Y519D01*
X407Y519D01*
X406Y520D01*
X406Y520D01*
X406Y520D01*
X405Y520D01*
X404Y521D01*
X403Y521D01*
X402Y521D01*
X401Y522D01*
X400Y522D01*
X400D01*
X400Y522D01*
X399Y521D01*
X399Y521D01*
X398Y521D01*
X397Y521D01*
X397Y521D01*
X396Y520D01*
X396Y520D01*
X395Y520D01*
X395Y519D01*
X395Y519D01*
Y519D01*
X394Y518D01*
X394Y518D01*
X394Y518D01*
X394Y518D01*
X394Y517D01*
X394Y517D01*
X393Y516D01*
X393Y516D01*
X393Y515D01*
X393Y514D01*
X393Y513D01*
X393Y513D01*
X392Y512D01*
X392Y511D01*
X392Y510D01*
Y509D01*
Y509D01*
Y509D01*
X392Y509D01*
Y508D01*
X392Y507D01*
X393Y507D01*
X393Y506D01*
X393Y505D01*
X393Y503D01*
X394Y502D01*
X394Y501D01*
X395Y501D01*
X395Y500D01*
X395Y500D01*
X395Y500D01*
X395Y500D01*
X395Y500D01*
X396Y499D01*
X397Y499D01*
X398Y498D01*
X398Y498D01*
X399Y498D01*
X400Y498D01*
X400Y498D01*
X401D01*
X401Y498D01*
X402Y498D01*
X402Y498D01*
X403Y498D01*
X404Y498D01*
X404Y498D01*
X404Y498D01*
X405Y499D01*
X405Y499D01*
X405Y499D01*
X406Y499D01*
X407Y500D01*
X407Y500D01*
X408Y501D01*
X412Y496D01*
X412Y496D01*
X411Y496D01*
X411Y496D01*
X411Y495D01*
X410Y495D01*
X410Y494D01*
X409Y494D01*
X408Y494D01*
X408Y493D01*
X407Y493D01*
X406Y492D01*
X405Y492D01*
X404Y492D01*
X403Y491D01*
X401Y491D01*
X400Y491D01*
X400D01*
X399Y491D01*
X399D01*
X398Y491D01*
X398Y491D01*
X397Y492D01*
X396Y492D01*
X394Y492D01*
X393Y493D01*
X392Y493D01*
X392Y493D01*
X391Y493D01*
X391Y494D01*
X391Y494D01*
X391Y494D01*
X390Y494D01*
X390Y495D01*
X389Y496D01*
X388Y497D01*
X387Y498D01*
X386Y500D01*
Y500D01*
X386Y500D01*
X386Y500D01*
X386Y500D01*
X385Y501D01*
X385Y501D01*
X385Y502D01*
X385Y502D01*
X385Y503D01*
X385Y504D01*
X384Y505D01*
X384Y506D01*
X384Y506D01*
X384Y507D01*
X384Y510D01*
Y510D01*
Y510D01*
Y510D01*
X384Y510D01*
Y511D01*
X384Y512D01*
X384Y512D01*
X384Y513D01*
X384Y514D01*
X385Y516D01*
X385Y518D01*
X386Y519D01*
X386Y519D01*
X386Y519D01*
X386Y520D01*
X386Y520D01*
X387Y520D01*
X387Y521D01*
X387Y522D01*
X388Y523D01*
X389Y524D01*
X390Y525D01*
X392Y526D01*
X392Y526D01*
X392Y526D01*
X392Y526D01*
X392Y526D01*
X393Y526D01*
X393Y526D01*
X394Y526D01*
X394Y527D01*
X395Y527D01*
X395Y527D01*
X397Y527D01*
X398Y528D01*
X399Y528D01*
X401D01*
X401Y528D01*
D02*
G37*
G36*
X427D02*
X427D01*
X428Y528D01*
X429Y527D01*
X430Y527D01*
X431Y527D01*
X432Y526D01*
X433D01*
X433Y526D01*
X433Y526D01*
X433Y526D01*
X433Y526D01*
X434Y525D01*
X435Y525D01*
X435Y524D01*
X436Y523D01*
X437Y523D01*
X437Y523D01*
X437Y522D01*
X437Y522D01*
X437Y521D01*
X437Y520D01*
X438Y520D01*
X438Y519D01*
X438Y518D01*
Y518D01*
Y518D01*
Y517D01*
Y517D01*
X438Y517D01*
X438Y516D01*
X438Y515D01*
X437Y514D01*
X437Y513D01*
X437Y512D01*
Y512D01*
X437Y512D01*
X436Y512D01*
X436Y512D01*
X436Y512D01*
X436Y511D01*
X436Y510D01*
X435Y510D01*
X434Y509D01*
X433Y507D01*
X432Y506D01*
X432Y506D01*
X432Y506D01*
X432Y506D01*
X432Y506D01*
X431Y505D01*
X431Y505D01*
X431Y505D01*
X430Y504D01*
X430Y503D01*
X429Y503D01*
X428Y502D01*
X428Y501D01*
X427Y501D01*
X426Y500D01*
X425Y499D01*
X424Y498D01*
X439D01*
X438Y492D01*
X415D01*
Y498D01*
X415Y498D01*
X415Y498D01*
X415Y498D01*
X416Y499D01*
X416Y499D01*
X417Y500D01*
X418Y500D01*
X418Y501D01*
X420Y503D01*
X421Y504D01*
X423Y506D01*
X423Y506D01*
X424Y507D01*
X424Y507D01*
X424Y507D01*
X424Y507D01*
X425Y508D01*
X425Y508D01*
X425Y508D01*
X426Y509D01*
X426Y510D01*
X427Y511D01*
X428Y512D01*
X428Y513D01*
Y513D01*
X429Y513D01*
X429Y513D01*
X429Y513D01*
X429Y514D01*
X429Y515D01*
X430Y515D01*
X430Y516D01*
X430Y517D01*
Y517D01*
Y517D01*
Y517D01*
X430Y518D01*
X430Y518D01*
X430Y519D01*
X429Y519D01*
X429Y520D01*
X429Y520D01*
X429Y520D01*
X428Y521D01*
X428Y521D01*
X428Y521D01*
X427Y521D01*
X427Y521D01*
X426Y522D01*
X425Y522D01*
X425D01*
X425Y522D01*
X424Y521D01*
X424Y521D01*
X423Y521D01*
X422Y521D01*
X422Y521D01*
X422Y521D01*
X422Y521D01*
X421Y520D01*
X421Y520D01*
X420Y520D01*
X420Y519D01*
X420Y519D01*
X419Y518D01*
X414Y522D01*
X414Y522D01*
X414Y522D01*
X414Y522D01*
X415Y522D01*
X415Y523D01*
X416Y523D01*
X416Y524D01*
X417Y525D01*
X418Y525D01*
X419Y526D01*
X419D01*
X419Y526D01*
X419Y526D01*
X420Y526D01*
X420Y526D01*
X420Y527D01*
X421Y527D01*
X421Y527D01*
X422Y527D01*
X423Y527D01*
X425Y528D01*
X426Y528D01*
X427D01*
X427Y528D01*
D02*
G37*
G36*
X1061Y246D02*
X1048D01*
X1035Y292D01*
X1046D01*
X1055Y254D01*
X1063Y292D01*
X1075D01*
X1061Y246D01*
D02*
G37*
G36*
X1088Y95D02*
X1089Y95D01*
X1090Y95D01*
X1091Y95D01*
X1093Y95D01*
X1094Y94D01*
X1095Y94D01*
X1097Y94D01*
X1098Y93D01*
X1100Y93D01*
X1101Y92D01*
X1102Y91D01*
X1103Y90D01*
X1104Y90D01*
X1104Y90D01*
X1104Y90D01*
X1104Y89D01*
X1105Y89D01*
X1105Y88D01*
X1106Y87D01*
X1107Y86D01*
X1107Y85D01*
X1108Y84D01*
X1108Y82D01*
X1109Y81D01*
X1109Y79D01*
X1110Y77D01*
X1110Y75D01*
X1110Y72D01*
Y72D01*
Y72D01*
Y72D01*
X1110Y71D01*
Y71D01*
X1110Y70D01*
X1110Y70D01*
X1109Y69D01*
X1109Y68D01*
X1109Y67D01*
X1109Y65D01*
X1108Y63D01*
X1107Y61D01*
X1106Y60D01*
X1106Y59D01*
X1105Y58D01*
X1104Y57D01*
X1103Y56D01*
X1103Y55D01*
X1102Y54D01*
X1100Y53D01*
X1099Y52D01*
X1098Y51D01*
X1096Y51D01*
X1095Y50D01*
X1093Y50D01*
X1091Y49D01*
X1090Y49D01*
X1088Y49D01*
X1075D01*
Y95D01*
X1088D01*
X1088Y95D01*
D02*
G37*
G36*
X1096Y148D02*
X1083D01*
X1070Y194D01*
X1081D01*
X1090Y156D01*
X1099Y194D01*
X1110D01*
X1096Y148D01*
D02*
G37*
G36*
X1063Y186D02*
X1046D01*
Y176D01*
X1046D01*
X1046Y176D01*
X1046Y176D01*
X1047Y176D01*
X1047Y177D01*
X1048Y177D01*
X1049Y177D01*
X1050Y177D01*
X1052Y178D01*
X1053Y178D01*
X1053D01*
X1054Y178D01*
X1055Y178D01*
X1056Y177D01*
X1057Y177D01*
X1058Y176D01*
X1059Y176D01*
X1059D01*
X1060Y176D01*
X1060Y176D01*
X1060Y175D01*
X1061Y175D01*
X1062Y174D01*
X1063Y173D01*
X1063Y172D01*
X1064Y171D01*
Y171D01*
X1064Y171D01*
X1064Y170D01*
X1064Y170D01*
X1065Y169D01*
X1065Y168D01*
X1065Y167D01*
X1066Y166D01*
X1066Y164D01*
X1066Y163D01*
Y163D01*
Y163D01*
Y162D01*
Y162D01*
X1066Y162D01*
X1066Y161D01*
X1066Y160D01*
X1065Y159D01*
X1065Y157D01*
X1064Y156D01*
X1064Y154D01*
Y154D01*
X1063Y154D01*
X1063Y154D01*
X1063Y154D01*
X1063Y153D01*
X1062Y152D01*
X1061Y151D01*
X1060Y150D01*
X1059Y149D01*
X1057Y148D01*
X1057D01*
X1057Y148D01*
X1057Y148D01*
X1056Y148D01*
X1056Y148D01*
X1056Y148D01*
X1055Y148D01*
X1054Y147D01*
X1053Y147D01*
X1051Y147D01*
X1050Y146D01*
X1048Y146D01*
X1047D01*
X1046Y146D01*
X1046D01*
X1045Y147D01*
X1043Y147D01*
X1042Y147D01*
X1040Y148D01*
X1039Y148D01*
X1039D01*
X1039Y148D01*
X1039Y148D01*
X1038Y149D01*
X1038Y149D01*
X1037Y150D01*
X1036Y150D01*
X1035Y151D01*
X1033Y152D01*
X1032Y153D01*
X1038Y159D01*
X1039Y159D01*
X1039Y159D01*
X1039Y158D01*
X1040Y158D01*
X1040Y157D01*
X1041Y157D01*
X1041Y156D01*
X1042Y156D01*
X1042Y156D01*
X1043Y155D01*
X1043Y155D01*
X1044Y155D01*
X1044Y155D01*
X1045Y155D01*
X1046Y155D01*
X1047Y154D01*
X1047D01*
X1048Y155D01*
X1048Y155D01*
X1049Y155D01*
X1050Y155D01*
X1051Y155D01*
X1052Y156D01*
X1053Y157D01*
X1053Y157D01*
X1053Y157D01*
X1053Y158D01*
X1054Y158D01*
X1054Y159D01*
X1055Y160D01*
X1055Y161D01*
X1055Y163D01*
Y163D01*
Y163D01*
X1055Y163D01*
Y164D01*
X1055Y164D01*
X1055Y165D01*
X1054Y166D01*
X1054Y167D01*
X1054Y167D01*
X1053Y168D01*
X1053Y169D01*
X1052Y169D01*
X1052Y170D01*
X1051Y170D01*
X1050Y170D01*
X1049Y170D01*
X1048D01*
X1048Y170D01*
X1047Y170D01*
X1046Y170D01*
X1045Y170D01*
X1044Y169D01*
X1043Y169D01*
X1036D01*
Y194D01*
X1064D01*
X1063Y186D01*
D02*
G37*
G36*
X1068Y49D02*
X1055D01*
X1043Y86D01*
Y86D01*
Y86D01*
X1043Y86D01*
X1043Y85D01*
X1043Y85D01*
X1043Y84D01*
X1043Y84D01*
X1043Y83D01*
X1043Y82D01*
X1043Y80D01*
X1044Y78D01*
X1044Y76D01*
Y76D01*
Y76D01*
X1044Y76D01*
Y76D01*
X1044Y75D01*
Y75D01*
X1044Y74D01*
X1044Y73D01*
X1044Y72D01*
X1044Y70D01*
X1044Y68D01*
Y66D01*
Y49D01*
X1035D01*
Y95D01*
X1049D01*
X1060Y58D01*
Y58D01*
X1060Y59D01*
X1060Y59D01*
X1060Y60D01*
X1060Y61D01*
X1060Y62D01*
X1060Y63D01*
X1060Y65D01*
X1060Y66D01*
X1059Y68D01*
X1059Y69D01*
X1059Y71D01*
X1059Y74D01*
X1059Y78D01*
Y95D01*
X1068D01*
Y49D01*
D02*
G37*
G36*
X1094Y293D02*
X1094D01*
X1095Y293D01*
X1097Y293D01*
X1098Y293D01*
X1100Y292D01*
X1101Y292D01*
X1101D01*
X1101Y292D01*
X1101Y292D01*
X1102Y291D01*
X1102Y291D01*
X1103Y291D01*
X1104Y290D01*
X1105Y289D01*
X1106Y288D01*
X1106Y287D01*
X1106Y287D01*
X1107Y287D01*
X1107Y286D01*
X1107Y286D01*
X1108Y285D01*
X1108Y284D01*
X1108Y283D01*
X1108Y281D01*
Y281D01*
Y281D01*
Y281D01*
X1108Y281D01*
X1108Y280D01*
X1108Y279D01*
X1108Y278D01*
X1107Y277D01*
X1107Y276D01*
X1106Y274D01*
X1106Y274D01*
X1105Y274D01*
X1105Y274D01*
X1104Y273D01*
X1103Y272D01*
X1102Y272D01*
X1100Y271D01*
X1099Y270D01*
X1099D01*
X1099Y270D01*
X1100Y270D01*
X1101Y270D01*
X1101Y270D01*
X1102Y269D01*
X1103Y269D01*
X1104Y268D01*
X1105Y268D01*
X1106Y267D01*
X1107Y266D01*
X1108Y265D01*
X1109Y264D01*
X1109Y262D01*
X1110Y261D01*
X1110Y259D01*
Y259D01*
Y259D01*
Y259D01*
Y258D01*
X1110Y258D01*
X1110Y257D01*
X1109Y255D01*
X1109Y254D01*
X1108Y253D01*
X1108Y252D01*
Y252D01*
X1108Y252D01*
X1107Y251D01*
X1107Y251D01*
X1106Y250D01*
X1105Y249D01*
X1104Y248D01*
X1103Y247D01*
X1101Y247D01*
X1101D01*
X1101Y247D01*
X1101Y246D01*
X1101Y246D01*
X1100Y246D01*
X1100Y246D01*
X1099Y246D01*
X1099Y246D01*
X1097Y245D01*
X1096Y245D01*
X1094Y245D01*
X1092Y245D01*
X1091D01*
X1091Y245D01*
X1090D01*
X1089Y245D01*
X1088Y245D01*
X1086Y246D01*
X1084Y246D01*
X1083Y247D01*
X1083D01*
X1083Y247D01*
X1082Y247D01*
X1082Y247D01*
X1081Y247D01*
X1080Y248D01*
X1079Y249D01*
X1078Y250D01*
X1077Y251D01*
X1076Y252D01*
X1082Y257D01*
X1082Y257D01*
X1082Y257D01*
X1082Y257D01*
X1082Y257D01*
X1083Y256D01*
X1083Y256D01*
X1084Y255D01*
X1084Y255D01*
X1085Y255D01*
X1086Y254D01*
X1087Y254D01*
X1088Y253D01*
X1089Y253D01*
X1090Y253D01*
X1091Y253D01*
X1092D01*
X1092Y253D01*
X1093Y253D01*
X1094Y253D01*
X1095Y254D01*
X1096Y254D01*
X1097Y255D01*
X1097Y255D01*
X1097Y255D01*
X1098Y255D01*
X1098Y256D01*
X1098Y257D01*
X1099Y258D01*
X1099Y259D01*
X1099Y260D01*
Y260D01*
Y260D01*
X1099Y260D01*
X1099Y261D01*
X1099Y261D01*
X1099Y262D01*
X1098Y262D01*
X1098Y263D01*
X1098Y264D01*
X1097Y264D01*
X1096Y265D01*
X1096Y266D01*
X1095Y266D01*
X1094Y266D01*
X1093Y267D01*
X1091Y267D01*
X1087D01*
X1088Y274D01*
X1092D01*
X1092Y274D01*
X1093Y274D01*
X1094Y274D01*
X1095Y274D01*
X1095Y275D01*
X1096Y275D01*
X1096Y275D01*
X1097Y276D01*
X1097Y276D01*
X1097Y277D01*
X1098Y277D01*
X1098Y278D01*
X1098Y279D01*
X1098Y280D01*
Y280D01*
Y280D01*
X1098Y281D01*
X1098Y281D01*
X1098Y282D01*
X1097Y283D01*
X1097Y283D01*
X1096Y284D01*
X1096Y284D01*
X1096Y284D01*
X1096Y284D01*
X1095Y285D01*
X1094Y285D01*
X1093Y285D01*
X1092Y285D01*
X1091Y285D01*
X1091D01*
X1091Y285D01*
X1090Y285D01*
X1090Y285D01*
X1088Y285D01*
X1087Y284D01*
X1086Y284D01*
X1085Y284D01*
X1085Y283D01*
X1084Y283D01*
X1083Y282D01*
X1082Y281D01*
X1077Y287D01*
X1077Y287D01*
X1077Y287D01*
X1078Y288D01*
X1078Y288D01*
X1079Y289D01*
X1079Y289D01*
X1080Y290D01*
X1081Y290D01*
X1082Y291D01*
X1084Y291D01*
X1085Y292D01*
X1086Y292D01*
X1088Y293D01*
X1089Y293D01*
X1091Y293D01*
X1093Y293D01*
X1093D01*
X1094Y293D01*
D02*
G37*
G36*
X1014D02*
X1014D01*
X1016Y293D01*
X1017Y293D01*
X1018Y293D01*
X1020Y292D01*
X1021Y292D01*
X1021D01*
X1021Y292D01*
X1021Y292D01*
X1022Y291D01*
X1022Y291D01*
X1023Y291D01*
X1024Y290D01*
X1025Y289D01*
X1026Y288D01*
X1026Y287D01*
X1027Y287D01*
X1027Y287D01*
X1027Y286D01*
X1027Y286D01*
X1028Y285D01*
X1028Y284D01*
X1028Y283D01*
X1028Y281D01*
Y281D01*
Y281D01*
Y281D01*
X1028Y281D01*
X1028Y280D01*
X1028Y279D01*
X1028Y278D01*
X1027Y277D01*
X1027Y276D01*
X1026Y274D01*
X1026Y274D01*
X1025Y274D01*
X1025Y274D01*
X1024Y273D01*
X1023Y272D01*
X1022Y272D01*
X1021Y271D01*
X1019Y270D01*
X1019D01*
X1019Y270D01*
X1020Y270D01*
X1021Y270D01*
X1022Y270D01*
X1022Y269D01*
X1023Y269D01*
X1024Y268D01*
X1025Y268D01*
X1026Y267D01*
X1027Y266D01*
X1028Y265D01*
X1029Y264D01*
X1029Y262D01*
X1030Y261D01*
X1030Y259D01*
Y259D01*
Y259D01*
Y259D01*
Y258D01*
X1030Y258D01*
X1030Y257D01*
X1029Y255D01*
X1029Y254D01*
X1028Y253D01*
X1028Y252D01*
Y252D01*
X1028Y252D01*
X1027Y251D01*
X1027Y251D01*
X1026Y250D01*
X1025Y249D01*
X1024Y248D01*
X1023Y247D01*
X1022Y247D01*
X1021D01*
X1021Y247D01*
X1021Y246D01*
X1021Y246D01*
X1020Y246D01*
X1020Y246D01*
X1019Y246D01*
X1019Y246D01*
X1017Y245D01*
X1016Y245D01*
X1014Y245D01*
X1012Y245D01*
X1011D01*
X1011Y245D01*
X1010D01*
X1009Y245D01*
X1008Y245D01*
X1006Y246D01*
X1004Y246D01*
X1003Y247D01*
X1003D01*
X1003Y247D01*
X1002Y247D01*
X1002Y247D01*
X1001Y247D01*
X1000Y248D01*
X999Y249D01*
X998Y250D01*
X997Y251D01*
X996Y252D01*
X1002Y257D01*
X1002Y257D01*
X1002Y257D01*
X1002Y257D01*
X1002Y257D01*
X1003Y256D01*
X1003Y256D01*
X1004Y255D01*
X1004Y255D01*
X1005Y255D01*
X1006Y254D01*
X1007Y254D01*
X1008Y253D01*
X1009Y253D01*
X1010Y253D01*
X1011Y253D01*
X1012D01*
X1013Y253D01*
X1013Y253D01*
X1014Y253D01*
X1015Y254D01*
X1016Y254D01*
X1017Y255D01*
X1017Y255D01*
X1017Y255D01*
X1018Y255D01*
X1018Y256D01*
X1018Y257D01*
X1019Y258D01*
X1019Y259D01*
X1019Y260D01*
Y260D01*
Y260D01*
X1019Y260D01*
X1019Y261D01*
X1019Y261D01*
X1019Y262D01*
X1018Y262D01*
X1018Y263D01*
X1018Y264D01*
X1017Y264D01*
X1017Y265D01*
X1016Y266D01*
X1015Y266D01*
X1014Y266D01*
X1013Y267D01*
X1011Y267D01*
X1007D01*
X1008Y274D01*
X1012D01*
X1012Y274D01*
X1013Y274D01*
X1014Y274D01*
X1015Y274D01*
X1016Y275D01*
X1016Y275D01*
X1016Y275D01*
X1017Y276D01*
X1017Y276D01*
X1017Y277D01*
X1018Y277D01*
X1018Y278D01*
X1018Y279D01*
X1018Y280D01*
Y280D01*
Y280D01*
X1018Y281D01*
X1018Y281D01*
X1018Y282D01*
X1017Y283D01*
X1017Y283D01*
X1016Y284D01*
X1016Y284D01*
X1016Y284D01*
X1016Y284D01*
X1015Y285D01*
X1014Y285D01*
X1014Y285D01*
X1013Y285D01*
X1012Y285D01*
X1011D01*
X1011Y285D01*
X1010Y285D01*
X1010Y285D01*
X1009Y285D01*
X1007Y284D01*
X1006Y284D01*
X1006Y284D01*
X1005Y283D01*
X1004Y283D01*
X1003Y282D01*
X1002Y281D01*
X997Y287D01*
X997Y287D01*
X997Y287D01*
X998Y288D01*
X998Y288D01*
X999Y289D01*
X999Y289D01*
X1000Y290D01*
X1001Y290D01*
X1002Y291D01*
X1004Y291D01*
X1005Y292D01*
X1006Y292D01*
X1008Y293D01*
X1009Y293D01*
X1011Y293D01*
X1013Y293D01*
X1014D01*
X1014Y293D01*
D02*
G37*
G36*
X1016Y96D02*
X1016D01*
X1017Y96D01*
X1019Y96D01*
X1020Y96D01*
X1022Y95D01*
X1023Y95D01*
X1023D01*
X1023Y95D01*
X1023Y95D01*
X1023Y95D01*
X1024Y94D01*
X1025Y94D01*
X1026Y93D01*
X1027Y93D01*
X1028Y92D01*
X1029Y91D01*
X1024Y85D01*
X1023Y85D01*
X1023Y85D01*
X1023Y85D01*
X1022Y86D01*
X1022Y86D01*
X1021Y87D01*
X1020Y87D01*
X1019Y88D01*
X1019Y88D01*
X1019Y88D01*
X1019Y88D01*
X1018Y88D01*
X1018Y88D01*
X1017Y88D01*
X1016Y88D01*
X1015Y88D01*
X1015D01*
X1014Y88D01*
X1014Y88D01*
X1013Y88D01*
X1012Y88D01*
X1011Y87D01*
X1010Y87D01*
X1010Y87D01*
X1009Y86D01*
X1008Y86D01*
X1008Y85D01*
X1007Y84D01*
Y84D01*
X1007Y84D01*
X1007Y84D01*
X1007Y84D01*
X1007Y83D01*
X1006Y83D01*
X1006Y82D01*
X1006Y81D01*
X1006Y81D01*
X1005Y80D01*
X1005Y79D01*
X1005Y78D01*
X1005Y76D01*
X1005Y75D01*
X1005Y74D01*
X1004Y72D01*
Y72D01*
Y72D01*
Y71D01*
X1005Y71D01*
Y70D01*
X1005Y69D01*
X1005Y68D01*
X1005Y67D01*
X1005Y65D01*
X1005Y63D01*
X1006Y62D01*
X1006Y61D01*
X1006Y60D01*
X1007Y60D01*
Y60D01*
X1007Y60D01*
X1007Y59D01*
X1008Y59D01*
X1008Y58D01*
X1009Y57D01*
X1010Y57D01*
X1012Y56D01*
X1013Y56D01*
X1013Y56D01*
X1014D01*
X1015Y56D01*
X1015Y56D01*
X1016Y56D01*
X1017Y57D01*
X1018Y57D01*
X1019Y57D01*
Y68D01*
X1013D01*
X1012Y76D01*
X1029D01*
Y53D01*
X1029Y53D01*
X1029Y52D01*
X1029Y52D01*
X1028Y52D01*
X1027Y52D01*
X1027Y51D01*
X1026Y51D01*
X1025Y50D01*
X1023Y50D01*
X1022Y49D01*
X1021Y49D01*
X1020Y49D01*
X1018Y48D01*
X1017Y48D01*
X1015Y48D01*
X1013Y48D01*
X1013D01*
X1012Y48D01*
X1012D01*
X1011Y48D01*
X1010Y48D01*
X1009Y49D01*
X1008Y49D01*
X1007Y49D01*
X1005Y50D01*
X1004Y50D01*
X1003Y51D01*
X1002Y51D01*
X1000Y52D01*
X999Y53D01*
X998Y54D01*
X998Y54D01*
X998Y54D01*
X998Y55D01*
X998Y55D01*
X997Y56D01*
X997Y57D01*
X996Y58D01*
X996Y59D01*
X995Y60D01*
X995Y61D01*
X994Y63D01*
X994Y64D01*
X994Y66D01*
X993Y68D01*
X993Y70D01*
X993Y72D01*
Y72D01*
Y73D01*
Y73D01*
X993Y74D01*
Y74D01*
X993Y75D01*
X993Y76D01*
X994Y77D01*
X994Y79D01*
X994Y81D01*
X995Y83D01*
X996Y85D01*
X996Y85D01*
X996Y86D01*
X996Y86D01*
X997Y86D01*
X997Y87D01*
X997Y87D01*
X998Y88D01*
X999Y90D01*
X1000Y91D01*
X1002Y93D01*
X1004Y94D01*
X1004Y94D01*
X1004Y94D01*
X1004Y94D01*
X1005Y94D01*
X1005Y94D01*
X1006Y95D01*
X1006Y95D01*
X1007Y95D01*
X1008Y95D01*
X1009Y96D01*
X1010Y96D01*
X1012Y96D01*
X1015Y96D01*
X1015D01*
X1016Y96D01*
D02*
G37*
G36*
X696Y45D02*
X697D01*
X697Y45D01*
X698Y45D01*
X699Y45D01*
X701Y45D01*
X702Y44D01*
X702D01*
X702Y44D01*
X702Y44D01*
X702Y44D01*
X702Y44D01*
X703Y44D01*
X704Y43D01*
X705Y43D01*
X706Y42D01*
X706Y42D01*
X702Y37D01*
X702Y37D01*
X702Y37D01*
X702Y37D01*
X702Y37D01*
X702Y37D01*
X701Y38D01*
X701Y38D01*
X700Y38D01*
X699Y38D01*
X698Y39D01*
X697Y39D01*
X696Y39D01*
X696Y39D01*
X695D01*
X695Y39D01*
X695Y39D01*
X694Y39D01*
X693Y39D01*
X693Y39D01*
X692Y38D01*
X692Y38D01*
X691Y38D01*
X691Y37D01*
X690Y37D01*
X690Y36D01*
Y36D01*
X690Y36D01*
X690Y36D01*
X689Y36D01*
X689Y35D01*
X689Y35D01*
X689Y35D01*
X689Y34D01*
X689Y33D01*
X688Y33D01*
X688Y32D01*
X688Y31D01*
X688Y30D01*
X688Y29D01*
X688Y28D01*
X688Y27D01*
Y27D01*
Y27D01*
Y27D01*
X688Y26D01*
Y26D01*
X688Y25D01*
X688Y25D01*
X688Y24D01*
X688Y22D01*
X689Y21D01*
X689Y19D01*
X689Y19D01*
X690Y18D01*
X690Y18D01*
X690Y18D01*
X690Y18D01*
X690Y18D01*
X691Y17D01*
X691Y17D01*
X692Y16D01*
X693Y16D01*
X694Y16D01*
X694Y15D01*
X695Y15D01*
X696Y15D01*
X696D01*
X696Y15D01*
X697Y15D01*
X698Y16D01*
X698Y16D01*
X699Y16D01*
X700Y16D01*
X700Y16D01*
X700Y16D01*
X700Y16D01*
X701Y17D01*
X701Y17D01*
X702Y17D01*
X702Y18D01*
X703Y18D01*
X707Y14D01*
X707Y14D01*
X707Y13D01*
X706Y13D01*
X706Y13D01*
X706Y13D01*
X705Y12D01*
X704Y12D01*
X704Y11D01*
X703Y11D01*
X702Y10D01*
X701Y10D01*
X700Y10D01*
X699Y9D01*
X698Y9D01*
X697Y9D01*
X695Y9D01*
X695D01*
X694Y9D01*
X694D01*
X694Y9D01*
X693Y9D01*
X692Y9D01*
X691Y9D01*
X690Y10D01*
X688Y10D01*
X687Y11D01*
X687Y11D01*
X687Y11D01*
X686Y11D01*
X686Y11D01*
X686Y12D01*
X686Y12D01*
X685Y13D01*
X684Y14D01*
X683Y15D01*
X682Y16D01*
X681Y17D01*
Y17D01*
X681Y17D01*
X681Y18D01*
X681Y18D01*
X681Y18D01*
X681Y19D01*
X680Y19D01*
X680Y20D01*
X680Y21D01*
X680Y22D01*
X680Y22D01*
X679Y23D01*
X679Y24D01*
X679Y25D01*
X679Y27D01*
Y27D01*
Y27D01*
Y28D01*
X679Y28D01*
Y29D01*
X679Y29D01*
X679Y30D01*
X679Y31D01*
X680Y32D01*
X680Y34D01*
X681Y35D01*
X681Y37D01*
X681Y37D01*
X681Y37D01*
X681Y37D01*
X682Y38D01*
X682Y38D01*
X682Y38D01*
X683Y39D01*
X684Y40D01*
X685Y41D01*
X686Y42D01*
X687Y43D01*
X687Y43D01*
X687Y43D01*
X687Y43D01*
X688Y44D01*
X688Y44D01*
X688Y44D01*
X689Y44D01*
X689Y44D01*
X690Y45D01*
X691Y45D01*
X692Y45D01*
X694Y45D01*
X694Y45D01*
X696D01*
X696Y45D01*
D02*
G37*
G36*
X433Y16D02*
X440D01*
Y10D01*
X417D01*
Y16D01*
X426D01*
Y37D01*
X418Y32D01*
X415Y38D01*
X426Y44D01*
X433D01*
Y16D01*
D02*
G37*
G36*
X401Y45D02*
X401D01*
X402Y45D01*
X403Y45D01*
X404Y45D01*
X405Y45D01*
X406Y44D01*
X406D01*
X406Y44D01*
X407Y44D01*
X407Y44D01*
X407Y44D01*
X408Y44D01*
X409Y43D01*
X409Y43D01*
X410Y42D01*
X411Y42D01*
X407Y37D01*
X407Y37D01*
X407Y37D01*
X407Y37D01*
X407Y37D01*
X406Y37D01*
X406Y38D01*
X406Y38D01*
X405Y38D01*
X404Y38D01*
X403Y39D01*
X402Y39D01*
X401Y39D01*
X400Y39D01*
X400D01*
X400Y39D01*
X399Y39D01*
X399Y39D01*
X398Y39D01*
X397Y39D01*
X397Y38D01*
X396Y38D01*
X396Y38D01*
X395Y37D01*
X395Y37D01*
X395Y36D01*
Y36D01*
X394Y36D01*
X394Y36D01*
X394Y36D01*
X394Y35D01*
X394Y35D01*
X394Y35D01*
X393Y34D01*
X393Y33D01*
X393Y33D01*
X393Y32D01*
X393Y31D01*
X393Y30D01*
X392Y29D01*
X392Y28D01*
X392Y27D01*
Y27D01*
Y27D01*
Y27D01*
X392Y26D01*
Y26D01*
X392Y25D01*
X393Y25D01*
X393Y24D01*
X393Y22D01*
X393Y21D01*
X394Y19D01*
X394Y19D01*
X395Y18D01*
X395Y18D01*
X395Y18D01*
X395Y18D01*
X395Y18D01*
X395Y17D01*
X396Y17D01*
X397Y16D01*
X398Y16D01*
X398Y16D01*
X399Y15D01*
X400Y15D01*
X400Y15D01*
X401D01*
X401Y15D01*
X402Y15D01*
X402Y16D01*
X403Y16D01*
X404Y16D01*
X404Y16D01*
X404Y16D01*
X405Y16D01*
X405Y16D01*
X405Y17D01*
X406Y17D01*
X407Y17D01*
X407Y18D01*
X408Y18D01*
X412Y14D01*
X412Y14D01*
X411Y13D01*
X411Y13D01*
X411Y13D01*
X410Y13D01*
X410Y12D01*
X409Y12D01*
X408Y11D01*
X408Y11D01*
X407Y10D01*
X406Y10D01*
X405Y10D01*
X404Y9D01*
X403Y9D01*
X401Y9D01*
X400Y9D01*
X400D01*
X399Y9D01*
X399D01*
X398Y9D01*
X398Y9D01*
X397Y9D01*
X396Y9D01*
X394Y10D01*
X393Y10D01*
X392Y11D01*
X392Y11D01*
X391Y11D01*
X391Y11D01*
X391Y11D01*
X391Y12D01*
X390Y12D01*
X390Y13D01*
X389Y14D01*
X388Y15D01*
X387Y16D01*
X386Y17D01*
Y17D01*
X386Y17D01*
X386Y18D01*
X386Y18D01*
X385Y18D01*
X385Y19D01*
X385Y19D01*
X385Y20D01*
X385Y21D01*
X385Y22D01*
X384Y22D01*
X384Y23D01*
X384Y24D01*
X384Y25D01*
X384Y27D01*
Y27D01*
Y27D01*
Y28D01*
X384Y28D01*
Y29D01*
X384Y29D01*
X384Y30D01*
X384Y31D01*
X384Y32D01*
X385Y34D01*
X385Y35D01*
X386Y37D01*
X386Y37D01*
X386Y37D01*
X386Y37D01*
X386Y38D01*
X387Y38D01*
X387Y38D01*
X387Y39D01*
X388Y40D01*
X389Y41D01*
X390Y42D01*
X392Y43D01*
X392Y43D01*
X392Y43D01*
X392Y43D01*
X392Y44D01*
X393Y44D01*
X393Y44D01*
X394Y44D01*
X394Y44D01*
X395Y45D01*
X395Y45D01*
X397Y45D01*
X398Y45D01*
X399Y45D01*
X401D01*
X401Y45D01*
D02*
G37*
G36*
X921Y65D02*
X921D01*
X922Y65D01*
X923Y65D01*
X924Y65D01*
X925Y64D01*
X926Y64D01*
X926D01*
X926Y64D01*
X926Y64D01*
X927Y63D01*
X927Y63D01*
X928Y63D01*
X928Y62D01*
X929Y62D01*
X930Y61D01*
X930Y60D01*
X930Y60D01*
X930Y60D01*
X931Y59D01*
X931Y59D01*
X931Y58D01*
X931Y57D01*
X931Y56D01*
X932Y55D01*
Y55D01*
Y55D01*
Y55D01*
Y55D01*
X931Y54D01*
X931Y53D01*
X931Y53D01*
X931Y52D01*
X931Y51D01*
X930Y50D01*
Y50D01*
X930Y50D01*
X930Y49D01*
X930Y49D01*
X930Y49D01*
X930Y49D01*
X929Y48D01*
X929Y47D01*
X928Y46D01*
X927Y45D01*
X926Y44D01*
X926Y44D01*
X926Y44D01*
X926Y43D01*
X925Y43D01*
X925Y43D01*
X925Y42D01*
X924Y42D01*
X924Y41D01*
X923Y41D01*
X923Y40D01*
X922Y40D01*
X921Y39D01*
X920Y38D01*
X919Y37D01*
X919Y36D01*
X918Y36D01*
X932D01*
X931Y30D01*
X908D01*
Y35D01*
X909Y35D01*
X909Y35D01*
X909Y36D01*
X909Y36D01*
X910Y37D01*
X911Y37D01*
X911Y38D01*
X912Y39D01*
X913Y40D01*
X915Y42D01*
X916Y43D01*
X917Y44D01*
X918Y44D01*
X918Y44D01*
X918Y45D01*
X918Y45D01*
X918Y45D01*
X918Y45D01*
X919Y46D01*
X919Y46D01*
X920Y47D01*
X921Y48D01*
X921Y49D01*
X922Y50D01*
Y50D01*
X922Y50D01*
X922Y50D01*
X923Y51D01*
X923Y51D01*
X923Y52D01*
X923Y53D01*
X923Y54D01*
X923Y54D01*
Y54D01*
Y55D01*
Y55D01*
X923Y55D01*
X923Y56D01*
X923Y56D01*
X923Y57D01*
X923Y57D01*
X922Y58D01*
X922Y58D01*
X922Y58D01*
X922Y58D01*
X921Y58D01*
X921Y59D01*
X920Y59D01*
X920Y59D01*
X919Y59D01*
X918D01*
X918Y59D01*
X918Y59D01*
X917Y59D01*
X917Y59D01*
X916Y58D01*
X915Y58D01*
X915Y58D01*
X915Y58D01*
X915Y58D01*
X915Y57D01*
X914Y57D01*
X914Y57D01*
X913Y56D01*
X913Y55D01*
X908Y59D01*
X908Y59D01*
X908Y59D01*
X908Y59D01*
X908Y60D01*
X909Y60D01*
X909Y61D01*
X910Y61D01*
X911Y62D01*
X912Y63D01*
X913Y64D01*
X913D01*
X913Y64D01*
X913Y64D01*
X913Y64D01*
X913Y64D01*
X914Y64D01*
X914Y64D01*
X915Y64D01*
X916Y65D01*
X917Y65D01*
X918Y65D01*
X920Y65D01*
X920D01*
X921Y65D01*
D02*
G37*
G36*
X896Y48D02*
X906Y30D01*
X897D01*
X891Y43D01*
X885Y30D01*
X876D01*
X886Y48D01*
X877Y64D01*
X886D01*
X891Y53D01*
X896Y64D01*
X905D01*
X896Y48D01*
D02*
G37*
G36*
X935Y144D02*
X941D01*
Y138D01*
X919D01*
Y144D01*
X927D01*
Y165D01*
X920Y160D01*
X917Y166D01*
X928Y172D01*
X935D01*
Y144D01*
D02*
G37*
G36*
X912Y149D02*
Y149D01*
Y149D01*
Y149D01*
Y149D01*
X912Y148D01*
Y148D01*
X911Y147D01*
X911Y146D01*
X911Y145D01*
X911Y144D01*
X910Y143D01*
Y143D01*
X910Y143D01*
X910Y143D01*
X910Y142D01*
X910Y142D01*
X909Y141D01*
X908Y141D01*
X908Y140D01*
X907Y139D01*
X906Y139D01*
X906D01*
X906Y138D01*
X906Y138D01*
X905Y138D01*
X905Y138D01*
X905Y138D01*
X904Y138D01*
X904Y138D01*
X903Y137D01*
X902Y137D01*
X900Y137D01*
X899Y137D01*
X898D01*
X898Y137D01*
X897Y137D01*
X897Y137D01*
X896Y137D01*
X895Y137D01*
X894Y138D01*
X893Y138D01*
X892Y138D01*
X891Y139D01*
X890Y139D01*
X890Y140D01*
X889Y140D01*
X889Y140D01*
X889Y140D01*
X889Y141D01*
X889Y141D01*
X888Y141D01*
X888Y142D01*
X888Y142D01*
X887Y143D01*
X887Y143D01*
X887Y144D01*
X887Y145D01*
X886Y146D01*
X886Y146D01*
X886Y147D01*
X886Y148D01*
X886Y149D01*
Y172D01*
X894D01*
Y152D01*
Y152D01*
Y152D01*
Y152D01*
Y152D01*
Y152D01*
Y151D01*
X894Y151D01*
X894Y150D01*
X894Y149D01*
X894Y148D01*
X894Y147D01*
Y147D01*
X894Y147D01*
X895Y146D01*
X895Y146D01*
X895Y145D01*
X895Y145D01*
X895Y144D01*
X896Y144D01*
X896Y144D01*
X896Y144D01*
X896Y144D01*
X897Y144D01*
X897Y143D01*
X897Y143D01*
X898Y143D01*
X899Y143D01*
X899D01*
X899Y143D01*
X900Y143D01*
X900Y143D01*
X901Y143D01*
X901Y144D01*
X902Y144D01*
X902Y144D01*
X902Y144D01*
X902Y144D01*
X902Y145D01*
X902Y145D01*
X903Y146D01*
X903Y146D01*
X903Y147D01*
Y147D01*
X903Y147D01*
X903Y148D01*
X903Y148D01*
X903Y149D01*
X903Y150D01*
X903Y151D01*
Y152D01*
Y172D01*
X912D01*
Y149D01*
D02*
G37*
G36*
X555Y45D02*
X555D01*
X556Y45D01*
X557Y45D01*
X558Y45D01*
X559Y45D01*
X560Y44D01*
X560D01*
X560Y44D01*
X560Y44D01*
X560Y44D01*
X561Y44D01*
X562Y43D01*
X562Y43D01*
X563Y42D01*
X563Y42D01*
X564Y41D01*
X564Y41D01*
X564Y41D01*
X565Y40D01*
X565Y40D01*
X565Y39D01*
X565Y38D01*
X565Y37D01*
X566Y36D01*
Y36D01*
Y36D01*
Y36D01*
X565Y36D01*
X565Y35D01*
X565Y35D01*
X565Y34D01*
X565Y33D01*
X564Y32D01*
X564Y31D01*
X564Y31D01*
X563Y31D01*
X563Y31D01*
X562Y30D01*
X562Y30D01*
X561Y29D01*
X560Y29D01*
X558Y28D01*
X559D01*
X559Y28D01*
X559Y28D01*
X560Y28D01*
X560Y28D01*
X561Y27D01*
X562Y27D01*
X563Y27D01*
X563Y26D01*
X564Y26D01*
X565Y25D01*
X565Y24D01*
X566Y23D01*
X566Y22D01*
X567Y21D01*
X567Y20D01*
Y20D01*
Y19D01*
Y19D01*
Y19D01*
X567Y19D01*
X566Y18D01*
X566Y17D01*
X566Y16D01*
X566Y15D01*
X565Y14D01*
Y14D01*
X565Y14D01*
X565Y14D01*
X564Y13D01*
X564Y13D01*
X563Y12D01*
X562Y12D01*
X561Y11D01*
X560Y10D01*
X560D01*
X560Y10D01*
X560Y10D01*
X560Y10D01*
X559Y10D01*
X559Y10D01*
X559Y10D01*
X558Y10D01*
X557Y9D01*
X556Y9D01*
X555Y9D01*
X553Y9D01*
X553D01*
X552Y9D01*
X552D01*
X551Y9D01*
X550Y9D01*
X549Y10D01*
X548Y10D01*
X546Y10D01*
X546D01*
X546Y10D01*
X546Y10D01*
X546Y11D01*
X545Y11D01*
X545Y11D01*
X544Y12D01*
X543Y13D01*
X542Y13D01*
X541Y14D01*
X545Y18D01*
X546Y18D01*
X546Y18D01*
X546Y18D01*
X546Y18D01*
X546Y18D01*
X547Y17D01*
X547Y17D01*
X547Y17D01*
X548Y16D01*
X548Y16D01*
X550Y16D01*
X550Y15D01*
X551Y15D01*
X552Y15D01*
X553Y15D01*
X553D01*
X554Y15D01*
X554Y15D01*
X555Y15D01*
X556Y16D01*
X556Y16D01*
X557Y16D01*
X557Y16D01*
X557Y17D01*
X557Y17D01*
X558Y17D01*
X558Y18D01*
X558Y19D01*
X558Y19D01*
X559Y20D01*
Y20D01*
Y20D01*
X558Y21D01*
X558Y21D01*
X558Y21D01*
X558Y22D01*
X558Y22D01*
X558Y23D01*
X557Y23D01*
X557Y24D01*
X557Y24D01*
X556Y25D01*
X555Y25D01*
X555Y25D01*
X554Y25D01*
X553Y25D01*
X550D01*
X550Y31D01*
X553D01*
X553Y31D01*
X554Y31D01*
X555Y31D01*
X555Y31D01*
X556Y31D01*
X556Y32D01*
X556Y32D01*
X557Y32D01*
X557Y32D01*
X557Y33D01*
X557Y33D01*
X558Y34D01*
X558Y34D01*
X558Y35D01*
Y35D01*
Y36D01*
X558Y36D01*
X558Y36D01*
X558Y37D01*
X557Y37D01*
X557Y38D01*
X556Y38D01*
X556Y38D01*
X556Y39D01*
X556Y39D01*
X555Y39D01*
X555Y39D01*
X554Y39D01*
X554Y39D01*
X553Y39D01*
X552D01*
X552Y39D01*
X552Y39D01*
X551Y39D01*
X551Y39D01*
X549Y39D01*
X549Y39D01*
X548Y38D01*
X548Y38D01*
X547Y37D01*
X547Y37D01*
X546Y36D01*
X542Y41D01*
X542Y41D01*
X542Y41D01*
X542Y41D01*
X543Y41D01*
X543Y42D01*
X544Y42D01*
X544Y43D01*
X545Y43D01*
X546Y43D01*
X547Y44D01*
X548Y44D01*
X549Y45D01*
X550Y45D01*
X551Y45D01*
X552Y45D01*
X554Y45D01*
X554D01*
X555Y45D01*
D02*
G37*
G36*
X529D02*
X529D01*
X530Y45D01*
X531Y45D01*
X532Y45D01*
X533Y45D01*
X534Y44D01*
X534D01*
X534Y44D01*
X534Y44D01*
X535Y44D01*
X535Y44D01*
X536Y44D01*
X537Y43D01*
X537Y43D01*
X538Y42D01*
X539Y42D01*
X535Y37D01*
X535Y37D01*
X535Y37D01*
X535Y37D01*
X535Y37D01*
X534Y37D01*
X534Y38D01*
X534Y38D01*
X533Y38D01*
X532Y38D01*
X531Y39D01*
X530Y39D01*
X529Y39D01*
X528Y39D01*
X528D01*
X528Y39D01*
X527Y39D01*
X527Y39D01*
X526Y39D01*
X525Y39D01*
X525Y38D01*
X524Y38D01*
X524Y38D01*
X523Y37D01*
X523Y37D01*
X522Y36D01*
Y36D01*
X522Y36D01*
X522Y36D01*
X522Y36D01*
X522Y35D01*
X522Y35D01*
X522Y35D01*
X521Y34D01*
X521Y33D01*
X521Y33D01*
X521Y32D01*
X521Y31D01*
X521Y30D01*
X520Y29D01*
X520Y28D01*
X520Y27D01*
Y27D01*
Y27D01*
Y27D01*
X520Y26D01*
Y26D01*
X520Y25D01*
X521Y25D01*
X521Y24D01*
X521Y22D01*
X521Y21D01*
X522Y19D01*
X522Y19D01*
X522Y18D01*
X523Y18D01*
X523Y18D01*
X523Y18D01*
X523Y18D01*
X523Y17D01*
X524Y17D01*
X525Y16D01*
X526Y16D01*
X526Y16D01*
X527Y15D01*
X528Y15D01*
X528Y15D01*
X529D01*
X529Y15D01*
X530Y15D01*
X530Y16D01*
X531Y16D01*
X532Y16D01*
X532Y16D01*
X532Y16D01*
X533Y16D01*
X533Y16D01*
X533Y17D01*
X534Y17D01*
X535Y17D01*
X535Y18D01*
X536Y18D01*
X540Y14D01*
X540Y14D01*
X539Y13D01*
X539Y13D01*
X539Y13D01*
X538Y13D01*
X538Y12D01*
X537Y12D01*
X536Y11D01*
X536Y11D01*
X535Y10D01*
X534Y10D01*
X533Y10D01*
X532Y9D01*
X530Y9D01*
X529Y9D01*
X528Y9D01*
X527D01*
X527Y9D01*
X527D01*
X526Y9D01*
X526Y9D01*
X525Y9D01*
X524Y9D01*
X522Y10D01*
X521Y10D01*
X520Y11D01*
X519Y11D01*
X519Y11D01*
X519Y11D01*
X519Y11D01*
X519Y12D01*
X518Y12D01*
X517Y13D01*
X517Y14D01*
X516Y15D01*
X515Y16D01*
X514Y17D01*
Y17D01*
X514Y17D01*
X514Y18D01*
X514Y18D01*
X513Y18D01*
X513Y19D01*
X513Y19D01*
X513Y20D01*
X513Y21D01*
X512Y22D01*
X512Y22D01*
X512Y23D01*
X512Y24D01*
X512Y25D01*
X512Y27D01*
Y27D01*
Y27D01*
Y28D01*
X512Y28D01*
Y29D01*
X512Y29D01*
X512Y30D01*
X512Y31D01*
X512Y32D01*
X513Y34D01*
X513Y35D01*
X514Y37D01*
X514Y37D01*
X514Y37D01*
X514Y37D01*
X514Y38D01*
X515Y38D01*
X515Y38D01*
X515Y39D01*
X516Y40D01*
X517Y41D01*
X518Y42D01*
X520Y43D01*
X520Y43D01*
X520Y43D01*
X520Y43D01*
X520Y44D01*
X521Y44D01*
X521Y44D01*
X522Y44D01*
X522Y44D01*
X523Y45D01*
X523Y45D01*
X525Y45D01*
X526Y45D01*
X527Y45D01*
X529D01*
X529Y45D01*
D02*
G37*
G36*
X108Y255D02*
X118Y236D01*
X109D01*
X103Y249D01*
X97Y236D01*
X89D01*
X98Y255D01*
X89Y271D01*
X98D01*
X103Y260D01*
X109Y271D01*
X117D01*
X108Y255D01*
D02*
G37*
G36*
X653Y518D02*
X653D01*
X654Y518D01*
X655Y517D01*
X656Y517D01*
X657Y517D01*
X658Y516D01*
X658D01*
X659Y516D01*
X659Y516D01*
X659Y516D01*
X659Y516D01*
X660Y516D01*
X661Y515D01*
X661Y514D01*
X662Y514D01*
X662Y513D01*
X663Y513D01*
X663Y512D01*
X663Y512D01*
X663Y511D01*
X663Y511D01*
X664Y510D01*
X664Y509D01*
X664Y508D01*
Y508D01*
Y508D01*
Y508D01*
Y507D01*
X664Y507D01*
X664Y506D01*
X664Y505D01*
X663Y504D01*
X663Y503D01*
X663Y502D01*
Y502D01*
X663Y502D01*
X662Y502D01*
X662Y502D01*
X662Y502D01*
X662Y501D01*
X662Y501D01*
X661Y500D01*
X660Y499D01*
X659Y498D01*
X658Y496D01*
X658Y496D01*
X658Y496D01*
X658Y496D01*
X658Y496D01*
X657Y496D01*
X657Y495D01*
X657Y495D01*
X656Y494D01*
X656Y494D01*
X655Y493D01*
X654Y492D01*
X653Y492D01*
X653Y491D01*
X652Y490D01*
X651Y489D01*
X650Y488D01*
X665D01*
X664Y482D01*
X641D01*
Y488D01*
X641Y488D01*
X641Y488D01*
X641Y488D01*
X642Y489D01*
X642Y489D01*
X643Y490D01*
X644Y491D01*
X644Y491D01*
X646Y493D01*
X647Y494D01*
X649Y496D01*
X649Y496D01*
X650Y497D01*
X650Y497D01*
X650Y497D01*
X650Y497D01*
X651Y498D01*
X651Y498D01*
X651Y498D01*
X652Y499D01*
X652Y500D01*
X653Y501D01*
X654Y502D01*
X654Y503D01*
Y503D01*
X654Y503D01*
X655Y503D01*
X655Y504D01*
X655Y504D01*
X655Y505D01*
X656Y506D01*
X656Y506D01*
X656Y507D01*
Y507D01*
Y507D01*
Y508D01*
X656Y508D01*
X656Y508D01*
X656Y509D01*
X655Y509D01*
X655Y510D01*
X655Y511D01*
X655Y511D01*
X654Y511D01*
X654Y511D01*
X654Y511D01*
X653Y511D01*
X653Y512D01*
X652Y512D01*
X651Y512D01*
X651D01*
X650Y512D01*
X650Y512D01*
X649Y512D01*
X649Y511D01*
X648Y511D01*
X648Y511D01*
X648Y511D01*
X648Y511D01*
X647Y511D01*
X647Y510D01*
X646Y510D01*
X646Y509D01*
X645Y509D01*
X645Y508D01*
X640Y512D01*
X640Y512D01*
X640Y512D01*
X640Y512D01*
X640Y512D01*
X641Y513D01*
X642Y513D01*
X642Y514D01*
X643Y515D01*
X644Y516D01*
X645Y516D01*
X645D01*
X645Y516D01*
X645Y516D01*
X646Y517D01*
X646Y517D01*
X646Y517D01*
X647Y517D01*
X647Y517D01*
X648Y517D01*
X649Y518D01*
X650Y518D01*
X652Y518D01*
X653D01*
X653Y518D01*
D02*
G37*
G36*
X806Y439D02*
X813D01*
Y433D01*
X790D01*
Y439D01*
X798D01*
Y460D01*
X791Y455D01*
X788Y461D01*
X799Y468D01*
X806D01*
Y439D01*
D02*
G37*
G36*
X636Y494D02*
Y494D01*
Y494D01*
Y494D01*
Y493D01*
X636Y493D01*
Y493D01*
X636Y492D01*
X636Y491D01*
X635Y490D01*
X635Y489D01*
X635Y487D01*
Y487D01*
X635Y487D01*
X634Y487D01*
X634Y487D01*
X634Y486D01*
X633Y486D01*
X633Y485D01*
X632Y484D01*
X631Y484D01*
X630Y483D01*
X630D01*
X630Y483D01*
X630Y483D01*
X630Y483D01*
X629Y483D01*
X629Y483D01*
X629Y482D01*
X628Y482D01*
X627Y482D01*
X626Y482D01*
X625Y481D01*
X623Y481D01*
X623D01*
X622Y481D01*
X622Y482D01*
X621Y482D01*
X620Y482D01*
X620Y482D01*
X618Y482D01*
X617Y483D01*
X616Y483D01*
X616Y483D01*
X615Y484D01*
X614Y484D01*
X614Y485D01*
X613Y485D01*
X613Y485D01*
X613Y485D01*
X613Y485D01*
X613Y486D01*
X612Y486D01*
X612Y487D01*
X612Y487D01*
X612Y488D01*
X611Y488D01*
X611Y489D01*
X611Y490D01*
X611Y491D01*
X610Y492D01*
X610Y493D01*
X610Y494D01*
Y517D01*
X618D01*
Y497D01*
Y497D01*
Y497D01*
Y497D01*
Y496D01*
Y496D01*
Y496D01*
X619Y495D01*
X619Y494D01*
X619Y493D01*
X619Y492D01*
X619Y492D01*
Y491D01*
X619Y491D01*
X619Y491D01*
X619Y490D01*
X619Y490D01*
X620Y489D01*
X620Y489D01*
X620Y489D01*
X620Y488D01*
X620Y488D01*
X621Y488D01*
X621Y488D01*
X621Y488D01*
X622Y488D01*
X622Y488D01*
X623Y488D01*
X623D01*
X624Y488D01*
X624Y488D01*
X625Y488D01*
X625Y488D01*
X626Y488D01*
X626Y489D01*
X626Y489D01*
X626Y489D01*
X626Y489D01*
X627Y489D01*
X627Y490D01*
X627Y490D01*
X627Y491D01*
X627Y492D01*
Y492D01*
X627Y492D01*
X628Y492D01*
X628Y493D01*
X628Y494D01*
X628Y495D01*
X628Y496D01*
Y497D01*
Y517D01*
X636D01*
Y494D01*
D02*
G37*
G36*
X770Y468D02*
X771Y468D01*
X771Y468D01*
X772Y468D01*
X773Y467D01*
X775Y467D01*
X776Y467D01*
X777Y466D01*
X778Y466D01*
X779Y466D01*
X779Y465D01*
X780Y465D01*
X780Y465D01*
X780Y465D01*
X780Y465D01*
X780Y464D01*
X781Y464D01*
X781Y464D01*
X781Y463D01*
X782Y463D01*
X782Y462D01*
X782Y461D01*
X782Y461D01*
X783Y460D01*
X783Y459D01*
X783Y458D01*
X783Y457D01*
Y457D01*
Y457D01*
Y457D01*
X783Y457D01*
Y456D01*
X783Y456D01*
X783Y455D01*
X783Y454D01*
X782Y453D01*
X782Y452D01*
X781Y451D01*
Y451D01*
X781Y451D01*
X781Y451D01*
X780Y450D01*
X780Y450D01*
X779Y449D01*
X778Y449D01*
X777Y448D01*
X776Y448D01*
X785Y433D01*
X776D01*
X768Y446D01*
X766D01*
Y433D01*
X758D01*
Y468D01*
X769D01*
X770Y468D01*
D02*
G37*
G36*
X139Y242D02*
X146D01*
Y236D01*
X123D01*
Y242D01*
X132D01*
Y263D01*
X125Y259D01*
X121Y264D01*
X132Y271D01*
X139D01*
Y242D01*
D02*
G37*
%LPC*%
G36*
X1052Y481D02*
X1050D01*
Y451D01*
X1053D01*
X1053Y451D01*
X1053Y451D01*
X1054Y451D01*
X1055Y451D01*
X1056Y452D01*
X1057Y452D01*
X1058Y453D01*
X1059Y453D01*
X1059Y454D01*
X1060Y454D01*
Y454D01*
X1060Y454D01*
X1060Y455D01*
X1060Y455D01*
X1060Y455D01*
X1061Y456D01*
X1061Y456D01*
X1061Y457D01*
X1061Y458D01*
X1062Y459D01*
X1062Y460D01*
X1062Y461D01*
X1062Y462D01*
X1062Y463D01*
X1062Y465D01*
Y466D01*
Y466D01*
Y467D01*
Y467D01*
X1062Y468D01*
Y468D01*
X1062Y469D01*
X1062Y470D01*
X1062Y471D01*
X1062Y473D01*
X1061Y475D01*
X1061Y476D01*
X1061Y476D01*
X1060Y477D01*
X1060Y478D01*
Y478D01*
X1060Y478D01*
X1059Y478D01*
X1059Y479D01*
X1058Y479D01*
X1057Y480D01*
X1055Y481D01*
X1054Y481D01*
X1053Y481D01*
X1052Y481D01*
D02*
G37*
G36*
X1054Y383D02*
X1051D01*
Y352D01*
X1054D01*
X1055Y352D01*
X1055Y352D01*
X1056Y353D01*
X1057Y353D01*
X1058Y353D01*
X1059Y354D01*
X1060Y354D01*
X1060Y355D01*
X1061Y355D01*
X1061Y356D01*
Y356D01*
X1062Y356D01*
X1062Y356D01*
X1062Y356D01*
X1062Y357D01*
X1062Y357D01*
X1062Y358D01*
X1063Y359D01*
X1063Y359D01*
X1063Y360D01*
X1063Y361D01*
X1064Y362D01*
X1064Y363D01*
X1064Y365D01*
X1064Y366D01*
Y368D01*
Y368D01*
Y368D01*
Y368D01*
X1064Y369D01*
Y370D01*
X1064Y371D01*
X1064Y371D01*
X1064Y372D01*
X1063Y374D01*
X1063Y376D01*
X1063Y377D01*
X1062Y378D01*
X1062Y379D01*
X1061Y379D01*
Y379D01*
X1061Y380D01*
X1061Y380D01*
X1060Y380D01*
X1059Y381D01*
X1058Y382D01*
X1057Y382D01*
X1056Y382D01*
X1055Y383D01*
X1054Y383D01*
D02*
G37*
G36*
X1088Y87D02*
X1086D01*
Y57D01*
X1089D01*
X1089Y57D01*
X1090Y57D01*
X1090Y57D01*
X1091Y57D01*
X1092Y58D01*
X1094Y59D01*
X1094Y59D01*
X1095Y59D01*
X1095Y60D01*
X1096Y60D01*
Y60D01*
X1096Y61D01*
X1096Y61D01*
X1096Y61D01*
X1096Y61D01*
X1097Y62D01*
X1097Y63D01*
X1097Y63D01*
X1097Y64D01*
X1098Y65D01*
X1098Y66D01*
X1098Y67D01*
X1098Y68D01*
X1098Y69D01*
X1099Y71D01*
Y72D01*
Y72D01*
Y73D01*
Y73D01*
X1098Y74D01*
Y74D01*
X1098Y75D01*
X1098Y76D01*
X1098Y77D01*
X1098Y79D01*
X1097Y81D01*
X1097Y82D01*
X1097Y83D01*
X1096Y83D01*
X1096Y84D01*
Y84D01*
X1096Y84D01*
X1095Y85D01*
X1095Y85D01*
X1094Y86D01*
X1093Y86D01*
X1092Y87D01*
X1090Y87D01*
X1089Y87D01*
X1088Y87D01*
D02*
G37*
G36*
X769Y462D02*
X766D01*
Y452D01*
X770D01*
X770Y452D01*
X771Y452D01*
X771Y452D01*
X772Y453D01*
X773Y453D01*
X773Y453D01*
X773Y453D01*
X773Y453D01*
X774Y454D01*
X774Y454D01*
X774Y455D01*
X774Y455D01*
X775Y456D01*
X775Y457D01*
Y457D01*
Y457D01*
Y458D01*
X775Y458D01*
X774Y459D01*
X774Y459D01*
X774Y460D01*
X774Y460D01*
X773Y461D01*
X773Y461D01*
X773Y461D01*
X773Y461D01*
X772Y461D01*
X771Y462D01*
X771Y462D01*
X770Y462D01*
X769Y462D01*
D02*
G37*
%LPD*%
D18*
X1251Y7D02*
G03*
X1251Y7I-5J0D01*
G01*
X1129Y20D02*
X1131Y22D01*
X876Y20D02*
X1129D01*
X1131Y22D02*
X1231D01*
Y522D01*
X1131D02*
X1231D01*
X1131Y22D02*
Y522D01*
D22*
X840Y220D02*
G03*
X840Y220I-5J0D01*
G01*
X380Y311D02*
G03*
X380Y311I-5J0D01*
G01*
X519Y465D02*
G03*
X519Y465I-5J0D01*
G01*
D23*
X844Y295D02*
X967D01*
X844Y256D02*
X967D01*
Y295D01*
X844Y256D02*
Y295D01*
X561Y138D02*
X612D01*
Y59D02*
Y138D01*
X561Y59D02*
X612D01*
X470D02*
X522D01*
X470D02*
Y138D01*
X522D01*
X374Y157D02*
Y209D01*
X453D01*
Y157D02*
Y209D01*
Y67D02*
Y118D01*
X374Y67D02*
X453D01*
X374D02*
Y118D01*
X-28Y53D02*
Y443D01*
Y53D02*
X23D01*
X153D02*
X239D01*
X153Y443D02*
X239D01*
X-28D02*
X23D01*
X349Y128D02*
Y159D01*
Y337D02*
Y368D01*
X565Y203D02*
X715D01*
X565Y467D02*
X715D01*
Y203D02*
Y467D01*
X565Y203D02*
Y467D01*
X829Y496D02*
X963D01*
Y409D02*
Y496D01*
X829Y409D02*
X963D01*
X829D02*
Y496D01*
X724Y138D02*
X776D01*
Y59D02*
Y138D01*
X724Y59D02*
X776D01*
X634D02*
X685D01*
X634D02*
Y138D01*
X685D01*
X453Y333D02*
Y384D01*
X374Y333D02*
X453D01*
X374D02*
Y384D01*
Y423D02*
Y474D01*
X453D01*
Y423D02*
Y474D01*
M02*
