G04 Layer_Color=65535*
%FSLAX23Y23*%
%MOIN*%
G70*
G01*
G75*
%ADD18C,0.010*%
%ADD25C,0.010*%
%ADD26C,0.008*%
G36*
X1407Y29D02*
X1417Y10D01*
X1409D01*
X1402Y23D01*
X1396Y10D01*
X1388D01*
X1398Y28D01*
X1389Y44D01*
X1397D01*
X1403Y33D01*
X1408Y44D01*
X1417D01*
X1407Y29D01*
D02*
G37*
G36*
X790Y117D02*
X778D01*
Y110D01*
X778D01*
X778Y110D01*
X778Y110D01*
X778Y110D01*
X779Y110D01*
X779Y111D01*
X780Y111D01*
X781Y111D01*
X782Y111D01*
X783Y111D01*
X783D01*
X784Y111D01*
X785Y111D01*
X785Y111D01*
X786Y111D01*
X787Y110D01*
X788Y110D01*
X788D01*
X788Y110D01*
X788Y109D01*
X789Y109D01*
X789Y109D01*
X790Y108D01*
X790Y108D01*
X791Y107D01*
X791Y106D01*
Y106D01*
X791Y106D01*
X791Y106D01*
X792Y105D01*
X792Y105D01*
X792Y104D01*
X792Y103D01*
X792Y102D01*
X793Y101D01*
X793Y100D01*
Y100D01*
Y100D01*
Y100D01*
Y99D01*
X793Y99D01*
X793Y99D01*
X792Y98D01*
X792Y97D01*
X792Y96D01*
X791Y95D01*
X791Y94D01*
Y94D01*
X791Y93D01*
X791Y93D01*
X791Y93D01*
X790Y93D01*
X790Y92D01*
X789Y91D01*
X788Y91D01*
X787Y90D01*
X786Y89D01*
X786D01*
X786Y89D01*
X786Y89D01*
X786Y89D01*
X785Y89D01*
X785Y89D01*
X785Y89D01*
X784Y88D01*
X783Y88D01*
X782Y88D01*
X780Y88D01*
X779Y88D01*
X778D01*
X778Y88D01*
X778D01*
X777Y88D01*
X776Y88D01*
X775Y88D01*
X774Y89D01*
X772Y89D01*
X772D01*
X772Y89D01*
X772Y89D01*
X772Y89D01*
X771Y90D01*
X771Y90D01*
X770Y91D01*
X769Y91D01*
X768Y92D01*
X768Y93D01*
X772Y97D01*
X772Y97D01*
X772Y97D01*
X773Y96D01*
X773Y96D01*
X773Y96D01*
X774Y95D01*
X774Y95D01*
X775Y95D01*
X775Y94D01*
X775Y94D01*
X776Y94D01*
X776Y94D01*
X777Y94D01*
X777Y94D01*
X778Y94D01*
X778Y94D01*
X779D01*
X779Y94D01*
X779Y94D01*
X780Y94D01*
X781Y94D01*
X781Y94D01*
X782Y95D01*
X783Y95D01*
X783Y95D01*
X783Y96D01*
X783Y96D01*
X784Y97D01*
X784Y97D01*
X784Y98D01*
X784Y99D01*
X784Y100D01*
Y100D01*
Y100D01*
X784Y100D01*
Y101D01*
X784Y101D01*
X784Y102D01*
X784Y102D01*
X784Y103D01*
X784Y103D01*
X783Y104D01*
X783Y104D01*
X782Y105D01*
X782Y105D01*
X781Y105D01*
X781Y106D01*
X780Y106D01*
X779D01*
X779Y106D01*
X778Y106D01*
X778Y105D01*
X777Y105D01*
X776Y105D01*
X776Y105D01*
X770D01*
Y123D01*
X791D01*
X790Y117D01*
D02*
G37*
G36*
X1432Y45D02*
X1433D01*
X1434Y45D01*
X1435Y45D01*
X1436Y45D01*
X1437Y44D01*
X1438Y44D01*
X1438D01*
X1438Y44D01*
X1438Y44D01*
X1438Y44D01*
X1439Y43D01*
X1439Y43D01*
X1440Y43D01*
X1441Y42D01*
X1441Y41D01*
X1442Y40D01*
X1442Y40D01*
X1442Y40D01*
X1442Y40D01*
X1443Y39D01*
X1443Y38D01*
X1443Y37D01*
X1443Y36D01*
X1443Y35D01*
Y35D01*
Y35D01*
Y35D01*
Y35D01*
X1443Y34D01*
X1443Y34D01*
X1443Y33D01*
X1443Y32D01*
X1442Y31D01*
X1442Y30D01*
Y30D01*
X1442Y30D01*
X1442Y30D01*
X1442Y29D01*
X1442Y29D01*
X1441Y29D01*
X1441Y28D01*
X1440Y27D01*
X1440Y26D01*
X1439Y25D01*
X1438Y24D01*
X1438Y24D01*
X1438Y24D01*
X1437Y24D01*
X1437Y23D01*
X1437Y23D01*
X1437Y23D01*
X1436Y22D01*
X1436Y22D01*
X1435Y21D01*
X1434Y21D01*
X1434Y20D01*
X1433Y19D01*
X1432Y18D01*
X1431Y18D01*
X1430Y17D01*
X1429Y16D01*
X1444D01*
X1443Y10D01*
X1420D01*
Y15D01*
X1420Y15D01*
X1421Y16D01*
X1421Y16D01*
X1421Y16D01*
X1422Y17D01*
X1422Y17D01*
X1423Y18D01*
X1424Y19D01*
X1425Y20D01*
X1427Y22D01*
X1428Y23D01*
X1429Y24D01*
X1429Y25D01*
X1430Y25D01*
X1430Y25D01*
X1430Y25D01*
X1430Y25D01*
X1430Y26D01*
X1431Y26D01*
X1431Y27D01*
X1432Y28D01*
X1433Y28D01*
X1433Y29D01*
X1434Y30D01*
Y30D01*
X1434Y30D01*
X1434Y31D01*
X1434Y31D01*
X1435Y32D01*
X1435Y32D01*
X1435Y33D01*
X1435Y34D01*
X1435Y35D01*
Y35D01*
Y35D01*
Y35D01*
X1435Y35D01*
X1435Y36D01*
X1435Y36D01*
X1435Y37D01*
X1434Y38D01*
X1434Y38D01*
X1434Y38D01*
X1434Y38D01*
X1434Y38D01*
X1433Y39D01*
X1433Y39D01*
X1432Y39D01*
X1431Y39D01*
X1431Y39D01*
X1430D01*
X1430Y39D01*
X1429Y39D01*
X1429Y39D01*
X1428Y39D01*
X1428Y39D01*
X1427Y38D01*
X1427Y38D01*
X1427Y38D01*
X1427Y38D01*
X1426Y38D01*
X1426Y37D01*
X1425Y37D01*
X1425Y36D01*
X1424Y36D01*
X1420Y39D01*
X1420Y39D01*
X1420Y40D01*
X1420Y40D01*
X1420Y40D01*
X1420Y40D01*
X1421Y41D01*
X1422Y42D01*
X1423Y42D01*
X1423Y43D01*
X1424Y44D01*
X1425D01*
X1425Y44D01*
X1425Y44D01*
X1425Y44D01*
X1425Y44D01*
X1426Y44D01*
X1426Y44D01*
X1426Y45D01*
X1427Y45D01*
X1429Y45D01*
X1430Y45D01*
X1431Y45D01*
X1432D01*
X1432Y45D01*
D02*
G37*
G36*
X139Y246D02*
X145D01*
Y240D01*
X123D01*
Y246D01*
X131D01*
Y267D01*
X124Y262D01*
X120Y268D01*
X132Y275D01*
X139D01*
Y246D01*
D02*
G37*
G36*
X107Y259D02*
X117Y240D01*
X108D01*
X102Y253D01*
X96Y240D01*
X88D01*
X97Y258D01*
X88Y275D01*
X97D01*
X102Y264D01*
X108Y275D01*
X116D01*
X107Y259D01*
D02*
G37*
G36*
X754Y124D02*
X755D01*
X756Y124D01*
X757Y124D01*
X758Y124D01*
X759Y123D01*
X760Y123D01*
X760D01*
X760Y123D01*
X760Y123D01*
X760Y123D01*
X761Y123D01*
X761Y122D01*
X762Y122D01*
X763Y121D01*
X764Y121D01*
X765Y120D01*
X761Y115D01*
X761Y115D01*
X760Y115D01*
X760Y116D01*
X760Y116D01*
X760Y116D01*
X759Y116D01*
X759Y116D01*
X759Y117D01*
X758Y117D01*
X756Y118D01*
X755Y118D01*
X754Y118D01*
X754Y118D01*
X753D01*
X753Y118D01*
X753Y118D01*
X752Y118D01*
X752Y118D01*
X751Y117D01*
X750Y117D01*
X750Y117D01*
X749Y116D01*
X749Y116D01*
X748Y115D01*
X748Y115D01*
Y115D01*
X748Y115D01*
X748Y115D01*
X748Y114D01*
X747Y114D01*
X747Y114D01*
X747Y113D01*
X747Y113D01*
X747Y112D01*
X746Y111D01*
X746Y111D01*
X746Y110D01*
X746Y109D01*
X746Y108D01*
X746Y107D01*
X746Y106D01*
Y106D01*
Y106D01*
Y105D01*
X746Y105D01*
Y104D01*
X746Y104D01*
X746Y103D01*
X746Y102D01*
X746Y101D01*
X747Y100D01*
X747Y98D01*
X748Y97D01*
X748Y97D01*
X748Y97D01*
X748Y97D01*
X748Y97D01*
X748Y96D01*
X749Y96D01*
X749Y95D01*
X750Y95D01*
X751Y94D01*
X752Y94D01*
X752Y94D01*
X753Y94D01*
X754Y94D01*
X754D01*
X755Y94D01*
X755Y94D01*
X756Y94D01*
X756Y94D01*
X757Y95D01*
X758Y95D01*
X758Y95D01*
X758Y95D01*
X758Y95D01*
X759Y95D01*
X759Y96D01*
X760Y96D01*
X761Y97D01*
X761Y97D01*
X765Y92D01*
X765Y92D01*
X765Y92D01*
X765Y92D01*
X764Y92D01*
X764Y91D01*
X763Y91D01*
X763Y90D01*
X762Y90D01*
X761Y90D01*
X760Y89D01*
X759Y89D01*
X758Y88D01*
X757Y88D01*
X756Y88D01*
X755Y88D01*
X753Y88D01*
X753D01*
X753Y88D01*
X752D01*
X752Y88D01*
X751Y88D01*
X751Y88D01*
X749Y88D01*
X748Y89D01*
X746Y89D01*
X745Y90D01*
X745Y90D01*
X745Y90D01*
X745Y90D01*
X744Y90D01*
X744Y90D01*
X744Y91D01*
X743Y91D01*
X742Y92D01*
X741Y93D01*
X740Y94D01*
X739Y96D01*
Y96D01*
X739Y96D01*
X739Y96D01*
X739Y97D01*
X739Y97D01*
X739Y98D01*
X738Y98D01*
X738Y99D01*
X738Y99D01*
X738Y100D01*
X738Y101D01*
X738Y102D01*
X737Y103D01*
X737Y104D01*
X737Y106D01*
Y106D01*
Y106D01*
Y106D01*
X737Y107D01*
Y107D01*
X737Y108D01*
X737Y109D01*
X738Y109D01*
X738Y111D01*
X738Y112D01*
X739Y114D01*
X739Y116D01*
X739Y116D01*
X739Y116D01*
X740Y116D01*
X740Y116D01*
X740Y117D01*
X740Y117D01*
X741Y118D01*
X742Y119D01*
X743Y120D01*
X744Y121D01*
X745Y122D01*
X745Y122D01*
X745Y122D01*
X746Y122D01*
X746Y122D01*
X746Y122D01*
X747Y123D01*
X747Y123D01*
X748Y123D01*
X748Y123D01*
X749Y123D01*
X750Y124D01*
X752Y124D01*
X753Y124D01*
X754D01*
X754Y124D01*
D02*
G37*
G36*
X1234Y445D02*
Y445D01*
Y445D01*
Y444D01*
Y444D01*
X1234Y444D01*
Y443D01*
X1234Y443D01*
X1234Y442D01*
X1234Y440D01*
X1234Y439D01*
X1233Y438D01*
Y438D01*
X1233Y438D01*
X1233Y438D01*
X1233Y438D01*
X1232Y437D01*
X1232Y437D01*
X1231Y436D01*
X1231Y435D01*
X1230Y434D01*
X1229Y434D01*
X1229D01*
X1229Y434D01*
X1228Y434D01*
X1228Y434D01*
X1228Y433D01*
X1228Y433D01*
X1227Y433D01*
X1227Y433D01*
X1226Y433D01*
X1224Y432D01*
X1223Y432D01*
X1222Y432D01*
X1221D01*
X1221Y432D01*
X1220Y432D01*
X1219Y432D01*
X1219Y433D01*
X1218Y433D01*
X1216Y433D01*
X1216Y433D01*
X1215Y434D01*
X1214Y434D01*
X1213Y434D01*
X1213Y435D01*
X1212Y436D01*
X1212Y436D01*
X1212Y436D01*
X1212Y436D01*
X1211Y436D01*
X1211Y437D01*
X1211Y437D01*
X1211Y437D01*
X1210Y438D01*
X1210Y439D01*
X1210Y439D01*
X1209Y440D01*
X1209Y441D01*
X1209Y442D01*
X1209Y443D01*
X1209Y444D01*
X1209Y445D01*
Y468D01*
X1217D01*
Y448D01*
Y448D01*
Y448D01*
Y447D01*
Y447D01*
Y447D01*
Y447D01*
X1217Y446D01*
X1217Y445D01*
X1217Y444D01*
X1217Y443D01*
X1217Y442D01*
Y442D01*
X1217Y442D01*
X1217Y442D01*
X1218Y441D01*
X1218Y441D01*
X1218Y440D01*
X1218Y440D01*
X1219Y439D01*
X1219Y439D01*
X1219Y439D01*
X1219Y439D01*
X1219Y439D01*
X1220Y439D01*
X1220Y438D01*
X1221Y438D01*
X1222Y438D01*
X1222D01*
X1222Y438D01*
X1223Y438D01*
X1223Y439D01*
X1224Y439D01*
X1224Y439D01*
X1224Y439D01*
X1225Y439D01*
X1225Y440D01*
X1225Y440D01*
X1225Y440D01*
X1225Y441D01*
X1226Y441D01*
X1226Y442D01*
X1226Y442D01*
Y442D01*
X1226Y443D01*
X1226Y443D01*
X1226Y444D01*
X1226Y445D01*
X1226Y445D01*
X1226Y447D01*
Y448D01*
Y468D01*
X1234D01*
Y445D01*
D02*
G37*
G36*
X1614Y206D02*
X1597D01*
Y196D01*
X1597D01*
X1598Y196D01*
X1598Y196D01*
X1598Y196D01*
X1599Y196D01*
X1599Y197D01*
X1600Y197D01*
X1602Y197D01*
X1603Y197D01*
X1604Y197D01*
X1605D01*
X1605Y197D01*
X1606Y197D01*
X1607Y197D01*
X1608Y197D01*
X1610Y196D01*
X1611Y196D01*
X1611D01*
X1611Y195D01*
X1611Y195D01*
X1612Y195D01*
X1612Y194D01*
X1613Y193D01*
X1614Y193D01*
X1615Y192D01*
X1615Y190D01*
Y190D01*
X1616Y190D01*
X1616Y190D01*
X1616Y190D01*
X1616Y189D01*
X1616Y188D01*
X1617Y187D01*
X1617Y186D01*
X1617Y184D01*
X1617Y182D01*
Y182D01*
Y182D01*
Y182D01*
Y182D01*
X1617Y181D01*
X1617Y181D01*
X1617Y180D01*
X1617Y178D01*
X1616Y177D01*
X1616Y175D01*
X1615Y174D01*
Y174D01*
X1615Y174D01*
X1615Y174D01*
X1615Y173D01*
X1614Y173D01*
X1613Y172D01*
X1612Y171D01*
X1611Y170D01*
X1610Y169D01*
X1609Y168D01*
X1608D01*
X1608Y168D01*
X1608Y168D01*
X1608Y168D01*
X1607Y168D01*
X1607Y167D01*
X1606Y167D01*
X1606Y167D01*
X1604Y167D01*
X1603Y166D01*
X1601Y166D01*
X1599Y166D01*
X1598D01*
X1598Y166D01*
X1597D01*
X1596Y166D01*
X1595Y167D01*
X1593Y167D01*
X1592Y167D01*
X1590Y168D01*
X1590D01*
X1590Y168D01*
X1590Y168D01*
X1590Y168D01*
X1589Y169D01*
X1588Y169D01*
X1587Y170D01*
X1586Y171D01*
X1585Y172D01*
X1584Y173D01*
X1590Y179D01*
X1590Y178D01*
X1590Y178D01*
X1590Y178D01*
X1591Y177D01*
X1591Y177D01*
X1592Y176D01*
X1593Y176D01*
X1594Y175D01*
X1594Y175D01*
X1594Y175D01*
X1594Y175D01*
X1595Y175D01*
X1596Y174D01*
X1596Y174D01*
X1597Y174D01*
X1598Y174D01*
X1599D01*
X1599Y174D01*
X1600Y174D01*
X1600Y174D01*
X1601Y175D01*
X1602Y175D01*
X1603Y176D01*
X1604Y176D01*
X1604Y176D01*
X1604Y177D01*
X1605Y177D01*
X1605Y178D01*
X1606Y179D01*
X1606Y180D01*
X1606Y181D01*
X1606Y182D01*
Y182D01*
Y183D01*
X1606Y183D01*
Y183D01*
X1606Y184D01*
X1606Y185D01*
X1606Y185D01*
X1606Y186D01*
X1605Y187D01*
X1605Y188D01*
X1604Y188D01*
X1604Y189D01*
X1603Y189D01*
X1602Y190D01*
X1601Y190D01*
X1600Y190D01*
X1600D01*
X1599Y190D01*
X1598Y190D01*
X1597Y190D01*
X1596Y189D01*
X1595Y189D01*
X1594Y189D01*
X1587D01*
Y213D01*
X1615D01*
X1614Y206D01*
D02*
G37*
G36*
X1258Y439D02*
X1264D01*
Y433D01*
X1242D01*
Y439D01*
X1250D01*
Y460D01*
X1243Y455D01*
X1239Y461D01*
X1251Y468D01*
X1258D01*
Y439D01*
D02*
G37*
G36*
X1060Y124D02*
X1060D01*
X1061Y124D01*
X1062Y124D01*
X1063Y124D01*
X1064Y123D01*
X1065Y123D01*
X1065D01*
X1065Y123D01*
X1065Y123D01*
X1065Y123D01*
X1066Y123D01*
X1066Y122D01*
X1067Y122D01*
X1068Y121D01*
X1069Y121D01*
X1070Y120D01*
X1066Y115D01*
X1066Y115D01*
X1066Y115D01*
X1065Y116D01*
X1065Y116D01*
X1065Y116D01*
X1065Y116D01*
X1064Y116D01*
X1064Y117D01*
X1063Y117D01*
X1061Y118D01*
X1060Y118D01*
X1060Y118D01*
X1059Y118D01*
X1058D01*
X1058Y118D01*
X1058Y118D01*
X1058Y118D01*
X1057Y118D01*
X1056Y117D01*
X1055Y117D01*
X1055Y117D01*
X1054Y116D01*
X1054Y116D01*
X1054Y115D01*
X1053Y115D01*
Y115D01*
X1053Y115D01*
X1053Y115D01*
X1053Y114D01*
X1053Y114D01*
X1052Y114D01*
X1052Y113D01*
X1052Y113D01*
X1052Y112D01*
X1052Y111D01*
X1051Y111D01*
X1051Y110D01*
X1051Y109D01*
X1051Y108D01*
X1051Y107D01*
X1051Y106D01*
Y106D01*
Y106D01*
Y105D01*
X1051Y105D01*
Y104D01*
X1051Y104D01*
X1051Y103D01*
X1051Y102D01*
X1051Y101D01*
X1052Y100D01*
X1052Y98D01*
X1053Y97D01*
X1053Y97D01*
X1053Y97D01*
X1053Y97D01*
X1053Y97D01*
X1053Y96D01*
X1054Y96D01*
X1055Y95D01*
X1055Y95D01*
X1056Y94D01*
X1057Y94D01*
X1058Y94D01*
X1058Y94D01*
X1059Y94D01*
X1059D01*
X1060Y94D01*
X1060Y94D01*
X1061Y94D01*
X1062Y94D01*
X1062Y95D01*
X1063Y95D01*
X1063Y95D01*
X1063Y95D01*
X1064Y95D01*
X1064Y95D01*
X1065Y96D01*
X1065Y96D01*
X1066Y97D01*
X1066Y97D01*
X1070Y92D01*
X1070Y92D01*
X1070Y92D01*
X1070Y92D01*
X1069Y92D01*
X1069Y91D01*
X1068Y91D01*
X1068Y90D01*
X1067Y90D01*
X1066Y90D01*
X1065Y89D01*
X1064Y89D01*
X1063Y88D01*
X1062Y88D01*
X1061Y88D01*
X1060Y88D01*
X1059Y88D01*
X1058D01*
X1058Y88D01*
X1057D01*
X1057Y88D01*
X1056Y88D01*
X1056Y88D01*
X1054Y88D01*
X1053Y89D01*
X1052Y89D01*
X1050Y90D01*
X1050Y90D01*
X1050Y90D01*
X1050Y90D01*
X1050Y90D01*
X1049Y90D01*
X1049Y91D01*
X1048Y91D01*
X1047Y92D01*
X1046Y93D01*
X1045Y94D01*
X1044Y96D01*
Y96D01*
X1044Y96D01*
X1044Y96D01*
X1044Y97D01*
X1044Y97D01*
X1044Y98D01*
X1044Y98D01*
X1043Y99D01*
X1043Y99D01*
X1043Y100D01*
X1043Y101D01*
X1043Y102D01*
X1043Y103D01*
X1043Y104D01*
X1042Y106D01*
Y106D01*
Y106D01*
Y106D01*
X1042Y107D01*
Y107D01*
X1043Y108D01*
X1043Y109D01*
X1043Y109D01*
X1043Y111D01*
X1043Y112D01*
X1044Y114D01*
X1045Y116D01*
X1045Y116D01*
X1045Y116D01*
X1045Y116D01*
X1045Y116D01*
X1045Y117D01*
X1045Y117D01*
X1046Y118D01*
X1047Y119D01*
X1048Y120D01*
X1049Y121D01*
X1050Y122D01*
X1050Y122D01*
X1050Y122D01*
X1051Y122D01*
X1051Y122D01*
X1051Y122D01*
X1052Y123D01*
X1052Y123D01*
X1053Y123D01*
X1053Y123D01*
X1054Y123D01*
X1055Y124D01*
X1057Y124D01*
X1058Y124D01*
X1059D01*
X1060Y124D01*
D02*
G37*
G36*
X1089D02*
X1089D01*
X1090Y124D01*
X1090Y124D01*
X1091Y124D01*
X1092Y123D01*
X1093Y123D01*
X1095Y123D01*
X1095Y122D01*
X1096Y122D01*
X1093Y117D01*
X1093Y117D01*
X1092Y117D01*
X1092Y117D01*
X1091Y118D01*
X1091Y118D01*
X1090Y118D01*
X1089Y118D01*
X1088Y118D01*
X1088D01*
X1088Y118D01*
X1087Y118D01*
X1087Y118D01*
X1086Y118D01*
X1085Y117D01*
X1085Y117D01*
X1084Y117D01*
X1084Y116D01*
X1084Y116D01*
Y116D01*
X1083Y116D01*
X1083Y116D01*
X1083Y115D01*
X1083Y115D01*
X1083Y115D01*
X1083Y114D01*
X1083Y114D01*
X1082Y113D01*
X1082Y113D01*
X1082Y112D01*
X1082Y112D01*
X1082Y111D01*
X1082Y110D01*
X1082Y109D01*
X1081Y109D01*
X1082Y109D01*
X1082Y109D01*
X1082Y109D01*
X1082Y109D01*
X1083Y110D01*
X1084Y110D01*
X1084Y111D01*
X1085Y111D01*
X1085Y111D01*
X1085Y111D01*
X1086Y111D01*
X1086Y111D01*
X1087Y111D01*
X1087Y112D01*
X1088Y112D01*
X1089Y112D01*
X1089D01*
X1090Y112D01*
X1090Y112D01*
X1091Y111D01*
X1092Y111D01*
X1093Y111D01*
X1094Y110D01*
X1094D01*
X1094Y110D01*
X1094Y110D01*
X1094Y110D01*
X1095Y109D01*
X1095Y109D01*
X1096Y108D01*
X1097Y107D01*
X1097Y106D01*
Y106D01*
X1097Y106D01*
X1097Y106D01*
X1097Y106D01*
X1097Y106D01*
X1098Y105D01*
X1098Y105D01*
X1098Y104D01*
X1098Y103D01*
X1098Y102D01*
X1098Y100D01*
Y100D01*
Y100D01*
Y100D01*
Y100D01*
X1098Y99D01*
X1098Y99D01*
X1098Y98D01*
X1098Y97D01*
X1098Y96D01*
X1097Y95D01*
X1097Y94D01*
Y94D01*
X1097Y94D01*
X1097Y94D01*
X1097Y93D01*
X1096Y93D01*
X1096Y92D01*
X1095Y91D01*
X1094Y91D01*
X1094Y90D01*
X1093Y89D01*
X1093D01*
X1092Y89D01*
X1092Y89D01*
X1092Y89D01*
X1092Y89D01*
X1092Y89D01*
X1091Y88D01*
X1090Y88D01*
X1089Y88D01*
X1087Y88D01*
X1086Y88D01*
X1086D01*
X1086Y88D01*
X1085D01*
X1085Y88D01*
X1084Y88D01*
X1083Y88D01*
X1082Y88D01*
X1082Y88D01*
X1081Y89D01*
X1080Y89D01*
X1079Y90D01*
X1079Y90D01*
X1078Y91D01*
X1077Y91D01*
X1076Y92D01*
X1076Y92D01*
X1076Y92D01*
X1076Y93D01*
X1076Y93D01*
X1076Y94D01*
X1075Y94D01*
X1075Y95D01*
X1075Y95D01*
X1075Y96D01*
X1074Y97D01*
X1074Y98D01*
X1074Y99D01*
X1074Y100D01*
X1073Y102D01*
X1073Y103D01*
X1073Y104D01*
Y104D01*
Y104D01*
Y105D01*
X1073Y105D01*
Y106D01*
X1073Y106D01*
X1073Y107D01*
X1073Y108D01*
X1074Y108D01*
X1074Y109D01*
X1074Y111D01*
X1074Y113D01*
X1075Y114D01*
Y115D01*
X1075Y115D01*
X1075Y115D01*
X1075Y115D01*
X1076Y116D01*
X1076Y116D01*
X1076Y117D01*
X1077Y118D01*
X1078Y119D01*
X1079Y120D01*
X1080Y121D01*
X1080Y122D01*
X1080Y122D01*
X1081Y122D01*
X1081Y122D01*
X1081Y122D01*
X1082Y122D01*
X1082Y123D01*
X1083Y123D01*
X1083Y123D01*
X1084Y123D01*
X1085Y124D01*
X1087Y124D01*
X1087Y124D01*
X1088Y124D01*
X1089D01*
X1089Y124D01*
D02*
G37*
G36*
X912Y543D02*
Y543D01*
Y543D01*
Y543D01*
Y542D01*
X912Y542D01*
Y542D01*
X911Y541D01*
X911Y540D01*
X911Y539D01*
X911Y538D01*
X910Y537D01*
Y537D01*
X910Y537D01*
X910Y536D01*
X910Y536D01*
X910Y536D01*
X909Y535D01*
X908Y534D01*
X908Y534D01*
X907Y533D01*
X906Y532D01*
X906D01*
X906Y532D01*
X906Y532D01*
X905Y532D01*
X905Y532D01*
X905Y532D01*
X904Y532D01*
X904Y531D01*
X903Y531D01*
X902Y531D01*
X900Y531D01*
X899Y531D01*
X898D01*
X898Y531D01*
X897Y531D01*
X897Y531D01*
X896Y531D01*
X895Y531D01*
X894Y531D01*
X893Y532D01*
X892Y532D01*
X891Y532D01*
X890Y533D01*
X890Y533D01*
X889Y534D01*
X889Y534D01*
X889Y534D01*
X889Y534D01*
X889Y535D01*
X888Y535D01*
X888Y535D01*
X888Y536D01*
X887Y536D01*
X887Y537D01*
X887Y538D01*
X887Y538D01*
X886Y539D01*
X886Y540D01*
X886Y541D01*
X886Y542D01*
X886Y543D01*
Y566D01*
X894D01*
Y546D01*
Y546D01*
Y546D01*
Y546D01*
Y546D01*
Y545D01*
Y545D01*
X894Y544D01*
X894Y543D01*
X894Y542D01*
X894Y542D01*
X894Y541D01*
Y541D01*
X894Y540D01*
X895Y540D01*
X895Y540D01*
X895Y539D01*
X895Y539D01*
X895Y538D01*
X896Y538D01*
X896Y538D01*
X896Y538D01*
X896Y537D01*
X897Y537D01*
X897Y537D01*
X897Y537D01*
X898Y537D01*
X899Y537D01*
X899D01*
X899Y537D01*
X900Y537D01*
X900Y537D01*
X901Y537D01*
X901Y537D01*
X902Y538D01*
X902Y538D01*
X902Y538D01*
X902Y538D01*
X902Y539D01*
X902Y539D01*
X903Y539D01*
X903Y540D01*
X903Y541D01*
Y541D01*
X903Y541D01*
X903Y542D01*
X903Y542D01*
X903Y543D01*
X903Y544D01*
X903Y545D01*
Y546D01*
Y566D01*
X912D01*
Y543D01*
D02*
G37*
G36*
X667Y577D02*
X667D01*
X668Y577D01*
X669Y577D01*
X670Y576D01*
X671Y576D01*
X672Y576D01*
X672D01*
X672Y576D01*
X672Y576D01*
X672Y576D01*
X673Y576D01*
X674Y575D01*
X674Y575D01*
X675Y574D01*
X676Y574D01*
X677Y573D01*
X673Y568D01*
X673Y568D01*
X673Y568D01*
X673Y568D01*
X672Y569D01*
X672Y569D01*
X672Y569D01*
X671Y569D01*
X671Y570D01*
X670Y570D01*
X669Y570D01*
X667Y571D01*
X667Y571D01*
X666Y571D01*
X666D01*
X665Y571D01*
X665Y571D01*
X665Y571D01*
X664Y570D01*
X663Y570D01*
X663Y570D01*
X662Y570D01*
X662Y569D01*
X661Y569D01*
X661Y568D01*
X660Y568D01*
Y568D01*
X660Y568D01*
X660Y567D01*
X660Y567D01*
X660Y567D01*
X660Y567D01*
X659Y566D01*
X659Y566D01*
X659Y565D01*
X659Y564D01*
X659Y564D01*
X658Y563D01*
X658Y562D01*
X658Y561D01*
X658Y560D01*
X658Y559D01*
Y559D01*
Y558D01*
Y558D01*
X658Y558D01*
Y557D01*
X658Y557D01*
X658Y556D01*
X658Y555D01*
X659Y554D01*
X659Y552D01*
X660Y551D01*
X660Y550D01*
X660Y550D01*
X660Y550D01*
X660Y550D01*
X660Y549D01*
X661Y549D01*
X661Y549D01*
X662Y548D01*
X663Y548D01*
X664Y547D01*
X664Y547D01*
X665Y547D01*
X665Y547D01*
X666Y547D01*
X667D01*
X667Y547D01*
X668Y547D01*
X668Y547D01*
X669Y547D01*
X669Y547D01*
X670Y548D01*
X670Y548D01*
X670Y548D01*
X671Y548D01*
X671Y548D01*
X672Y549D01*
X672Y549D01*
X673Y549D01*
X674Y550D01*
X677Y545D01*
X677Y545D01*
X677Y545D01*
X677Y545D01*
X677Y544D01*
X676Y544D01*
X676Y544D01*
X675Y543D01*
X674Y543D01*
X673Y542D01*
X673Y542D01*
X672Y542D01*
X671Y541D01*
X669Y541D01*
X668Y541D01*
X667Y541D01*
X666Y540D01*
X665D01*
X665Y541D01*
X665D01*
X664Y541D01*
X663Y541D01*
X663Y541D01*
X662Y541D01*
X660Y541D01*
X659Y542D01*
X657Y543D01*
X657Y543D01*
X657Y543D01*
X657Y543D01*
X657Y543D01*
X656Y543D01*
X656Y543D01*
X655Y544D01*
X654Y545D01*
X653Y546D01*
X653Y547D01*
X652Y549D01*
Y549D01*
X652Y549D01*
X651Y549D01*
X651Y550D01*
X651Y550D01*
X651Y550D01*
X651Y551D01*
X651Y552D01*
X650Y552D01*
X650Y553D01*
X650Y554D01*
X650Y555D01*
X650Y556D01*
X650Y557D01*
X650Y559D01*
Y559D01*
Y559D01*
Y559D01*
X650Y560D01*
Y560D01*
X650Y561D01*
X650Y561D01*
X650Y562D01*
X650Y564D01*
X651Y565D01*
X651Y567D01*
X652Y568D01*
X652Y569D01*
X652Y569D01*
X652Y569D01*
X652Y569D01*
X652Y569D01*
X653Y570D01*
X653Y571D01*
X654Y572D01*
X655Y573D01*
X656Y574D01*
X658Y575D01*
X658Y575D01*
X658Y575D01*
X658Y575D01*
X658Y575D01*
X659Y575D01*
X659Y575D01*
X659Y576D01*
X660Y576D01*
X661Y576D01*
X661Y576D01*
X663Y577D01*
X664Y577D01*
X665Y577D01*
X666D01*
X667Y577D01*
D02*
G37*
G36*
X1293Y95D02*
X1293D01*
X1294Y94D01*
X1295Y94D01*
X1296Y94D01*
X1297Y94D01*
X1298Y93D01*
X1298D01*
X1298Y93D01*
X1298Y93D01*
X1299Y93D01*
X1299Y93D01*
X1300Y93D01*
X1300Y92D01*
X1301Y92D01*
X1302Y91D01*
X1302Y90D01*
X1302Y90D01*
X1303Y90D01*
X1303Y89D01*
X1303Y89D01*
X1303Y88D01*
X1304Y87D01*
X1304Y87D01*
X1304Y86D01*
Y86D01*
Y86D01*
Y85D01*
X1304Y85D01*
X1304Y85D01*
X1303Y84D01*
X1303Y83D01*
X1303Y82D01*
X1302Y81D01*
X1302Y80D01*
X1302Y80D01*
X1301Y80D01*
X1301Y80D01*
X1300Y79D01*
X1300Y79D01*
X1299Y78D01*
X1298Y78D01*
X1297Y77D01*
X1297D01*
X1297Y77D01*
X1297Y77D01*
X1298Y77D01*
X1298Y77D01*
X1299Y77D01*
X1300Y76D01*
X1301Y76D01*
X1301Y75D01*
X1302Y75D01*
X1303Y74D01*
X1304Y73D01*
X1304Y72D01*
X1304Y71D01*
X1305Y70D01*
X1305Y69D01*
Y69D01*
Y69D01*
Y69D01*
Y68D01*
X1305Y68D01*
X1305Y67D01*
X1304Y66D01*
X1304Y65D01*
X1304Y64D01*
X1303Y63D01*
Y63D01*
X1303Y63D01*
X1303Y63D01*
X1303Y63D01*
X1302Y62D01*
X1301Y61D01*
X1301Y61D01*
X1300Y60D01*
X1298Y60D01*
X1298D01*
X1298Y60D01*
X1298Y59D01*
X1298Y59D01*
X1298Y59D01*
X1297Y59D01*
X1297Y59D01*
X1296Y59D01*
X1295Y59D01*
X1294Y58D01*
X1293Y58D01*
X1291Y58D01*
X1291D01*
X1290Y58D01*
X1290D01*
X1289Y58D01*
X1288Y59D01*
X1287Y59D01*
X1286Y59D01*
X1285Y60D01*
X1284D01*
X1284Y60D01*
X1284Y60D01*
X1284Y60D01*
X1283Y60D01*
X1283Y61D01*
X1282Y61D01*
X1281Y62D01*
X1280Y63D01*
X1279Y63D01*
X1284Y68D01*
X1284Y68D01*
X1284Y67D01*
X1284Y67D01*
X1284Y67D01*
X1284Y67D01*
X1285Y67D01*
X1285Y66D01*
X1286Y66D01*
X1286Y66D01*
X1287Y65D01*
X1288Y65D01*
X1289Y65D01*
X1289Y64D01*
X1290Y64D01*
X1291Y64D01*
X1291D01*
X1292Y64D01*
X1292Y64D01*
X1293Y65D01*
X1294Y65D01*
X1294Y65D01*
X1295Y66D01*
X1295Y66D01*
X1295Y66D01*
X1296Y66D01*
X1296Y67D01*
X1296Y67D01*
X1296Y68D01*
X1297Y69D01*
X1297Y69D01*
Y69D01*
Y70D01*
X1297Y70D01*
X1297Y70D01*
X1296Y71D01*
X1296Y71D01*
X1296Y71D01*
X1296Y72D01*
X1296Y72D01*
X1295Y73D01*
X1295Y73D01*
X1294Y74D01*
X1294Y74D01*
X1293Y74D01*
X1292Y75D01*
X1291Y75D01*
X1288D01*
X1289Y80D01*
X1291D01*
X1292Y80D01*
X1292Y80D01*
X1293Y80D01*
X1293Y80D01*
X1294Y81D01*
X1295Y81D01*
X1295Y81D01*
X1295Y81D01*
X1295Y82D01*
X1295Y82D01*
X1296Y82D01*
X1296Y83D01*
X1296Y84D01*
X1296Y85D01*
Y85D01*
Y85D01*
X1296Y85D01*
X1296Y86D01*
X1296Y86D01*
X1295Y87D01*
X1295Y87D01*
X1295Y88D01*
X1295Y88D01*
X1294Y88D01*
X1294Y88D01*
X1294Y88D01*
X1293Y88D01*
X1293Y89D01*
X1292Y89D01*
X1291Y89D01*
X1291D01*
X1290Y89D01*
X1290Y89D01*
X1290Y89D01*
X1289Y88D01*
X1288Y88D01*
X1287Y88D01*
X1286Y87D01*
X1286Y87D01*
X1285Y87D01*
X1285Y86D01*
X1284Y86D01*
X1280Y90D01*
X1280Y90D01*
X1280Y90D01*
X1281Y90D01*
X1281Y91D01*
X1281Y91D01*
X1282Y91D01*
X1283Y92D01*
X1283Y92D01*
X1284Y93D01*
X1285Y93D01*
X1286Y94D01*
X1287Y94D01*
X1288Y94D01*
X1289Y94D01*
X1291Y95D01*
X1292Y95D01*
X1293D01*
X1293Y95D01*
D02*
G37*
G36*
X693Y577D02*
X693D01*
X694Y577D01*
X695Y577D01*
X696Y576D01*
X697Y576D01*
X698Y576D01*
X698D01*
X698Y575D01*
X698Y575D01*
X699Y575D01*
X699Y575D01*
X700Y575D01*
X700Y574D01*
X701Y573D01*
X702Y573D01*
X702Y572D01*
X702Y572D01*
X702Y571D01*
X703Y571D01*
X703Y570D01*
X703Y570D01*
X703Y569D01*
X704Y568D01*
X704Y567D01*
Y567D01*
Y567D01*
Y567D01*
Y566D01*
X704Y566D01*
X704Y565D01*
X703Y564D01*
X703Y563D01*
X703Y562D01*
X702Y561D01*
Y561D01*
X702Y561D01*
X702Y561D01*
X702Y561D01*
X702Y561D01*
X702Y560D01*
X701Y560D01*
X701Y559D01*
X700Y558D01*
X699Y557D01*
X698Y555D01*
X698Y555D01*
X698Y555D01*
X698Y555D01*
X698Y555D01*
X697Y555D01*
X697Y554D01*
X696Y554D01*
X696Y553D01*
X695Y553D01*
X695Y552D01*
X694Y551D01*
X693Y551D01*
X692Y550D01*
X692Y549D01*
X691Y548D01*
X690Y547D01*
X704D01*
X704Y541D01*
X681D01*
Y547D01*
X681Y547D01*
X681Y547D01*
X681Y547D01*
X682Y548D01*
X682Y548D01*
X683Y549D01*
X683Y550D01*
X684Y550D01*
X686Y552D01*
X687Y553D01*
X689Y555D01*
X689Y556D01*
X690Y556D01*
X690Y556D01*
X690Y556D01*
X690Y557D01*
X690Y557D01*
X691Y557D01*
X691Y557D01*
X692Y558D01*
X692Y559D01*
X693Y560D01*
X694Y561D01*
X694Y562D01*
Y562D01*
X694Y562D01*
X694Y562D01*
X695Y563D01*
X695Y563D01*
X695Y564D01*
X695Y565D01*
X696Y565D01*
X696Y566D01*
Y566D01*
Y566D01*
Y567D01*
X696Y567D01*
X695Y567D01*
X695Y568D01*
X695Y569D01*
X695Y569D01*
X694Y570D01*
X694Y570D01*
X694Y570D01*
X694Y570D01*
X694Y570D01*
X693Y570D01*
X692Y571D01*
X692Y571D01*
X691Y571D01*
X691D01*
X690Y571D01*
X690Y571D01*
X689Y571D01*
X689Y570D01*
X688Y570D01*
X688Y570D01*
X688Y570D01*
X687Y570D01*
X687Y570D01*
X687Y569D01*
X686Y569D01*
X686Y568D01*
X685Y568D01*
X685Y567D01*
X680Y571D01*
X680Y571D01*
X680Y571D01*
X680Y571D01*
X680Y571D01*
X681Y572D01*
X681Y573D01*
X682Y573D01*
X683Y574D01*
X684Y575D01*
X685Y575D01*
X685D01*
X685Y575D01*
X685Y575D01*
X685Y576D01*
X686Y576D01*
X686Y576D01*
X686Y576D01*
X687Y576D01*
X688Y576D01*
X689Y577D01*
X690Y577D01*
X692Y577D01*
X692D01*
X693Y577D01*
D02*
G37*
G36*
X581Y65D02*
X587D01*
Y59D01*
X565D01*
Y65D01*
X573D01*
Y86D01*
X566Y81D01*
X563Y87D01*
X574Y94D01*
X581D01*
Y65D01*
D02*
G37*
G36*
X549Y95D02*
X549D01*
X550Y95D01*
X551Y94D01*
X552Y94D01*
X553Y94D01*
X554Y94D01*
X554D01*
X554Y94D01*
X554Y94D01*
X554Y93D01*
X555Y93D01*
X555Y93D01*
X556Y93D01*
X557Y92D01*
X558Y91D01*
X559Y91D01*
X555Y86D01*
X555Y86D01*
X555Y86D01*
X554Y86D01*
X554Y86D01*
X554Y87D01*
X554Y87D01*
X553Y87D01*
X553Y87D01*
X552Y88D01*
X551Y88D01*
X549Y88D01*
X549Y88D01*
X548Y89D01*
X548D01*
X547Y88D01*
X547Y88D01*
X547Y88D01*
X546Y88D01*
X545Y88D01*
X544Y88D01*
X544Y87D01*
X543Y87D01*
X543Y87D01*
X543Y86D01*
X542Y86D01*
Y85D01*
X542Y85D01*
X542Y85D01*
X542Y85D01*
X542Y85D01*
X541Y84D01*
X541Y84D01*
X541Y83D01*
X541Y83D01*
X541Y82D01*
X540Y81D01*
X540Y80D01*
X540Y80D01*
X540Y79D01*
X540Y78D01*
X540Y76D01*
Y76D01*
Y76D01*
Y76D01*
X540Y75D01*
Y75D01*
X540Y74D01*
X540Y74D01*
X540Y73D01*
X541Y72D01*
X541Y70D01*
X541Y69D01*
X542Y68D01*
X542Y67D01*
X542Y67D01*
X542Y67D01*
X542Y67D01*
X543Y67D01*
X543Y67D01*
X544Y66D01*
X545Y65D01*
X546Y65D01*
X546Y65D01*
X547Y65D01*
X547Y65D01*
X548Y65D01*
X548D01*
X549Y65D01*
X549Y65D01*
X550Y65D01*
X551Y65D01*
X551Y65D01*
X552Y65D01*
X552Y65D01*
X552Y66D01*
X553Y66D01*
X553Y66D01*
X554Y66D01*
X554Y67D01*
X555Y67D01*
X556Y68D01*
X559Y63D01*
X559Y63D01*
X559Y63D01*
X559Y62D01*
X558Y62D01*
X558Y62D01*
X557Y61D01*
X557Y61D01*
X556Y61D01*
X555Y60D01*
X554Y60D01*
X553Y59D01*
X552Y59D01*
X551Y59D01*
X550Y58D01*
X549Y58D01*
X548Y58D01*
X547D01*
X547Y58D01*
X546D01*
X546Y58D01*
X545Y58D01*
X545Y58D01*
X543Y59D01*
X542Y59D01*
X541Y60D01*
X539Y60D01*
X539Y60D01*
X539Y60D01*
X539Y61D01*
X539Y61D01*
X538Y61D01*
X538Y61D01*
X537Y62D01*
X536Y63D01*
X535Y64D01*
X534Y65D01*
X534Y67D01*
Y67D01*
X533Y67D01*
X533Y67D01*
X533Y67D01*
X533Y68D01*
X533Y68D01*
X533Y69D01*
X533Y69D01*
X532Y70D01*
X532Y71D01*
X532Y72D01*
X532Y72D01*
X532Y73D01*
X532Y74D01*
X531Y76D01*
Y77D01*
Y77D01*
Y77D01*
X532Y77D01*
Y78D01*
X532Y78D01*
X532Y79D01*
X532Y80D01*
X532Y81D01*
X532Y83D01*
X533Y85D01*
X534Y86D01*
X534Y86D01*
X534Y86D01*
X534Y87D01*
X534Y87D01*
X534Y87D01*
X534Y88D01*
X535Y89D01*
X536Y90D01*
X537Y91D01*
X538Y92D01*
X539Y92D01*
X539Y93D01*
X540Y93D01*
X540Y93D01*
X540Y93D01*
X540Y93D01*
X541Y93D01*
X541Y93D01*
X542Y94D01*
X542Y94D01*
X543Y94D01*
X544Y94D01*
X546Y95D01*
X547Y95D01*
X548D01*
X549Y95D01*
D02*
G37*
G36*
X1267D02*
X1268D01*
X1268Y95D01*
X1269Y94D01*
X1270Y94D01*
X1271Y94D01*
X1272Y94D01*
X1272D01*
X1273Y94D01*
X1273Y94D01*
X1273Y93D01*
X1273Y93D01*
X1274Y93D01*
X1275Y93D01*
X1276Y92D01*
X1276Y91D01*
X1277Y91D01*
X1273Y86D01*
X1273Y86D01*
X1273Y86D01*
X1273Y86D01*
X1273Y86D01*
X1272Y87D01*
X1272Y87D01*
X1272Y87D01*
X1271Y87D01*
X1270Y88D01*
X1269Y88D01*
X1268Y88D01*
X1267Y88D01*
X1266Y89D01*
X1266D01*
X1266Y88D01*
X1265Y88D01*
X1265Y88D01*
X1264Y88D01*
X1263Y88D01*
X1263Y88D01*
X1263Y87D01*
X1262Y87D01*
X1262Y87D01*
X1261Y86D01*
X1261Y86D01*
Y85D01*
X1261Y85D01*
X1260Y85D01*
X1260Y85D01*
X1260Y85D01*
X1260Y84D01*
X1260Y84D01*
X1260Y83D01*
X1259Y83D01*
X1259Y82D01*
X1259Y81D01*
X1259Y80D01*
X1259Y80D01*
X1259Y79D01*
X1259Y78D01*
X1258Y76D01*
Y76D01*
Y76D01*
Y76D01*
X1259Y75D01*
Y75D01*
X1259Y74D01*
X1259Y74D01*
X1259Y73D01*
X1259Y72D01*
X1259Y70D01*
X1260Y69D01*
X1260Y68D01*
X1261Y67D01*
X1261Y67D01*
X1261Y67D01*
X1261Y67D01*
X1261Y67D01*
X1262Y67D01*
X1262Y66D01*
X1263Y65D01*
X1264Y65D01*
X1265Y65D01*
X1265Y65D01*
X1266Y65D01*
X1267Y65D01*
X1267D01*
X1267Y65D01*
X1268Y65D01*
X1269Y65D01*
X1269Y65D01*
X1270Y65D01*
X1270Y65D01*
X1271Y65D01*
X1271Y66D01*
X1271Y66D01*
X1272Y66D01*
X1272Y66D01*
X1273Y67D01*
X1273Y67D01*
X1274Y68D01*
X1278Y63D01*
X1278Y63D01*
X1278Y63D01*
X1277Y62D01*
X1277Y62D01*
X1276Y62D01*
X1276Y61D01*
X1275Y61D01*
X1275Y61D01*
X1274Y60D01*
X1273Y60D01*
X1272Y59D01*
X1271Y59D01*
X1270Y59D01*
X1269Y58D01*
X1267Y58D01*
X1266Y58D01*
X1266D01*
X1265Y58D01*
X1265D01*
X1264Y58D01*
X1264Y58D01*
X1263Y58D01*
X1262Y59D01*
X1261Y59D01*
X1259Y60D01*
X1258Y60D01*
X1258Y60D01*
X1258Y60D01*
X1257Y61D01*
X1257Y61D01*
X1257Y61D01*
X1256Y61D01*
X1256Y62D01*
X1255Y63D01*
X1254Y64D01*
X1253Y65D01*
X1252Y67D01*
Y67D01*
X1252Y67D01*
X1252Y67D01*
X1252Y67D01*
X1252Y68D01*
X1251Y68D01*
X1251Y69D01*
X1251Y69D01*
X1251Y70D01*
X1251Y71D01*
X1250Y72D01*
X1250Y72D01*
X1250Y73D01*
X1250Y74D01*
X1250Y76D01*
Y77D01*
Y77D01*
Y77D01*
X1250Y77D01*
Y78D01*
X1250Y78D01*
X1250Y79D01*
X1250Y80D01*
X1250Y81D01*
X1251Y83D01*
X1251Y85D01*
X1252Y86D01*
X1252Y86D01*
X1252Y86D01*
X1252Y87D01*
X1253Y87D01*
X1253Y87D01*
X1253Y88D01*
X1254Y89D01*
X1254Y90D01*
X1255Y91D01*
X1257Y92D01*
X1258Y92D01*
X1258Y93D01*
X1258Y93D01*
X1258Y93D01*
X1259Y93D01*
X1259Y93D01*
X1259Y93D01*
X1260Y93D01*
X1260Y94D01*
X1261Y94D01*
X1262Y94D01*
X1263Y94D01*
X1265Y95D01*
X1265Y95D01*
X1267D01*
X1267Y95D01*
D02*
G37*
G36*
X825Y35D02*
X831D01*
Y29D01*
X809D01*
Y35D01*
X817D01*
Y56D01*
X810Y52D01*
X807Y57D01*
X818Y64D01*
X825D01*
Y35D01*
D02*
G37*
G36*
X928Y567D02*
X929D01*
X930Y567D01*
X931Y567D01*
X932Y566D01*
X933Y566D01*
X934Y566D01*
X934D01*
X934Y566D01*
X934Y566D01*
X934Y565D01*
X935Y565D01*
X936Y565D01*
X936Y564D01*
X937Y564D01*
X938Y563D01*
X938Y562D01*
X938Y562D01*
X938Y562D01*
X939Y561D01*
X939Y561D01*
X939Y560D01*
X939Y559D01*
X939Y558D01*
X939Y557D01*
Y557D01*
Y557D01*
Y557D01*
Y557D01*
X939Y556D01*
X939Y555D01*
X939Y554D01*
X939Y554D01*
X939Y553D01*
X938Y552D01*
Y552D01*
X938Y551D01*
X938Y551D01*
X938Y551D01*
X938Y551D01*
X938Y551D01*
X937Y550D01*
X937Y549D01*
X936Y548D01*
X935Y547D01*
X934Y546D01*
X934Y546D01*
X934Y545D01*
X934Y545D01*
X933Y545D01*
X933Y545D01*
X933Y544D01*
X932Y544D01*
X932Y543D01*
X931Y543D01*
X931Y542D01*
X930Y542D01*
X929Y541D01*
X928Y540D01*
X927Y539D01*
X926Y538D01*
X925Y538D01*
X940D01*
X939Y531D01*
X916D01*
Y537D01*
X916Y537D01*
X917Y537D01*
X917Y538D01*
X917Y538D01*
X918Y539D01*
X919Y539D01*
X919Y540D01*
X920Y540D01*
X921Y542D01*
X923Y543D01*
X924Y545D01*
X925Y546D01*
X926Y546D01*
X926Y546D01*
X926Y546D01*
X926Y547D01*
X926Y547D01*
X926Y547D01*
X927Y548D01*
X927Y548D01*
X928Y549D01*
X929Y550D01*
X929Y551D01*
X930Y552D01*
Y552D01*
X930Y552D01*
X930Y552D01*
X930Y553D01*
X931Y553D01*
X931Y554D01*
X931Y555D01*
X931Y556D01*
X931Y556D01*
Y556D01*
Y556D01*
Y557D01*
X931Y557D01*
X931Y558D01*
X931Y558D01*
X931Y559D01*
X931Y559D01*
X930Y560D01*
X930Y560D01*
X930Y560D01*
X930Y560D01*
X929Y560D01*
X929Y561D01*
X928Y561D01*
X928Y561D01*
X927Y561D01*
X926D01*
X926Y561D01*
X926Y561D01*
X925Y561D01*
X925Y561D01*
X924Y560D01*
X923Y560D01*
X923Y560D01*
X923Y560D01*
X923Y560D01*
X922Y559D01*
X922Y559D01*
X922Y559D01*
X921Y558D01*
X921Y557D01*
X916Y561D01*
X916Y561D01*
X916Y561D01*
X916Y561D01*
X916Y562D01*
X917Y562D01*
X917Y563D01*
X918Y563D01*
X919Y564D01*
X920Y565D01*
X921Y565D01*
X921D01*
X921Y566D01*
X921Y566D01*
X921Y566D01*
X921Y566D01*
X922Y566D01*
X922Y566D01*
X923Y566D01*
X924Y567D01*
X925Y567D01*
X926Y567D01*
X928Y567D01*
X928D01*
X928Y567D01*
D02*
G37*
G36*
X789Y64D02*
X789Y64D01*
X790Y64D01*
X791Y64D01*
X792Y64D01*
X793Y63D01*
X795Y63D01*
X796Y63D01*
X797Y62D01*
X798Y62D01*
X798Y61D01*
X798Y61D01*
X798Y61D01*
X799Y61D01*
X799Y61D01*
X799Y61D01*
X799Y60D01*
X800Y60D01*
X800Y60D01*
X800Y59D01*
X801Y58D01*
X801Y58D01*
X801Y57D01*
X801Y56D01*
X802Y55D01*
X802Y54D01*
X802Y54D01*
Y53D01*
Y53D01*
Y53D01*
X802Y53D01*
Y53D01*
X802Y52D01*
X802Y51D01*
X801Y51D01*
X801Y50D01*
X801Y49D01*
X800Y48D01*
Y48D01*
X800Y48D01*
X800Y47D01*
X799Y47D01*
X799Y46D01*
X798Y46D01*
X797Y45D01*
X796Y45D01*
X795Y44D01*
X804Y29D01*
X795D01*
X787Y43D01*
X785D01*
Y29D01*
X777D01*
Y64D01*
X788D01*
X789Y64D01*
D02*
G37*
G36*
X1169Y574D02*
X1161Y555D01*
X1167D01*
X1168Y563D01*
X1175D01*
Y555D01*
X1178D01*
Y549D01*
X1175D01*
Y541D01*
X1167D01*
X1167Y549D01*
X1153D01*
Y554D01*
X1162Y577D01*
X1169Y574D01*
D02*
G37*
G36*
X1139Y577D02*
X1140D01*
X1140Y577D01*
X1141Y577D01*
X1142Y576D01*
X1143Y576D01*
X1144Y576D01*
X1144D01*
X1145Y576D01*
X1145Y576D01*
X1145Y576D01*
X1145Y576D01*
X1146Y575D01*
X1147Y575D01*
X1148Y574D01*
X1148Y574D01*
X1149Y573D01*
X1145Y568D01*
X1145Y568D01*
X1145Y568D01*
X1145Y568D01*
X1145Y569D01*
X1144Y569D01*
X1144Y569D01*
X1144Y569D01*
X1143Y570D01*
X1142Y570D01*
X1141Y570D01*
X1140Y571D01*
X1139Y571D01*
X1138Y571D01*
X1138D01*
X1138Y571D01*
X1138Y571D01*
X1137Y571D01*
X1136Y570D01*
X1135Y570D01*
X1135Y570D01*
X1135Y570D01*
X1134Y569D01*
X1134Y569D01*
X1133Y568D01*
X1133Y568D01*
Y568D01*
X1133Y568D01*
X1132Y567D01*
X1132Y567D01*
X1132Y567D01*
X1132Y567D01*
X1132Y566D01*
X1132Y566D01*
X1131Y565D01*
X1131Y564D01*
X1131Y564D01*
X1131Y563D01*
X1131Y562D01*
X1131Y561D01*
X1131Y560D01*
X1131Y559D01*
Y559D01*
Y558D01*
Y558D01*
X1131Y558D01*
Y557D01*
X1131Y557D01*
X1131Y556D01*
X1131Y555D01*
X1131Y554D01*
X1131Y552D01*
X1132Y551D01*
X1132Y550D01*
X1133Y550D01*
X1133Y550D01*
X1133Y550D01*
X1133Y549D01*
X1133Y549D01*
X1134Y549D01*
X1134Y548D01*
X1135Y548D01*
X1136Y547D01*
X1137Y547D01*
X1137Y547D01*
X1138Y547D01*
X1139Y547D01*
X1139D01*
X1139Y547D01*
X1140Y547D01*
X1141Y547D01*
X1141Y547D01*
X1142Y547D01*
X1143Y548D01*
X1143Y548D01*
X1143Y548D01*
X1143Y548D01*
X1144Y548D01*
X1144Y549D01*
X1145Y549D01*
X1145Y549D01*
X1146Y550D01*
X1150Y545D01*
X1150Y545D01*
X1150Y545D01*
X1149Y545D01*
X1149Y544D01*
X1148Y544D01*
X1148Y544D01*
X1147Y543D01*
X1147Y543D01*
X1146Y542D01*
X1145Y542D01*
X1144Y542D01*
X1143Y541D01*
X1142Y541D01*
X1141Y541D01*
X1139Y541D01*
X1138Y540D01*
X1138D01*
X1137Y541D01*
X1137D01*
X1136Y541D01*
X1136Y541D01*
X1135Y541D01*
X1134Y541D01*
X1133Y541D01*
X1131Y542D01*
X1130Y543D01*
X1130Y543D01*
X1130Y543D01*
X1129Y543D01*
X1129Y543D01*
X1129Y543D01*
X1128Y543D01*
X1128Y544D01*
X1127Y545D01*
X1126Y546D01*
X1125Y547D01*
X1124Y549D01*
Y549D01*
X1124Y549D01*
X1124Y549D01*
X1124Y550D01*
X1124Y550D01*
X1123Y550D01*
X1123Y551D01*
X1123Y552D01*
X1123Y552D01*
X1123Y553D01*
X1123Y554D01*
X1122Y555D01*
X1122Y556D01*
X1122Y557D01*
X1122Y559D01*
Y559D01*
Y559D01*
Y559D01*
X1122Y560D01*
Y560D01*
X1122Y561D01*
X1122Y561D01*
X1122Y562D01*
X1123Y564D01*
X1123Y565D01*
X1123Y567D01*
X1124Y568D01*
X1124Y569D01*
X1124Y569D01*
X1124Y569D01*
X1125Y569D01*
X1125Y569D01*
X1125Y570D01*
X1126Y571D01*
X1126Y572D01*
X1127Y573D01*
X1129Y574D01*
X1130Y575D01*
X1130Y575D01*
X1130Y575D01*
X1130Y575D01*
X1131Y575D01*
X1131Y575D01*
X1131Y575D01*
X1132Y576D01*
X1132Y576D01*
X1133Y576D01*
X1134Y576D01*
X1135Y577D01*
X1137Y577D01*
X1137Y577D01*
X1139D01*
X1139Y577D01*
D02*
G37*
G36*
X709Y10D02*
X699D01*
Y37D01*
X691D01*
X691Y33D01*
Y33D01*
Y33D01*
X691Y32D01*
Y32D01*
X691Y31D01*
X691Y30D01*
X691Y29D01*
X691Y28D01*
X690Y26D01*
X690Y24D01*
X690Y22D01*
X690Y21D01*
X689Y20D01*
Y20D01*
X689Y20D01*
X689Y20D01*
X689Y20D01*
X689Y19D01*
X689Y19D01*
X689Y18D01*
X688Y17D01*
X688Y15D01*
X687Y14D01*
X686Y13D01*
X686Y13D01*
X686Y13D01*
X685Y12D01*
X684Y12D01*
X683Y11D01*
X682Y10D01*
X681Y9D01*
X679Y8D01*
X675Y15D01*
X675Y15D01*
X675Y15D01*
X676Y16D01*
X676Y16D01*
X677Y16D01*
X677Y17D01*
X678Y17D01*
X678Y18D01*
X678Y18D01*
X678Y18D01*
X678Y19D01*
X679Y19D01*
X679Y20D01*
X679Y21D01*
X680Y22D01*
X680Y23D01*
Y23D01*
X680Y23D01*
Y23D01*
X680Y24D01*
X680Y24D01*
X680Y24D01*
X680Y25D01*
X680Y25D01*
X680Y26D01*
X680Y27D01*
X681Y28D01*
X681Y28D01*
X681Y29D01*
X681Y30D01*
X681Y32D01*
X681Y33D01*
X682Y45D01*
X709D01*
Y10D01*
D02*
G37*
G36*
X670D02*
X660D01*
Y21D01*
Y21D01*
Y21D01*
Y22D01*
Y22D01*
X660Y23D01*
Y24D01*
X660Y25D01*
X660Y26D01*
X660Y27D01*
X660Y28D01*
X660Y31D01*
X661Y33D01*
X661Y36D01*
X650Y10D01*
X639D01*
Y45D01*
X649D01*
Y34D01*
Y34D01*
Y33D01*
Y33D01*
Y32D01*
X649Y32D01*
Y31D01*
X649Y30D01*
X649Y29D01*
X648Y28D01*
X648Y27D01*
X648Y24D01*
X648Y21D01*
X647Y19D01*
X659Y45D01*
X670D01*
Y10D01*
D02*
G37*
G36*
X1645Y487D02*
X1655D01*
Y479D01*
X1645D01*
Y469D01*
X1636D01*
Y479D01*
X1626D01*
Y487D01*
X1636D01*
Y498D01*
X1645D01*
Y487D01*
D02*
G37*
G36*
X1653Y381D02*
X1627D01*
Y389D01*
X1653D01*
Y381D01*
D02*
G37*
G36*
X1597Y509D02*
X1598Y509D01*
X1599Y508D01*
X1600Y508D01*
X1601Y508D01*
X1603Y508D01*
X1604Y507D01*
X1605Y507D01*
X1607Y507D01*
X1608Y506D01*
X1610Y505D01*
X1611Y505D01*
X1612Y504D01*
X1612Y504D01*
X1612Y504D01*
X1613Y503D01*
X1613Y503D01*
X1614Y502D01*
X1614Y502D01*
X1615Y501D01*
X1615Y500D01*
X1616Y499D01*
X1617Y497D01*
X1617Y496D01*
X1618Y494D01*
X1618Y492D01*
X1618Y490D01*
X1618Y488D01*
X1619Y486D01*
Y486D01*
Y486D01*
Y485D01*
X1618Y485D01*
Y484D01*
X1618Y484D01*
X1618Y483D01*
X1618Y482D01*
X1618Y481D01*
X1618Y480D01*
X1617Y478D01*
X1617Y476D01*
X1616Y474D01*
X1615Y473D01*
X1615Y472D01*
X1614Y471D01*
X1613Y470D01*
X1612Y469D01*
X1611Y468D01*
X1610Y467D01*
X1609Y466D01*
X1608Y465D01*
X1607Y465D01*
X1605Y464D01*
X1604Y463D01*
X1602Y463D01*
X1600Y463D01*
X1598Y463D01*
X1596Y462D01*
X1584D01*
Y509D01*
X1596D01*
X1597Y509D01*
D02*
G37*
G36*
X1163Y10D02*
X1153D01*
Y21D01*
Y21D01*
Y21D01*
Y22D01*
Y22D01*
X1153Y23D01*
Y24D01*
X1153Y25D01*
X1153Y26D01*
X1153Y27D01*
X1153Y28D01*
X1154Y31D01*
X1154Y33D01*
X1155Y36D01*
X1143Y10D01*
X1132D01*
Y45D01*
X1142D01*
Y34D01*
Y34D01*
Y33D01*
Y33D01*
Y32D01*
X1142Y32D01*
Y31D01*
X1142Y30D01*
X1142Y29D01*
X1142Y28D01*
X1142Y27D01*
X1141Y24D01*
X1141Y21D01*
X1140Y19D01*
X1152Y45D01*
X1163D01*
Y10D01*
D02*
G37*
G36*
X489Y517D02*
Y489D01*
X482Y481D01*
X472D01*
Y473D01*
X470D01*
Y459D01*
Y459D01*
Y458D01*
X470Y457D01*
X471Y456D01*
X471Y455D01*
X471Y453D01*
X472Y452D01*
X473Y450D01*
X473Y450D01*
X474Y450D01*
X474Y449D01*
X475Y449D01*
X476Y448D01*
X478Y448D01*
X479Y447D01*
X481Y447D01*
X482D01*
X482Y447D01*
X483Y448D01*
X485Y448D01*
X486Y449D01*
X487Y449D01*
X488Y451D01*
X488Y451D01*
X489Y451D01*
X489Y452D01*
X490Y453D01*
X490Y454D01*
X491Y455D01*
X491Y457D01*
X491Y459D01*
Y465D01*
Y465D01*
Y465D01*
Y466D01*
X492Y466D01*
Y467D01*
X492Y468D01*
X492Y470D01*
X493Y472D01*
X494Y474D01*
X495Y477D01*
X496Y478D01*
X497Y479D01*
X497Y479D01*
X497Y479D01*
X498Y480D01*
X499Y481D01*
X501Y482D01*
X503Y483D01*
X505Y484D01*
X508Y484D01*
X509Y485D01*
X511D01*
X512Y484D01*
X513D01*
X513Y484D01*
X515Y484D01*
X517Y483D01*
X520Y482D01*
X522Y481D01*
X523Y480D01*
X524Y479D01*
X524Y479D01*
X524Y479D01*
X525Y478D01*
X525Y478D01*
X526Y477D01*
X527Y475D01*
X528Y473D01*
X529Y470D01*
X529Y468D01*
X530Y466D01*
Y465D01*
Y433D01*
X521D01*
Y465D01*
Y465D01*
Y466D01*
X521Y466D01*
X521Y468D01*
X520Y469D01*
X520Y470D01*
X519Y472D01*
X518Y473D01*
X518Y473D01*
X518Y473D01*
X517Y474D01*
X516Y475D01*
X515Y475D01*
X514Y476D01*
X512Y476D01*
X511Y476D01*
X510D01*
X509Y476D01*
X508Y476D01*
X507Y475D01*
X505Y475D01*
X504Y474D01*
X503Y473D01*
X503Y473D01*
X502Y472D01*
X502Y472D01*
X501Y471D01*
X501Y469D01*
X500Y468D01*
X500Y466D01*
X500Y465D01*
Y459D01*
Y459D01*
Y458D01*
Y458D01*
X500Y457D01*
Y457D01*
X500Y456D01*
X499Y454D01*
X499Y452D01*
X498Y449D01*
X496Y447D01*
X495Y446D01*
X494Y445D01*
X494Y444D01*
X493Y444D01*
X492Y443D01*
X491Y442D01*
X489Y441D01*
X486Y440D01*
X484Y439D01*
X482Y439D01*
X481Y439D01*
X480D01*
X479Y439D01*
X479D01*
X478Y439D01*
X476Y440D01*
X474Y440D01*
X472Y441D01*
X469Y443D01*
X468Y444D01*
X467Y445D01*
Y445D01*
X467Y445D01*
X467Y445D01*
X466Y446D01*
X465Y447D01*
X465Y449D01*
X464Y451D01*
X463Y453D01*
X462Y456D01*
X462Y457D01*
X462Y459D01*
Y473D01*
X460D01*
Y481D01*
X450D01*
X443Y489D01*
Y517D01*
X450Y525D01*
X482D01*
X489Y517D01*
D02*
G37*
G36*
X1083Y10D02*
X1073D01*
Y21D01*
Y21D01*
Y21D01*
Y22D01*
Y22D01*
X1073Y23D01*
Y24D01*
X1073Y25D01*
X1073Y26D01*
X1073Y27D01*
X1073Y28D01*
X1074Y31D01*
X1074Y33D01*
X1075Y36D01*
X1063Y10D01*
X1052D01*
Y45D01*
X1062D01*
Y34D01*
Y34D01*
Y33D01*
Y33D01*
Y32D01*
X1062Y32D01*
Y31D01*
X1062Y30D01*
X1062Y29D01*
X1062Y28D01*
X1062Y27D01*
X1061Y24D01*
X1061Y21D01*
X1060Y19D01*
X1072Y45D01*
X1083D01*
Y10D01*
D02*
G37*
G36*
X749D02*
X739D01*
Y21D01*
Y21D01*
Y21D01*
Y22D01*
Y22D01*
X740Y23D01*
Y24D01*
X740Y25D01*
X740Y26D01*
X740Y27D01*
X740Y28D01*
X740Y31D01*
X741Y33D01*
X741Y36D01*
X730Y10D01*
X719D01*
Y45D01*
X729D01*
Y34D01*
Y34D01*
Y33D01*
Y33D01*
Y32D01*
X729Y32D01*
Y31D01*
X729Y30D01*
X729Y29D01*
X728Y28D01*
X728Y27D01*
X728Y24D01*
X728Y21D01*
X727Y19D01*
X738Y45D01*
X749D01*
Y10D01*
D02*
G37*
G36*
X1123D02*
X1112D01*
Y37D01*
X1105D01*
X1104Y33D01*
Y33D01*
Y33D01*
X1104Y32D01*
Y32D01*
X1104Y31D01*
X1104Y30D01*
X1104Y29D01*
X1104Y28D01*
X1104Y26D01*
X1104Y24D01*
X1103Y22D01*
X1103Y21D01*
X1103Y20D01*
Y20D01*
X1103Y20D01*
X1103Y20D01*
X1103Y20D01*
X1103Y19D01*
X1102Y19D01*
X1102Y18D01*
X1102Y17D01*
X1101Y15D01*
X1100Y14D01*
X1099Y13D01*
X1099Y13D01*
X1099Y13D01*
X1099Y12D01*
X1098Y12D01*
X1097Y11D01*
X1096Y10D01*
X1094Y9D01*
X1093Y8D01*
X1088Y15D01*
X1089Y15D01*
X1089Y15D01*
X1089Y16D01*
X1090Y16D01*
X1090Y16D01*
X1090Y17D01*
X1091Y17D01*
X1091Y18D01*
X1091Y18D01*
X1092Y18D01*
X1092Y19D01*
X1092Y19D01*
X1092Y20D01*
X1093Y21D01*
X1093Y22D01*
X1093Y23D01*
Y23D01*
X1093Y23D01*
Y23D01*
X1093Y24D01*
X1093Y24D01*
X1093Y24D01*
X1094Y25D01*
X1094Y25D01*
X1094Y26D01*
X1094Y27D01*
X1094Y28D01*
X1094Y28D01*
X1094Y29D01*
X1094Y30D01*
X1094Y32D01*
X1094Y33D01*
X1095Y45D01*
X1123D01*
Y10D01*
D02*
G37*
G36*
X1602Y313D02*
X1602D01*
X1604Y313D01*
X1605Y313D01*
X1606Y312D01*
X1608Y312D01*
X1609Y311D01*
X1609D01*
X1609Y311D01*
X1609Y311D01*
X1610Y311D01*
X1610Y311D01*
X1611Y310D01*
X1612Y310D01*
X1613Y309D01*
X1614Y308D01*
X1614Y307D01*
X1615Y307D01*
X1615Y307D01*
X1615Y306D01*
X1615Y305D01*
X1616Y304D01*
X1616Y303D01*
X1616Y302D01*
X1616Y301D01*
Y301D01*
Y301D01*
Y301D01*
X1616Y300D01*
X1616Y300D01*
X1616Y299D01*
X1616Y298D01*
X1615Y296D01*
X1615Y295D01*
X1614Y294D01*
X1614Y294D01*
X1613Y294D01*
X1613Y293D01*
X1612Y293D01*
X1611Y292D01*
X1610Y291D01*
X1609Y291D01*
X1607Y290D01*
X1607D01*
X1607Y290D01*
X1608Y290D01*
X1609Y290D01*
X1609Y289D01*
X1610Y289D01*
X1611Y289D01*
X1612Y288D01*
X1613Y287D01*
X1614Y287D01*
X1615Y286D01*
X1616Y285D01*
X1617Y283D01*
X1617Y282D01*
X1618Y280D01*
X1618Y279D01*
Y279D01*
Y278D01*
Y278D01*
Y278D01*
X1618Y277D01*
X1618Y276D01*
X1617Y275D01*
X1617Y274D01*
X1616Y273D01*
X1616Y271D01*
Y271D01*
X1616Y271D01*
X1615Y271D01*
X1615Y270D01*
X1614Y270D01*
X1613Y269D01*
X1612Y268D01*
X1611Y267D01*
X1609Y266D01*
X1609D01*
X1609Y266D01*
X1609Y266D01*
X1609Y266D01*
X1608Y266D01*
X1608Y266D01*
X1607Y266D01*
X1607Y265D01*
X1605Y265D01*
X1604Y265D01*
X1602Y265D01*
X1600Y265D01*
X1599D01*
X1599Y265D01*
X1598D01*
X1597Y265D01*
X1596Y265D01*
X1594Y265D01*
X1592Y266D01*
X1591Y266D01*
X1591D01*
X1591Y266D01*
X1590Y267D01*
X1590Y267D01*
X1589Y267D01*
X1588Y268D01*
X1587Y268D01*
X1586Y269D01*
X1585Y270D01*
X1584Y271D01*
X1590Y277D01*
X1590Y277D01*
X1590Y277D01*
X1590Y277D01*
X1590Y276D01*
X1591Y276D01*
X1591Y276D01*
X1592Y275D01*
X1592Y275D01*
X1593Y274D01*
X1594Y274D01*
X1595Y273D01*
X1596Y273D01*
X1597Y273D01*
X1598Y273D01*
X1599Y273D01*
X1600D01*
X1600Y273D01*
X1601Y273D01*
X1602Y273D01*
X1603Y273D01*
X1604Y274D01*
X1605Y274D01*
X1605Y274D01*
X1605Y275D01*
X1606Y275D01*
X1606Y276D01*
X1606Y276D01*
X1607Y277D01*
X1607Y278D01*
X1607Y279D01*
Y279D01*
Y280D01*
X1607Y280D01*
X1607Y280D01*
X1607Y281D01*
X1607Y282D01*
X1606Y282D01*
X1606Y283D01*
X1606Y283D01*
X1605Y284D01*
X1605Y285D01*
X1604Y285D01*
X1603Y286D01*
X1602Y286D01*
X1601Y286D01*
X1599Y286D01*
X1595D01*
X1596Y293D01*
X1600D01*
X1600Y294D01*
X1601Y294D01*
X1602Y294D01*
X1603Y294D01*
X1604Y294D01*
X1604Y295D01*
X1604Y295D01*
X1605Y295D01*
X1605Y296D01*
X1605Y296D01*
X1606Y297D01*
X1606Y298D01*
X1606Y298D01*
X1606Y300D01*
Y300D01*
Y300D01*
X1606Y300D01*
X1606Y301D01*
X1606Y302D01*
X1605Y302D01*
X1605Y303D01*
X1604Y304D01*
X1604Y304D01*
X1604Y304D01*
X1604Y304D01*
X1603Y304D01*
X1602Y305D01*
X1601Y305D01*
X1601Y305D01*
X1599Y305D01*
X1599D01*
X1599Y305D01*
X1598Y305D01*
X1598Y305D01*
X1596Y305D01*
X1595Y304D01*
X1594Y304D01*
X1593Y303D01*
X1593Y303D01*
X1592Y302D01*
X1591Y302D01*
X1590Y301D01*
X1585Y307D01*
X1585Y307D01*
X1585Y307D01*
X1586Y307D01*
X1586Y308D01*
X1587Y308D01*
X1587Y309D01*
X1588Y309D01*
X1589Y310D01*
X1590Y310D01*
X1592Y311D01*
X1593Y312D01*
X1594Y312D01*
X1596Y312D01*
X1597Y313D01*
X1599Y313D01*
X1601Y313D01*
X1601D01*
X1602Y313D01*
D02*
G37*
G36*
X1679Y115D02*
X1680Y115D01*
X1681Y115D01*
X1682Y115D01*
X1683Y114D01*
X1685Y114D01*
X1686Y114D01*
X1687Y113D01*
X1689Y113D01*
X1690Y112D01*
X1692Y112D01*
X1693Y111D01*
X1694Y110D01*
X1694Y110D01*
X1694Y110D01*
X1695Y109D01*
X1695Y109D01*
X1696Y108D01*
X1696Y108D01*
X1697Y107D01*
X1697Y106D01*
X1698Y105D01*
X1698Y103D01*
X1699Y102D01*
X1699Y100D01*
X1700Y99D01*
X1700Y97D01*
X1700Y94D01*
X1700Y92D01*
Y92D01*
Y92D01*
Y92D01*
X1700Y91D01*
Y91D01*
X1700Y90D01*
X1700Y89D01*
X1700Y88D01*
X1700Y88D01*
X1700Y87D01*
X1699Y85D01*
X1699Y83D01*
X1698Y80D01*
X1697Y79D01*
X1696Y78D01*
X1696Y77D01*
X1695Y76D01*
X1694Y75D01*
X1693Y74D01*
X1692Y73D01*
X1691Y72D01*
X1690Y72D01*
X1688Y71D01*
X1687Y70D01*
X1685Y70D01*
X1684Y69D01*
X1682Y69D01*
X1680Y69D01*
X1678Y69D01*
X1666D01*
Y115D01*
X1678D01*
X1679Y115D01*
D02*
G37*
G36*
X1659Y69D02*
X1645D01*
X1633Y106D01*
Y106D01*
Y106D01*
X1633Y105D01*
X1633Y105D01*
X1633Y105D01*
X1634Y104D01*
X1634Y103D01*
X1634Y103D01*
X1634Y101D01*
X1634Y100D01*
X1634Y98D01*
X1634Y96D01*
Y96D01*
Y96D01*
X1634Y96D01*
Y95D01*
X1635Y95D01*
Y94D01*
X1635Y94D01*
X1635Y93D01*
X1635Y92D01*
X1635Y90D01*
X1635Y88D01*
Y86D01*
Y69D01*
X1626D01*
Y115D01*
X1639D01*
X1651Y78D01*
Y78D01*
X1651Y78D01*
X1651Y79D01*
X1651Y80D01*
X1651Y81D01*
X1650Y82D01*
X1650Y83D01*
X1650Y84D01*
X1650Y86D01*
X1650Y87D01*
X1650Y89D01*
X1650Y90D01*
X1649Y94D01*
X1649Y97D01*
Y115D01*
X1659D01*
Y69D01*
D02*
G37*
G36*
X1606Y116D02*
X1607D01*
X1608Y116D01*
X1609Y116D01*
X1611Y115D01*
X1612Y115D01*
X1613Y115D01*
X1613D01*
X1614Y115D01*
X1614Y114D01*
X1614Y114D01*
X1615Y114D01*
X1616Y114D01*
X1617Y113D01*
X1618Y112D01*
X1619Y111D01*
X1620Y110D01*
X1614Y104D01*
X1614Y105D01*
X1614Y105D01*
X1613Y105D01*
X1613Y106D01*
X1612Y106D01*
X1611Y106D01*
X1611Y107D01*
X1610Y107D01*
X1610Y107D01*
X1610Y107D01*
X1609Y108D01*
X1609Y108D01*
X1608Y108D01*
X1607Y108D01*
X1607Y108D01*
X1606Y108D01*
X1605D01*
X1605Y108D01*
X1604Y108D01*
X1604Y108D01*
X1603Y108D01*
X1602Y107D01*
X1601Y107D01*
X1600Y106D01*
X1600Y106D01*
X1599Y105D01*
X1598Y105D01*
X1598Y104D01*
Y104D01*
X1598Y104D01*
X1598Y104D01*
X1597Y103D01*
X1597Y103D01*
X1597Y102D01*
X1597Y102D01*
X1596Y101D01*
X1596Y100D01*
X1596Y99D01*
X1596Y98D01*
X1595Y97D01*
X1595Y96D01*
X1595Y95D01*
X1595Y93D01*
X1595Y92D01*
Y92D01*
Y92D01*
Y91D01*
X1595Y90D01*
Y90D01*
X1595Y89D01*
X1595Y88D01*
X1595Y87D01*
X1596Y85D01*
X1596Y83D01*
X1596Y82D01*
X1596Y81D01*
X1597Y80D01*
X1597Y79D01*
Y79D01*
X1597Y79D01*
X1598Y79D01*
X1598Y78D01*
X1599Y78D01*
X1600Y77D01*
X1601Y76D01*
X1602Y76D01*
X1603Y76D01*
X1604Y76D01*
X1605D01*
X1605Y76D01*
X1606Y76D01*
X1607Y76D01*
X1608Y76D01*
X1609Y77D01*
X1610Y77D01*
Y88D01*
X1604D01*
X1603Y95D01*
X1620D01*
Y72D01*
X1620Y72D01*
X1620Y72D01*
X1619Y72D01*
X1619Y72D01*
X1618Y71D01*
X1617Y71D01*
X1616Y70D01*
X1615Y70D01*
X1614Y70D01*
X1613Y69D01*
X1611Y69D01*
X1610Y68D01*
X1609Y68D01*
X1607Y68D01*
X1606Y68D01*
X1604Y68D01*
X1604D01*
X1603Y68D01*
X1602D01*
X1601Y68D01*
X1601Y68D01*
X1599Y68D01*
X1598Y68D01*
X1597Y69D01*
X1596Y69D01*
X1595Y70D01*
X1593Y70D01*
X1592Y71D01*
X1591Y72D01*
X1590Y73D01*
X1589Y74D01*
X1589Y74D01*
X1589Y74D01*
X1588Y75D01*
X1588Y75D01*
X1588Y76D01*
X1587Y76D01*
X1587Y77D01*
X1586Y78D01*
X1586Y80D01*
X1585Y81D01*
X1585Y83D01*
X1585Y84D01*
X1584Y86D01*
X1584Y88D01*
X1584Y90D01*
X1584Y92D01*
Y92D01*
Y92D01*
Y93D01*
X1584Y93D01*
Y94D01*
X1584Y95D01*
X1584Y96D01*
X1584Y97D01*
X1584Y99D01*
X1585Y101D01*
X1586Y103D01*
X1587Y105D01*
X1587Y105D01*
X1587Y105D01*
X1587Y106D01*
X1587Y106D01*
X1587Y106D01*
X1588Y107D01*
X1589Y108D01*
X1590Y109D01*
X1591Y111D01*
X1592Y112D01*
X1594Y113D01*
X1594Y113D01*
X1594Y113D01*
X1595Y114D01*
X1595Y114D01*
X1596Y114D01*
X1596Y114D01*
X1597Y114D01*
X1597Y115D01*
X1598Y115D01*
X1599Y115D01*
X1601Y116D01*
X1603Y116D01*
X1605Y116D01*
X1606D01*
X1606Y116D01*
D02*
G37*
G36*
X1648Y167D02*
X1634D01*
X1621Y213D01*
X1633D01*
X1641Y176D01*
X1650Y213D01*
X1661D01*
X1648Y167D01*
D02*
G37*
G36*
X1597Y410D02*
X1598Y410D01*
X1599Y410D01*
X1600Y410D01*
X1601Y410D01*
X1603Y409D01*
X1604Y409D01*
X1605Y409D01*
X1607Y408D01*
X1608Y408D01*
X1610Y407D01*
X1611Y406D01*
X1612Y405D01*
X1612Y405D01*
X1612Y405D01*
X1613Y405D01*
X1613Y404D01*
X1614Y404D01*
X1614Y403D01*
X1615Y402D01*
X1615Y401D01*
X1616Y400D01*
X1617Y399D01*
X1617Y397D01*
X1618Y396D01*
X1618Y394D01*
X1618Y392D01*
X1618Y390D01*
X1619Y387D01*
Y387D01*
Y387D01*
Y387D01*
X1618Y386D01*
Y386D01*
X1618Y385D01*
X1618Y385D01*
X1618Y384D01*
X1618Y383D01*
X1618Y382D01*
X1617Y380D01*
X1617Y378D01*
X1616Y376D01*
X1615Y375D01*
X1615Y374D01*
X1614Y372D01*
X1613Y371D01*
X1612Y370D01*
X1611Y369D01*
X1610Y369D01*
X1609Y368D01*
X1608Y367D01*
X1607Y366D01*
X1605Y366D01*
X1604Y365D01*
X1602Y365D01*
X1600Y364D01*
X1598Y364D01*
X1596Y364D01*
X1584D01*
Y410D01*
X1596D01*
X1597Y410D01*
D02*
G37*
G36*
X1649Y266D02*
X1636D01*
X1623Y312D01*
X1634D01*
X1643Y274D01*
X1651Y312D01*
X1663D01*
X1649Y266D01*
D02*
G37*
G36*
X1682Y313D02*
X1682D01*
X1683Y313D01*
X1685Y313D01*
X1686Y312D01*
X1688Y312D01*
X1689Y311D01*
X1689D01*
X1689Y311D01*
X1689Y311D01*
X1690Y311D01*
X1690Y311D01*
X1691Y310D01*
X1692Y310D01*
X1693Y309D01*
X1694Y308D01*
X1694Y307D01*
X1694Y307D01*
X1695Y307D01*
X1695Y306D01*
X1695Y305D01*
X1696Y304D01*
X1696Y303D01*
X1696Y302D01*
X1696Y301D01*
Y301D01*
Y301D01*
Y301D01*
X1696Y300D01*
X1696Y300D01*
X1696Y299D01*
X1696Y298D01*
X1695Y296D01*
X1695Y295D01*
X1694Y294D01*
X1694Y294D01*
X1693Y294D01*
X1693Y293D01*
X1692Y293D01*
X1691Y292D01*
X1690Y291D01*
X1688Y291D01*
X1687Y290D01*
X1687D01*
X1687Y290D01*
X1688Y290D01*
X1689Y290D01*
X1689Y289D01*
X1690Y289D01*
X1691Y289D01*
X1692Y288D01*
X1693Y287D01*
X1694Y287D01*
X1695Y286D01*
X1696Y285D01*
X1697Y283D01*
X1697Y282D01*
X1698Y280D01*
X1698Y279D01*
Y279D01*
Y278D01*
Y278D01*
Y278D01*
X1698Y277D01*
X1698Y276D01*
X1697Y275D01*
X1697Y274D01*
X1696Y273D01*
X1696Y271D01*
Y271D01*
X1696Y271D01*
X1695Y271D01*
X1695Y270D01*
X1694Y270D01*
X1693Y269D01*
X1692Y268D01*
X1691Y267D01*
X1689Y266D01*
X1689D01*
X1689Y266D01*
X1689Y266D01*
X1689Y266D01*
X1688Y266D01*
X1688Y266D01*
X1687Y266D01*
X1687Y265D01*
X1685Y265D01*
X1684Y265D01*
X1682Y265D01*
X1680Y265D01*
X1679D01*
X1679Y265D01*
X1678D01*
X1677Y265D01*
X1675Y265D01*
X1674Y265D01*
X1672Y266D01*
X1671Y266D01*
X1671D01*
X1671Y266D01*
X1670Y267D01*
X1670Y267D01*
X1669Y267D01*
X1668Y268D01*
X1667Y268D01*
X1666Y269D01*
X1665Y270D01*
X1664Y271D01*
X1670Y277D01*
X1670Y277D01*
X1670Y277D01*
X1670Y277D01*
X1670Y276D01*
X1671Y276D01*
X1671Y276D01*
X1672Y275D01*
X1672Y275D01*
X1673Y274D01*
X1674Y274D01*
X1675Y273D01*
X1676Y273D01*
X1677Y273D01*
X1678Y273D01*
X1679Y273D01*
X1680D01*
X1680Y273D01*
X1681Y273D01*
X1682Y273D01*
X1683Y273D01*
X1684Y274D01*
X1685Y274D01*
X1685Y274D01*
X1685Y275D01*
X1686Y275D01*
X1686Y276D01*
X1686Y276D01*
X1687Y277D01*
X1687Y278D01*
X1687Y279D01*
Y279D01*
Y280D01*
X1687Y280D01*
X1687Y280D01*
X1687Y281D01*
X1687Y282D01*
X1686Y282D01*
X1686Y283D01*
X1686Y283D01*
X1685Y284D01*
X1684Y285D01*
X1684Y285D01*
X1683Y286D01*
X1682Y286D01*
X1681Y286D01*
X1679Y286D01*
X1675D01*
X1676Y293D01*
X1680D01*
X1680Y294D01*
X1681Y294D01*
X1682Y294D01*
X1683Y294D01*
X1683Y294D01*
X1684Y295D01*
X1684Y295D01*
X1685Y295D01*
X1685Y296D01*
X1685Y296D01*
X1686Y297D01*
X1686Y298D01*
X1686Y298D01*
X1686Y300D01*
Y300D01*
Y300D01*
X1686Y300D01*
X1686Y301D01*
X1686Y302D01*
X1685Y302D01*
X1685Y303D01*
X1684Y304D01*
X1684Y304D01*
X1684Y304D01*
X1684Y304D01*
X1683Y304D01*
X1682Y305D01*
X1681Y305D01*
X1680Y305D01*
X1679Y305D01*
X1679D01*
X1679Y305D01*
X1678Y305D01*
X1678Y305D01*
X1676Y305D01*
X1675Y304D01*
X1674Y304D01*
X1673Y303D01*
X1673Y303D01*
X1672Y302D01*
X1671Y302D01*
X1670Y301D01*
X1665Y307D01*
X1665Y307D01*
X1665Y307D01*
X1665Y307D01*
X1666Y308D01*
X1667Y308D01*
X1667Y309D01*
X1668Y309D01*
X1669Y310D01*
X1670Y310D01*
X1672Y311D01*
X1673Y312D01*
X1674Y312D01*
X1676Y312D01*
X1677Y313D01*
X1679Y313D01*
X1681Y313D01*
X1681D01*
X1682Y313D01*
D02*
G37*
%LPC*%
G36*
X1087Y106D02*
X1086D01*
X1086Y106D01*
X1086Y106D01*
X1085Y106D01*
X1085Y106D01*
X1084Y106D01*
X1084Y106D01*
X1084Y106D01*
X1084Y105D01*
X1083Y105D01*
X1083Y105D01*
X1083Y105D01*
X1082Y104D01*
X1082Y104D01*
X1081Y104D01*
Y104D01*
Y103D01*
Y103D01*
X1082Y103D01*
Y102D01*
Y102D01*
X1082Y101D01*
X1082Y101D01*
X1082Y99D01*
X1082Y98D01*
X1082Y97D01*
X1082Y96D01*
X1083Y96D01*
Y96D01*
X1083Y96D01*
X1083Y95D01*
X1083Y95D01*
X1083Y95D01*
X1084Y94D01*
X1085Y94D01*
X1085Y93D01*
X1086Y93D01*
X1086Y93D01*
X1086D01*
X1087Y93D01*
X1087Y93D01*
X1087Y94D01*
X1088Y94D01*
X1088Y94D01*
X1089Y94D01*
X1089Y95D01*
X1089Y95D01*
X1090Y95D01*
X1090Y96D01*
X1090Y96D01*
X1090Y97D01*
X1090Y98D01*
X1090Y99D01*
X1091Y100D01*
Y100D01*
Y100D01*
Y100D01*
Y100D01*
X1090Y101D01*
X1090Y102D01*
X1090Y103D01*
X1090Y103D01*
X1090Y104D01*
X1090Y105D01*
X1089Y105D01*
X1089Y105D01*
X1089Y105D01*
X1089Y106D01*
X1088Y106D01*
X1088Y106D01*
X1087Y106D01*
X1087Y106D01*
D02*
G37*
G36*
X788Y58D02*
X785D01*
Y48D01*
X788D01*
X789Y48D01*
X789Y48D01*
X790Y49D01*
X791Y49D01*
X791Y49D01*
X792Y50D01*
X792Y50D01*
X792Y50D01*
X792Y50D01*
X793Y51D01*
X793Y51D01*
X793Y52D01*
X793Y53D01*
X793Y54D01*
Y54D01*
Y54D01*
Y54D01*
X793Y54D01*
X793Y55D01*
X793Y56D01*
X793Y56D01*
X792Y57D01*
X792Y57D01*
X792Y57D01*
X792Y57D01*
X791Y58D01*
X791Y58D01*
X790Y58D01*
X790Y58D01*
X789Y58D01*
X788Y58D01*
D02*
G37*
G36*
X1597Y501D02*
X1595D01*
Y470D01*
X1597D01*
X1598Y470D01*
X1598Y471D01*
X1599Y471D01*
X1600Y471D01*
X1601Y471D01*
X1602Y472D01*
X1603Y472D01*
X1604Y473D01*
X1604Y473D01*
X1605Y474D01*
Y474D01*
X1605Y474D01*
X1605Y474D01*
X1605Y474D01*
X1605Y475D01*
X1605Y475D01*
X1606Y476D01*
X1606Y477D01*
X1606Y477D01*
X1606Y478D01*
X1607Y479D01*
X1607Y480D01*
X1607Y482D01*
X1607Y483D01*
X1607Y484D01*
Y486D01*
Y486D01*
Y486D01*
Y487D01*
X1607Y487D01*
Y488D01*
X1607Y489D01*
X1607Y490D01*
X1607Y490D01*
X1607Y492D01*
X1606Y494D01*
X1606Y495D01*
X1605Y496D01*
X1605Y497D01*
X1605Y498D01*
Y498D01*
X1604Y498D01*
X1604Y498D01*
X1603Y499D01*
X1603Y499D01*
X1602Y500D01*
X1600Y500D01*
X1599Y501D01*
X1598Y501D01*
X1597Y501D01*
D02*
G37*
G36*
X479Y518D02*
X453D01*
X450Y515D01*
Y499D01*
X465D01*
Y492D01*
X450D01*
Y499D01*
X450D01*
Y492D01*
X450D01*
Y491D01*
X453Y488D01*
X479D01*
X482Y491D01*
Y492D01*
X467D01*
Y499D01*
X482D01*
Y492D01*
X482D01*
Y499D01*
X482D01*
Y514D01*
X479Y518D01*
D02*
G37*
%LPD*%
G36*
X470Y503D02*
X462D01*
Y517D01*
X470D01*
Y503D01*
D02*
G37*
%LPC*%
G36*
X1679Y107D02*
X1677D01*
Y77D01*
X1679D01*
X1680Y77D01*
X1680Y77D01*
X1681Y77D01*
X1682Y77D01*
X1683Y78D01*
X1684Y78D01*
X1685Y79D01*
X1685Y79D01*
X1686Y80D01*
X1686Y80D01*
Y80D01*
X1687Y80D01*
X1687Y81D01*
X1687Y81D01*
X1687Y81D01*
X1687Y82D01*
X1688Y82D01*
X1688Y83D01*
X1688Y84D01*
X1688Y85D01*
X1689Y86D01*
X1689Y87D01*
X1689Y88D01*
X1689Y89D01*
X1689Y91D01*
Y92D01*
Y92D01*
Y93D01*
Y93D01*
X1689Y94D01*
Y94D01*
X1689Y95D01*
X1689Y96D01*
X1689Y97D01*
X1688Y99D01*
X1688Y101D01*
X1688Y102D01*
X1687Y102D01*
X1687Y103D01*
X1686Y104D01*
Y104D01*
X1686Y104D01*
X1686Y104D01*
X1685Y105D01*
X1685Y105D01*
X1683Y106D01*
X1682Y107D01*
X1681Y107D01*
X1680Y107D01*
X1679Y107D01*
D02*
G37*
G36*
X1597Y402D02*
X1595D01*
Y372D01*
X1597D01*
X1598Y372D01*
X1598Y372D01*
X1599Y372D01*
X1600Y372D01*
X1601Y373D01*
X1602Y373D01*
X1603Y374D01*
X1604Y374D01*
X1604Y375D01*
X1605Y375D01*
Y375D01*
X1605Y376D01*
X1605Y376D01*
X1605Y376D01*
X1605Y376D01*
X1605Y377D01*
X1606Y378D01*
X1606Y378D01*
X1606Y379D01*
X1606Y380D01*
X1607Y381D01*
X1607Y382D01*
X1607Y383D01*
X1607Y384D01*
X1607Y386D01*
Y387D01*
Y387D01*
Y388D01*
Y388D01*
X1607Y389D01*
Y389D01*
X1607Y390D01*
X1607Y391D01*
X1607Y392D01*
X1607Y394D01*
X1606Y396D01*
X1606Y397D01*
X1605Y398D01*
X1605Y398D01*
X1605Y399D01*
Y399D01*
X1604Y399D01*
X1604Y400D01*
X1603Y400D01*
X1603Y401D01*
X1602Y401D01*
X1600Y402D01*
X1599Y402D01*
X1598Y402D01*
X1597Y402D01*
D02*
G37*
%LPD*%
D18*
X541Y404D02*
G03*
X561Y423I-0J20D01*
G01*
X413Y423D02*
G03*
X433Y404I20J0D01*
G01*
X561Y531D02*
G03*
X541Y551I-20J-0D01*
G01*
X433Y551D02*
G03*
X413Y531I0J-20D01*
G01*
X1575Y32D02*
G03*
X1575Y32I-5J0D01*
G01*
X413Y512D02*
Y531D01*
Y423D02*
Y512D01*
X433Y404D02*
X541D01*
X561Y423D02*
Y531D01*
X433Y551D02*
X541D01*
X1073Y78D02*
Y79D01*
Y78D02*
X1092Y59D01*
X1230D02*
X1240Y69D01*
X600Y68D02*
X609Y59D01*
X747D01*
Y79D01*
X1092Y59D02*
X1111D01*
X1111Y59D01*
X1230D01*
X1092D02*
X1092Y59D01*
X1455Y47D02*
X1555D01*
Y547D01*
X1455D02*
X1555D01*
X1455Y47D02*
Y547D01*
D25*
X1412Y508D02*
G03*
X1412Y508I-5J0D01*
G01*
X380Y311D02*
G03*
X380Y311I-5J0D01*
G01*
X793Y504D02*
G03*
X793Y504I-5J0D01*
G01*
D26*
X1432Y197D02*
G03*
X1432Y197I-161J0D01*
G01*
X1369Y157D02*
G03*
X1369Y236I0J39D01*
G01*
X723Y197D02*
G03*
X723Y197I-161J0D01*
G01*
X463Y236D02*
G03*
X463Y157I0J-39D01*
G01*
X1276Y433D02*
X1398D01*
X1276Y472D02*
X1398D01*
X1276Y433D02*
Y472D01*
X1398Y433D02*
Y472D01*
X1037Y216D02*
X1088D01*
Y138D02*
Y216D01*
X1037Y138D02*
X1088D01*
X946D02*
X997D01*
X946D02*
Y216D01*
X997D01*
X741Y138D02*
X792D01*
X741D02*
Y216D01*
X792D01*
X832D02*
X883D01*
Y138D02*
Y216D01*
X832Y138D02*
X883D01*
X-28Y53D02*
Y443D01*
Y53D02*
X23D01*
X153D02*
X239D01*
X153Y443D02*
X239D01*
X-28D02*
X23D01*
X349Y128D02*
Y159D01*
Y337D02*
Y368D01*
X840Y242D02*
X989D01*
X840Y506D02*
X989D01*
Y242D02*
Y506D01*
X840Y242D02*
Y506D01*
X848Y113D02*
X982D01*
Y26D02*
Y113D01*
X848Y26D02*
X982D01*
X848D02*
Y113D01*
X1111Y468D02*
Y520D01*
X1190D01*
Y468D02*
Y520D01*
Y378D02*
Y429D01*
X1111Y378D02*
X1190D01*
X1111D02*
Y429D01*
X1369Y70D02*
X1369Y157D01*
X1388Y87D02*
Y162D01*
X1428Y161D02*
Y231D01*
X1408Y113D02*
Y280D01*
X1177Y261D02*
Y295D01*
X1160Y278D02*
X1194D01*
X1388Y231D02*
Y306D01*
X1369Y324D02*
X1369Y236D01*
X718Y378D02*
Y429D01*
X639Y378D02*
X718D01*
X639D02*
Y429D01*
Y468D02*
Y520D01*
X718D01*
Y468D02*
Y520D01*
X463Y236D02*
X463Y324D01*
X444Y231D02*
Y306D01*
X404Y162D02*
Y232D01*
X424Y113D02*
Y280D01*
X655Y98D02*
Y133D01*
X638Y116D02*
X672D01*
X444Y87D02*
Y162D01*
X463Y157D02*
X463Y70D01*
M02*
