G04 Layer_Color=32896*
%FSLAX23Y23*%
%MOIN*%
G70*
G01*
G75*
%ADD40R,0.571X0.010*%
%ADD41R,0.010X0.118*%
G36*
X1646Y266D02*
X1632D01*
X1619Y312D01*
X1630D01*
X1639Y274D01*
X1647Y312D01*
X1659D01*
X1646Y266D01*
D02*
G37*
G36*
X1603Y313D02*
X1604Y313D01*
X1606Y312D01*
X1607Y312D01*
X1609Y312D01*
X1610Y311D01*
X1611Y310D01*
X1612Y310D01*
X1613Y309D01*
X1614Y309D01*
X1615Y308D01*
X1616Y308D01*
X1616Y307D01*
X1616Y307D01*
X1617Y307D01*
X1617Y307D01*
X1611Y301D01*
X1611Y302D01*
X1610Y302D01*
X1609Y303D01*
X1608Y303D01*
X1607Y304D01*
X1607Y304D01*
X1605Y305D01*
X1604Y305D01*
X1603Y305D01*
X1603Y305D01*
X1603Y305D01*
X1602D01*
X1601Y305D01*
X1600Y305D01*
X1599Y305D01*
X1599Y304D01*
X1598Y304D01*
X1598Y304D01*
X1597Y304D01*
X1597Y304D01*
X1597Y303D01*
X1596Y302D01*
X1596Y302D01*
X1596Y301D01*
X1595Y300D01*
X1595Y300D01*
Y300D01*
Y300D01*
X1595Y298D01*
X1596Y298D01*
X1596Y297D01*
X1596Y296D01*
X1597Y296D01*
X1597Y295D01*
X1597Y295D01*
X1597Y295D01*
X1598Y294D01*
X1599Y294D01*
X1600Y294D01*
X1601Y294D01*
X1601Y294D01*
X1602Y293D01*
X1605D01*
X1607Y286D01*
X1602D01*
X1601Y286D01*
X1600Y286D01*
X1599Y286D01*
X1598Y285D01*
X1597Y285D01*
X1596Y284D01*
X1596Y283D01*
X1596Y283D01*
X1595Y282D01*
X1595Y282D01*
X1595Y281D01*
X1595Y280D01*
X1595Y280D01*
X1595Y280D01*
Y279D01*
Y279D01*
X1595Y278D01*
X1595Y277D01*
X1595Y276D01*
X1596Y276D01*
X1596Y275D01*
X1596Y275D01*
X1597Y274D01*
X1597Y274D01*
X1598Y274D01*
X1598Y273D01*
X1599Y273D01*
X1600Y273D01*
X1601Y273D01*
X1602Y273D01*
X1602D01*
X1603Y273D01*
X1604Y273D01*
X1605Y273D01*
X1606Y273D01*
X1608Y274D01*
X1609Y274D01*
X1609Y275D01*
X1610Y275D01*
X1610Y276D01*
X1611Y276D01*
X1611Y276D01*
X1612Y277D01*
X1612Y277D01*
X1612Y277D01*
X1612Y277D01*
X1618Y271D01*
X1617Y270D01*
X1616Y269D01*
X1614Y268D01*
X1613Y268D01*
X1612Y267D01*
X1611Y267D01*
X1611Y267D01*
X1611Y266D01*
X1611Y266D01*
X1611D01*
X1609Y266D01*
X1608Y265D01*
X1606Y265D01*
X1605Y265D01*
X1603Y265D01*
X1603D01*
X1602Y265D01*
X1602D01*
X1600Y265D01*
X1598Y265D01*
X1596Y265D01*
X1595Y265D01*
X1594Y266D01*
X1594Y266D01*
X1593Y266D01*
X1593Y266D01*
X1593Y266D01*
X1592Y266D01*
X1592Y266D01*
X1592D01*
X1591Y267D01*
X1589Y268D01*
X1588Y269D01*
X1588Y270D01*
X1587Y270D01*
X1586Y271D01*
X1586Y271D01*
X1586Y271D01*
Y271D01*
X1585Y273D01*
X1585Y274D01*
X1584Y275D01*
X1584Y276D01*
X1584Y277D01*
X1584Y278D01*
Y278D01*
Y278D01*
Y279D01*
Y279D01*
X1584Y280D01*
X1584Y282D01*
X1585Y283D01*
X1585Y285D01*
X1586Y286D01*
X1587Y287D01*
X1588Y287D01*
X1589Y288D01*
X1590Y289D01*
X1591Y289D01*
X1592Y289D01*
X1593Y290D01*
X1594Y290D01*
X1594Y290D01*
X1595Y290D01*
X1595D01*
X1593Y291D01*
X1592Y291D01*
X1591Y292D01*
X1590Y293D01*
X1589Y293D01*
X1588Y294D01*
X1588Y294D01*
X1588Y294D01*
X1587Y295D01*
X1586Y296D01*
X1586Y298D01*
X1586Y299D01*
X1585Y300D01*
X1585Y300D01*
X1585Y301D01*
Y301D01*
Y301D01*
Y301D01*
X1585Y302D01*
X1585Y303D01*
X1586Y304D01*
X1586Y305D01*
X1587Y306D01*
X1587Y307D01*
X1587Y307D01*
X1587Y307D01*
X1588Y308D01*
X1589Y309D01*
X1590Y310D01*
X1591Y310D01*
X1591Y311D01*
X1592Y311D01*
X1592Y311D01*
X1592Y311D01*
X1593Y311D01*
X1593D01*
X1594Y312D01*
X1595Y312D01*
X1597Y313D01*
X1598Y313D01*
X1599Y313D01*
X1600D01*
X1600Y313D01*
X1601D01*
X1603Y313D01*
D02*
G37*
G36*
X1054Y493D02*
X1051D01*
X1052Y492D01*
X1052Y491D01*
X1052Y490D01*
X1053Y490D01*
X1053Y489D01*
X1053Y489D01*
X1054Y489D01*
X1054Y489D01*
X1054Y488D01*
X1055Y488D01*
X1055Y487D01*
X1056Y487D01*
X1056Y486D01*
X1057Y486D01*
X1057Y486D01*
X1057Y486D01*
X1058Y486D01*
X1059Y485D01*
X1060Y485D01*
X1060Y485D01*
X1061Y485D01*
X1062Y484D01*
X1062Y484D01*
X1062Y484D01*
X1062D01*
X1062Y479D01*
X1060Y479D01*
X1059Y479D01*
X1058Y479D01*
X1057Y480D01*
X1056Y480D01*
X1055Y480D01*
X1054Y481D01*
X1053Y481D01*
X1053Y482D01*
X1052Y482D01*
X1052Y482D01*
X1051Y482D01*
X1051Y483D01*
X1051Y483D01*
X1051Y483D01*
X1051Y483D01*
X1049Y484D01*
X1048Y486D01*
X1047Y488D01*
X1046Y489D01*
X1046Y490D01*
X1045Y491D01*
X1045Y491D01*
X1045Y492D01*
X1045Y492D01*
X1045Y493D01*
X1045Y493D01*
Y493D01*
X1033Y528D01*
X1040D01*
X1049Y498D01*
X1058Y528D01*
X1066D01*
X1054Y493D01*
D02*
G37*
G36*
X943Y511D02*
X919D01*
Y517D01*
X943D01*
Y511D01*
D02*
G37*
G36*
X1683Y313D02*
X1684Y313D01*
X1686Y312D01*
X1687Y312D01*
X1689Y312D01*
X1690Y311D01*
X1691Y310D01*
X1692Y310D01*
X1693Y309D01*
X1694Y309D01*
X1695Y308D01*
X1696Y308D01*
X1696Y307D01*
X1696Y307D01*
X1697Y307D01*
X1697Y307D01*
X1691Y301D01*
X1690Y302D01*
X1690Y302D01*
X1689Y303D01*
X1688Y303D01*
X1687Y304D01*
X1687Y304D01*
X1685Y305D01*
X1684Y305D01*
X1683Y305D01*
X1683Y305D01*
X1683Y305D01*
X1682D01*
X1681Y305D01*
X1680Y305D01*
X1679Y305D01*
X1679Y304D01*
X1678Y304D01*
X1678Y304D01*
X1677Y304D01*
X1677Y304D01*
X1677Y303D01*
X1676Y302D01*
X1676Y302D01*
X1676Y301D01*
X1675Y300D01*
X1675Y300D01*
Y300D01*
Y300D01*
X1675Y298D01*
X1676Y298D01*
X1676Y297D01*
X1676Y296D01*
X1677Y296D01*
X1677Y295D01*
X1677Y295D01*
X1677Y295D01*
X1678Y294D01*
X1679Y294D01*
X1680Y294D01*
X1680Y294D01*
X1681Y294D01*
X1682Y293D01*
X1685D01*
X1686Y286D01*
X1682D01*
X1681Y286D01*
X1680Y286D01*
X1679Y286D01*
X1678Y285D01*
X1677Y285D01*
X1676Y284D01*
X1676Y283D01*
X1675Y283D01*
X1675Y282D01*
X1675Y282D01*
X1675Y281D01*
X1675Y280D01*
X1675Y280D01*
X1674Y280D01*
Y279D01*
Y279D01*
X1675Y278D01*
X1675Y277D01*
X1675Y276D01*
X1676Y276D01*
X1676Y275D01*
X1676Y275D01*
X1677Y274D01*
X1677Y274D01*
X1677Y274D01*
X1678Y273D01*
X1679Y273D01*
X1680Y273D01*
X1681Y273D01*
X1682Y273D01*
X1682D01*
X1683Y273D01*
X1684Y273D01*
X1685Y273D01*
X1686Y273D01*
X1688Y274D01*
X1689Y274D01*
X1689Y275D01*
X1690Y275D01*
X1690Y276D01*
X1691Y276D01*
X1691Y276D01*
X1691Y277D01*
X1692Y277D01*
X1692Y277D01*
X1692Y277D01*
X1698Y271D01*
X1697Y270D01*
X1695Y269D01*
X1694Y268D01*
X1693Y268D01*
X1692Y267D01*
X1691Y267D01*
X1691Y267D01*
X1691Y266D01*
X1691Y266D01*
X1691D01*
X1689Y266D01*
X1688Y265D01*
X1686Y265D01*
X1685Y265D01*
X1683Y265D01*
X1683D01*
X1682Y265D01*
X1682D01*
X1680Y265D01*
X1678Y265D01*
X1676Y265D01*
X1675Y265D01*
X1674Y266D01*
X1674Y266D01*
X1673Y266D01*
X1673Y266D01*
X1672Y266D01*
X1672Y266D01*
X1672Y266D01*
X1672D01*
X1671Y267D01*
X1669Y268D01*
X1668Y269D01*
X1667Y270D01*
X1667Y270D01*
X1666Y271D01*
X1666Y271D01*
X1666Y271D01*
Y271D01*
X1665Y273D01*
X1665Y274D01*
X1664Y275D01*
X1664Y276D01*
X1664Y277D01*
X1664Y278D01*
Y278D01*
Y278D01*
Y279D01*
Y279D01*
X1664Y280D01*
X1664Y282D01*
X1665Y283D01*
X1665Y285D01*
X1666Y286D01*
X1667Y287D01*
X1668Y287D01*
X1669Y288D01*
X1670Y289D01*
X1671Y289D01*
X1672Y289D01*
X1673Y290D01*
X1674Y290D01*
X1674Y290D01*
X1674Y290D01*
X1675D01*
X1673Y291D01*
X1672Y291D01*
X1670Y292D01*
X1669Y293D01*
X1669Y293D01*
X1668Y294D01*
X1668Y294D01*
X1668Y294D01*
X1667Y295D01*
X1666Y296D01*
X1666Y298D01*
X1665Y299D01*
X1665Y300D01*
X1665Y300D01*
X1665Y301D01*
Y301D01*
Y301D01*
Y301D01*
X1665Y302D01*
X1665Y303D01*
X1666Y304D01*
X1666Y305D01*
X1666Y306D01*
X1667Y307D01*
X1667Y307D01*
X1667Y307D01*
X1668Y308D01*
X1669Y309D01*
X1670Y310D01*
X1670Y310D01*
X1671Y311D01*
X1672Y311D01*
X1672Y311D01*
X1672Y311D01*
X1672Y311D01*
X1673D01*
X1674Y312D01*
X1675Y312D01*
X1677Y313D01*
X1678Y313D01*
X1679Y313D01*
X1680D01*
X1680Y313D01*
X1681D01*
X1683Y313D01*
D02*
G37*
G36*
X1658Y69D02*
X1649D01*
Y86D01*
Y88D01*
X1649Y90D01*
X1649Y92D01*
X1649Y93D01*
X1649Y94D01*
X1650Y94D01*
Y95D01*
X1650Y95D01*
Y96D01*
X1650Y96D01*
Y96D01*
Y96D01*
X1650Y98D01*
X1650Y100D01*
X1650Y101D01*
X1650Y103D01*
X1650Y103D01*
X1651Y104D01*
X1651Y105D01*
X1651Y105D01*
X1651Y105D01*
X1651Y106D01*
Y106D01*
Y106D01*
X1639Y69D01*
X1625D01*
Y115D01*
X1635D01*
Y97D01*
X1635Y94D01*
X1634Y90D01*
X1634Y89D01*
X1634Y87D01*
X1634Y86D01*
X1634Y84D01*
X1634Y83D01*
X1634Y82D01*
X1633Y81D01*
X1633Y80D01*
X1633Y79D01*
X1633Y78D01*
X1633Y78D01*
Y78D01*
X1645Y115D01*
X1658D01*
Y69D01*
D02*
G37*
G36*
X1653Y364D02*
X1641D01*
X1639Y364D01*
X1637Y364D01*
X1635Y365D01*
X1633Y365D01*
X1632Y366D01*
X1630Y366D01*
X1629Y367D01*
X1628Y368D01*
X1627Y369D01*
X1626Y369D01*
X1625Y370D01*
X1624Y371D01*
X1623Y372D01*
X1622Y374D01*
X1622Y375D01*
X1621Y376D01*
X1620Y378D01*
X1619Y380D01*
X1619Y382D01*
X1619Y383D01*
X1619Y384D01*
X1618Y385D01*
X1618Y385D01*
X1618Y386D01*
Y386D01*
X1618Y387D01*
Y387D01*
Y387D01*
Y387D01*
X1618Y390D01*
X1619Y392D01*
X1619Y394D01*
X1619Y396D01*
X1620Y397D01*
X1620Y399D01*
X1621Y400D01*
X1621Y401D01*
X1622Y402D01*
X1623Y403D01*
X1623Y404D01*
X1624Y404D01*
X1624Y405D01*
X1624Y405D01*
X1625Y405D01*
X1625Y405D01*
X1626Y406D01*
X1627Y407D01*
X1629Y408D01*
X1630Y408D01*
X1631Y409D01*
X1633Y409D01*
X1634Y409D01*
X1635Y410D01*
X1637Y410D01*
X1638Y410D01*
X1639Y410D01*
X1640Y410D01*
X1640Y410D01*
X1653D01*
Y364D01*
D02*
G37*
G36*
X1619Y69D02*
X1606D01*
X1604Y69D01*
X1602Y69D01*
X1600Y69D01*
X1599Y70D01*
X1597Y70D01*
X1596Y71D01*
X1594Y72D01*
X1593Y72D01*
X1592Y73D01*
X1591Y74D01*
X1590Y75D01*
X1589Y76D01*
X1588Y77D01*
X1588Y78D01*
X1587Y79D01*
X1587Y80D01*
X1586Y83D01*
X1585Y85D01*
X1584Y87D01*
X1584Y88D01*
X1584Y88D01*
X1584Y89D01*
X1584Y90D01*
X1584Y91D01*
Y91D01*
X1584Y92D01*
Y92D01*
Y92D01*
Y92D01*
X1584Y94D01*
X1584Y97D01*
X1584Y99D01*
X1585Y100D01*
X1585Y102D01*
X1586Y103D01*
X1586Y105D01*
X1587Y106D01*
X1587Y107D01*
X1588Y108D01*
X1589Y108D01*
X1589Y109D01*
X1589Y109D01*
X1590Y110D01*
X1590Y110D01*
X1590Y110D01*
X1591Y111D01*
X1593Y112D01*
X1594Y112D01*
X1595Y113D01*
X1597Y113D01*
X1598Y114D01*
X1600Y114D01*
X1601Y114D01*
X1602Y115D01*
X1603Y115D01*
X1604Y115D01*
X1605Y115D01*
X1606Y115D01*
X1619D01*
Y69D01*
D02*
G37*
G36*
X1681Y116D02*
X1683Y116D01*
X1685Y115D01*
X1686Y115D01*
X1687Y115D01*
X1687Y114D01*
X1688Y114D01*
X1689Y114D01*
X1689Y114D01*
X1689Y114D01*
X1690Y113D01*
X1690Y113D01*
X1690Y113D01*
X1692Y112D01*
X1693Y111D01*
X1694Y109D01*
X1696Y108D01*
X1696Y107D01*
X1697Y106D01*
X1697Y106D01*
X1697Y106D01*
X1697Y105D01*
X1698Y105D01*
X1698Y105D01*
X1699Y103D01*
X1699Y101D01*
X1700Y99D01*
X1700Y97D01*
X1700Y96D01*
X1700Y95D01*
X1700Y94D01*
Y93D01*
X1700Y93D01*
Y92D01*
Y92D01*
Y92D01*
X1700Y90D01*
X1700Y88D01*
X1700Y86D01*
X1700Y84D01*
X1699Y83D01*
X1699Y81D01*
X1698Y80D01*
X1698Y78D01*
X1697Y77D01*
X1697Y76D01*
X1696Y76D01*
X1696Y75D01*
X1696Y75D01*
X1695Y74D01*
X1695Y74D01*
X1695Y74D01*
X1694Y73D01*
X1693Y72D01*
X1692Y71D01*
X1691Y70D01*
X1689Y70D01*
X1688Y69D01*
X1687Y69D01*
X1686Y68D01*
X1685Y68D01*
X1684Y68D01*
X1683Y68D01*
X1682Y68D01*
X1681D01*
X1681Y68D01*
X1680D01*
X1679Y68D01*
X1677Y68D01*
X1676Y68D01*
X1674Y68D01*
X1673Y69D01*
X1671Y69D01*
X1670Y70D01*
X1669Y70D01*
X1668Y70D01*
X1667Y71D01*
X1666Y71D01*
X1665Y72D01*
X1665Y72D01*
X1664Y72D01*
X1664Y72D01*
X1664Y72D01*
Y95D01*
X1681D01*
X1680Y88D01*
X1674D01*
Y77D01*
X1675Y77D01*
X1676Y76D01*
X1677Y76D01*
X1678Y76D01*
X1679Y76D01*
X1680Y76D01*
X1680D01*
X1681Y76D01*
X1682Y76D01*
X1683Y76D01*
X1684Y77D01*
X1685Y78D01*
X1686Y78D01*
X1687Y79D01*
X1687Y79D01*
X1687Y79D01*
Y79D01*
X1687Y80D01*
X1688Y81D01*
X1688Y82D01*
X1688Y83D01*
X1689Y85D01*
X1689Y87D01*
X1689Y88D01*
X1689Y89D01*
X1689Y90D01*
Y90D01*
X1689Y91D01*
Y92D01*
Y92D01*
Y92D01*
X1689Y93D01*
X1689Y95D01*
X1689Y96D01*
X1689Y97D01*
X1688Y98D01*
X1688Y99D01*
X1688Y100D01*
X1688Y101D01*
X1687Y102D01*
X1687Y102D01*
X1687Y103D01*
X1687Y103D01*
X1687Y104D01*
X1686Y104D01*
X1686Y104D01*
Y104D01*
X1686Y105D01*
X1685Y105D01*
X1684Y106D01*
X1684Y106D01*
X1683Y107D01*
X1683Y107D01*
X1681Y108D01*
X1680Y108D01*
X1680Y108D01*
X1679Y108D01*
X1679Y108D01*
X1678D01*
X1678Y108D01*
X1677Y108D01*
X1676Y108D01*
X1675Y108D01*
X1675Y108D01*
X1674Y107D01*
X1674Y107D01*
X1674Y107D01*
X1673Y107D01*
X1673Y106D01*
X1672Y106D01*
X1671Y106D01*
X1671Y105D01*
X1670Y105D01*
X1670Y105D01*
X1670Y104D01*
X1664Y110D01*
X1665Y111D01*
X1667Y112D01*
X1668Y113D01*
X1669Y114D01*
X1669Y114D01*
X1670Y114D01*
X1670Y114D01*
X1671Y115D01*
X1671Y115D01*
X1671D01*
X1672Y115D01*
X1673Y115D01*
X1675Y116D01*
X1676Y116D01*
X1677Y116D01*
X1678D01*
X1678Y116D01*
X1679D01*
X1681Y116D01*
D02*
G37*
G36*
X1105Y536D02*
X1094D01*
Y503D01*
X1094Y502D01*
X1094Y501D01*
X1094Y500D01*
X1093Y498D01*
X1093Y497D01*
X1092Y496D01*
X1092Y496D01*
X1092Y495D01*
X1092Y495D01*
X1092Y495D01*
Y495D01*
X1091Y495D01*
X1090Y494D01*
X1089Y493D01*
X1088Y493D01*
X1086Y493D01*
X1085Y492D01*
X1085Y492D01*
X1084D01*
X1084Y492D01*
X1083D01*
X1081Y492D01*
X1080Y492D01*
X1078Y493D01*
X1077Y493D01*
X1076Y493D01*
X1076Y494D01*
X1075Y494D01*
X1075Y494D01*
X1075Y494D01*
X1075Y494D01*
X1075Y494D01*
X1074D01*
X1076Y499D01*
X1077Y499D01*
X1078Y499D01*
X1079Y498D01*
X1080Y498D01*
X1081Y498D01*
X1081Y498D01*
X1082D01*
X1083Y498D01*
X1084Y498D01*
X1084Y498D01*
X1085Y499D01*
X1085Y499D01*
X1086Y499D01*
X1086Y500D01*
X1086Y500D01*
X1087Y501D01*
X1087Y502D01*
Y502D01*
X1087Y502D01*
Y502D01*
Y502D01*
Y542D01*
X1105D01*
Y536D01*
D02*
G37*
G36*
X972Y528D02*
X973Y528D01*
X974Y528D01*
X975Y528D01*
X976Y528D01*
X977Y527D01*
X977Y527D01*
X978Y527D01*
X979Y527D01*
X979Y526D01*
X979Y526D01*
X980Y526D01*
X980Y526D01*
X980Y526D01*
X980Y526D01*
X981Y525D01*
X981Y525D01*
X982Y524D01*
X982Y524D01*
X983Y523D01*
X983Y522D01*
X983Y521D01*
X984Y520D01*
X984Y520D01*
X984Y519D01*
X984Y519D01*
Y519D01*
Y519D01*
Y519D01*
X984Y518D01*
X984Y517D01*
X983Y516D01*
X983Y515D01*
X982Y514D01*
X982Y513D01*
X981Y513D01*
X981Y512D01*
X981Y512D01*
X980Y512D01*
X980Y511D01*
X978Y511D01*
X977Y510D01*
X976Y509D01*
X974Y509D01*
X974Y509D01*
X973Y509D01*
X973Y509D01*
X973Y508D01*
X972Y508D01*
X972D01*
X971Y508D01*
X970Y508D01*
X969Y507D01*
X968Y507D01*
X968Y507D01*
X967Y507D01*
X967Y507D01*
X967Y507D01*
X966Y506D01*
X966Y506D01*
X966Y506D01*
X965Y505D01*
X965Y505D01*
X965Y505D01*
X965Y505D01*
Y505D01*
X964Y504D01*
X964Y503D01*
X964Y503D01*
Y503D01*
Y502D01*
Y502D01*
X964Y502D01*
X964Y501D01*
X965Y500D01*
X965Y500D01*
X966Y500D01*
X966Y499D01*
X966Y499D01*
X966Y499D01*
X967Y499D01*
X968Y498D01*
X969Y498D01*
X970Y498D01*
X970Y498D01*
X971Y498D01*
X972D01*
X973Y498D01*
X974Y498D01*
X975Y498D01*
X975Y498D01*
X976Y498D01*
X977Y499D01*
X977Y499D01*
X977Y499D01*
X978Y499D01*
X979Y500D01*
X980Y500D01*
X981Y501D01*
X981Y501D01*
X982Y501D01*
X982Y501D01*
X982Y501D01*
X986Y497D01*
X985Y496D01*
X984Y495D01*
X982Y495D01*
X981Y494D01*
X980Y494D01*
X979Y493D01*
X978Y493D01*
X977Y493D01*
X976Y493D01*
X975Y492D01*
X974Y492D01*
X973Y492D01*
X972D01*
X972Y492D01*
X972D01*
X969Y492D01*
X967Y493D01*
X966Y493D01*
X965Y493D01*
X964Y493D01*
X964Y494D01*
X963Y494D01*
X962Y494D01*
X962Y494D01*
X962Y494D01*
X961Y495D01*
X961Y495D01*
X961Y495D01*
X961D01*
X960Y495D01*
X959Y496D01*
X959Y497D01*
X958Y497D01*
X958Y498D01*
X957Y499D01*
X957Y500D01*
X957Y501D01*
X956Y502D01*
X956Y502D01*
X956Y502D01*
Y503D01*
Y503D01*
Y503D01*
Y504D01*
X956Y505D01*
X957Y506D01*
X957Y507D01*
X958Y508D01*
X958Y509D01*
X959Y509D01*
X959Y510D01*
X959Y510D01*
X959D01*
X960Y510D01*
X960Y511D01*
X962Y511D01*
X963Y512D01*
X964Y513D01*
X966Y513D01*
X966Y513D01*
X967Y513D01*
X967Y514D01*
X967Y514D01*
X967Y514D01*
X968D01*
X969Y514D01*
X970Y514D01*
X971Y515D01*
X972Y515D01*
X972Y515D01*
X973Y515D01*
X973Y515D01*
X973D01*
X974Y516D01*
X974Y516D01*
X975Y516D01*
X975Y517D01*
X975Y517D01*
X975Y517D01*
X976Y517D01*
X976Y517D01*
X976Y517D01*
X976Y518D01*
X976Y518D01*
Y519D01*
X976Y519D01*
Y519D01*
Y519D01*
X976Y520D01*
X976Y520D01*
X976Y521D01*
X975Y521D01*
X975Y522D01*
X974Y522D01*
X973Y523D01*
X972Y523D01*
X971Y523D01*
X971Y523D01*
X970Y523D01*
X969D01*
X968Y523D01*
X966Y523D01*
X964Y522D01*
X963Y521D01*
X962Y521D01*
X962Y521D01*
X961Y521D01*
X961Y520D01*
X960Y520D01*
X960Y520D01*
X960Y520D01*
X960Y520D01*
X957Y525D01*
X958Y525D01*
X959Y526D01*
X960Y526D01*
X961Y527D01*
X962Y527D01*
X963Y528D01*
X965Y528D01*
X966Y528D01*
X967Y528D01*
X968Y528D01*
X969Y529D01*
X969Y529D01*
X970D01*
X972Y528D01*
D02*
G37*
G36*
X1129Y529D02*
X1130Y528D01*
X1132Y528D01*
X1133Y528D01*
X1134Y527D01*
X1135Y527D01*
X1136Y527D01*
X1136Y526D01*
X1137Y526D01*
X1138Y525D01*
X1138Y525D01*
X1139Y524D01*
X1139Y524D01*
X1139Y524D01*
X1139Y524D01*
X1139Y524D01*
X1140Y523D01*
X1141Y522D01*
X1141Y521D01*
X1142Y519D01*
X1142Y518D01*
X1142Y517D01*
X1143Y515D01*
X1143Y514D01*
X1143Y513D01*
X1143Y512D01*
X1143Y512D01*
X1143Y511D01*
Y511D01*
Y510D01*
Y510D01*
X1143Y509D01*
X1143Y507D01*
X1143Y506D01*
X1143Y505D01*
X1143Y503D01*
X1142Y502D01*
X1142Y501D01*
X1141Y500D01*
X1141Y500D01*
X1141Y499D01*
X1140Y498D01*
X1140Y498D01*
X1140Y497D01*
X1140Y497D01*
X1139Y497D01*
X1139Y497D01*
X1139Y496D01*
X1138Y495D01*
X1137Y495D01*
X1136Y494D01*
X1135Y494D01*
X1134Y493D01*
X1133Y493D01*
X1132Y493D01*
X1131Y493D01*
X1130Y492D01*
X1130Y492D01*
X1129Y492D01*
X1129D01*
X1128Y492D01*
X1128D01*
X1126Y492D01*
X1125Y492D01*
X1124Y493D01*
X1123Y493D01*
X1122Y493D01*
X1121Y494D01*
X1120Y494D01*
X1119Y495D01*
X1119Y495D01*
X1118Y496D01*
X1117Y496D01*
X1117Y496D01*
X1117Y497D01*
X1116Y497D01*
X1116Y497D01*
X1116Y497D01*
X1116Y498D01*
X1115Y499D01*
X1114Y500D01*
X1114Y501D01*
X1113Y502D01*
X1113Y503D01*
X1113Y506D01*
X1112Y507D01*
X1112Y508D01*
X1112Y508D01*
X1112Y509D01*
X1112Y510D01*
Y510D01*
Y510D01*
Y510D01*
X1112Y512D01*
X1112Y513D01*
X1113Y515D01*
X1113Y516D01*
X1113Y517D01*
X1113Y518D01*
X1114Y519D01*
X1114Y520D01*
X1115Y521D01*
X1115Y522D01*
X1115Y522D01*
X1116Y523D01*
X1116Y523D01*
X1116Y523D01*
X1116Y524D01*
X1116Y524D01*
X1117Y525D01*
X1118Y525D01*
X1119Y526D01*
X1120Y526D01*
X1121Y527D01*
X1122Y527D01*
X1123Y528D01*
X1123Y528D01*
X1124Y528D01*
X1125Y528D01*
X1126Y528D01*
X1126Y529D01*
X1127Y529D01*
X1128D01*
X1129Y529D01*
D02*
G37*
G36*
X1165D02*
X1166Y528D01*
X1167Y528D01*
X1168Y528D01*
X1169Y528D01*
X1169Y527D01*
X1170Y527D01*
X1170Y527D01*
X1171Y527D01*
X1171Y526D01*
X1172Y525D01*
X1173Y525D01*
X1173Y524D01*
X1174Y524D01*
X1174Y523D01*
X1174Y523D01*
X1175Y528D01*
X1181D01*
Y479D01*
X1174Y480D01*
Y496D01*
X1173Y495D01*
X1172Y495D01*
X1172Y494D01*
X1171Y494D01*
X1170Y493D01*
X1169Y493D01*
X1168Y493D01*
X1167Y492D01*
X1166Y492D01*
X1166Y492D01*
X1165Y492D01*
X1165D01*
X1164Y492D01*
X1163Y492D01*
X1162Y493D01*
X1161Y493D01*
X1160Y493D01*
X1159Y494D01*
X1158Y494D01*
X1158Y495D01*
X1157Y495D01*
X1156Y496D01*
X1156Y496D01*
X1156Y496D01*
X1155Y497D01*
X1155Y497D01*
X1155Y497D01*
X1155Y497D01*
X1154Y498D01*
X1154Y499D01*
X1153Y500D01*
X1153Y501D01*
X1152Y504D01*
X1152Y506D01*
X1152Y507D01*
X1152Y508D01*
X1152Y508D01*
X1152Y509D01*
X1151Y510D01*
Y510D01*
Y510D01*
Y510D01*
X1152Y512D01*
X1152Y514D01*
X1152Y515D01*
X1152Y516D01*
X1152Y518D01*
X1153Y519D01*
X1153Y520D01*
X1153Y521D01*
X1154Y522D01*
X1154Y523D01*
X1155Y523D01*
X1155Y524D01*
X1156Y525D01*
X1157Y525D01*
X1158Y526D01*
X1159Y527D01*
X1160Y528D01*
X1161Y528D01*
X1162Y528D01*
X1163Y528D01*
X1164Y529D01*
X1164Y529D01*
X1164D01*
X1165Y529D01*
D02*
G37*
G36*
X814Y505D02*
X815Y505D01*
X816Y504D01*
X816Y504D01*
X817Y504D01*
X817Y503D01*
X817Y503D01*
X817Y503D01*
X818Y502D01*
X818Y502D01*
X819Y501D01*
X819Y500D01*
X819Y499D01*
X819Y499D01*
Y499D01*
Y499D01*
X819Y498D01*
X819Y497D01*
X819Y496D01*
X818Y495D01*
X818Y495D01*
X818Y494D01*
X818Y494D01*
X817Y494D01*
X817Y493D01*
X816Y493D01*
X815Y493D01*
X814Y492D01*
X814Y492D01*
X813Y492D01*
X813D01*
X812Y492D01*
X811Y492D01*
X810Y493D01*
X810Y493D01*
X809Y493D01*
X809Y494D01*
X809Y494D01*
X808Y494D01*
X808Y495D01*
X807Y496D01*
X807Y496D01*
X807Y497D01*
X807Y498D01*
X807Y498D01*
Y498D01*
Y499D01*
X807Y499D01*
X807Y500D01*
X807Y501D01*
X808Y502D01*
X808Y502D01*
X808Y503D01*
X808Y503D01*
X808Y503D01*
X809Y504D01*
X810Y504D01*
X811Y504D01*
X811Y505D01*
X812Y505D01*
X813Y505D01*
X813D01*
X814Y505D01*
D02*
G37*
G36*
X764Y528D02*
X766Y528D01*
X767Y528D01*
X768Y527D01*
X769Y527D01*
X770Y527D01*
X770Y526D01*
X770Y526D01*
X770D01*
X771Y525D01*
X772Y524D01*
X773Y523D01*
X774Y522D01*
X774Y521D01*
X775Y520D01*
X775Y520D01*
X775Y520D01*
X775Y520D01*
Y520D01*
X776Y528D01*
X787D01*
Y522D01*
X782D01*
Y498D01*
X787D01*
Y493D01*
X768D01*
Y498D01*
X775D01*
Y511D01*
X774Y513D01*
X773Y515D01*
X773Y516D01*
X772Y517D01*
X771Y518D01*
X771Y519D01*
X771Y519D01*
X770Y519D01*
X769Y520D01*
X768Y521D01*
X767Y521D01*
X766Y522D01*
X765Y522D01*
X765Y522D01*
X764Y522D01*
X764D01*
Y515D01*
X759D01*
X758Y528D01*
X759Y528D01*
X760Y528D01*
X760Y528D01*
X761Y528D01*
X762Y528D01*
X762Y529D01*
X763D01*
X764Y528D01*
D02*
G37*
G36*
X1024Y503D02*
X1023Y501D01*
X1023Y499D01*
X1023Y498D01*
X1022Y497D01*
X1022Y496D01*
X1021Y495D01*
X1021Y495D01*
X1021Y495D01*
X1020Y494D01*
X1019Y493D01*
X1018Y493D01*
X1016Y492D01*
X1015Y492D01*
X1015Y492D01*
X1014D01*
X1014Y492D01*
X1014D01*
X1012Y492D01*
X1011Y492D01*
X1010Y493D01*
X1009Y493D01*
X1009Y493D01*
X1008Y493D01*
X1008Y493D01*
X1007Y494D01*
X1006Y494D01*
X1006Y495D01*
X1005Y495D01*
X1004Y496D01*
X1003Y497D01*
X1003Y497D01*
X1003Y497D01*
X1003Y497D01*
X1002Y493D01*
X996D01*
Y528D01*
X1003D01*
Y503D01*
X1004Y502D01*
X1004Y501D01*
X1005Y501D01*
X1005Y500D01*
X1006Y500D01*
X1006Y499D01*
X1007Y499D01*
X1007Y499D01*
X1008Y499D01*
X1008Y498D01*
X1009Y498D01*
X1010Y498D01*
X1010Y498D01*
X1011Y498D01*
X1011D01*
X1012Y498D01*
X1013Y498D01*
X1014Y498D01*
X1014Y498D01*
X1015Y499D01*
X1015Y499D01*
X1015Y499D01*
X1015Y499D01*
X1015Y500D01*
X1016Y500D01*
X1016Y501D01*
X1016Y502D01*
X1016Y502D01*
X1016Y503D01*
Y503D01*
Y503D01*
Y528D01*
X1024D01*
Y503D01*
D02*
G37*
G36*
X860Y535D02*
Y528D01*
X867D01*
Y522D01*
X860D01*
Y504D01*
X860Y503D01*
X859Y502D01*
X859Y500D01*
X859Y499D01*
X858Y497D01*
X857Y496D01*
X857Y496D01*
X857Y496D01*
X857Y496D01*
X857Y495D01*
X856Y495D01*
X856Y495D01*
X856Y495D01*
X855Y494D01*
X854Y493D01*
X852Y493D01*
X851Y493D01*
X849Y492D01*
X849Y492D01*
X848D01*
X848Y492D01*
X847D01*
X846Y492D01*
X845Y492D01*
X844Y492D01*
X843Y493D01*
X843Y493D01*
X842Y493D01*
X842Y493D01*
X842D01*
X841Y493D01*
X840Y493D01*
X839Y494D01*
X839Y494D01*
X838Y494D01*
X838Y495D01*
X837Y495D01*
X837Y495D01*
X840Y500D01*
X841Y499D01*
X842Y499D01*
X843Y498D01*
X844Y498D01*
X845Y498D01*
X846Y498D01*
X846D01*
X847Y498D01*
X848Y498D01*
X849Y498D01*
X850Y499D01*
X850Y499D01*
X851Y499D01*
X851Y499D01*
X851Y499D01*
X851Y500D01*
X852Y501D01*
X852Y501D01*
X852Y502D01*
X852Y503D01*
X852Y503D01*
Y503D01*
Y504D01*
Y522D01*
X841D01*
X841Y528D01*
X852D01*
Y536D01*
X860Y535D01*
D02*
G37*
G36*
X889Y529D02*
X890Y528D01*
X891Y528D01*
X892Y528D01*
X892Y528D01*
X893Y527D01*
X893Y527D01*
X893Y527D01*
X894D01*
X895Y527D01*
X896Y526D01*
X896Y525D01*
X897Y525D01*
X898Y524D01*
X898Y524D01*
X898Y523D01*
X899Y523D01*
X899Y528D01*
X905D01*
Y493D01*
X898D01*
Y518D01*
X898Y519D01*
X897Y519D01*
X896Y520D01*
X896Y521D01*
X895Y521D01*
X895Y521D01*
X895Y521D01*
X895Y521D01*
X894Y522D01*
X893Y522D01*
X892Y523D01*
X891Y523D01*
X891Y523D01*
X890Y523D01*
X890D01*
X889Y523D01*
X889Y523D01*
X888Y523D01*
X888Y523D01*
X887Y522D01*
X887Y522D01*
X887Y522D01*
X887Y522D01*
X886Y522D01*
X886Y521D01*
X886Y521D01*
X886Y520D01*
X886Y520D01*
X885Y520D01*
Y520D01*
X885Y519D01*
X885Y518D01*
X885Y517D01*
Y516D01*
X885Y516D01*
Y515D01*
Y515D01*
Y515D01*
Y515D01*
Y493D01*
X878D01*
Y518D01*
X878Y520D01*
X878Y522D01*
X879Y523D01*
X879Y524D01*
X879Y525D01*
X880Y525D01*
X880Y526D01*
X880Y526D01*
X881Y527D01*
X882Y527D01*
X884Y528D01*
X885Y528D01*
X886Y528D01*
X886Y529D01*
X887D01*
X887Y529D01*
X887D01*
X889Y529D01*
D02*
G37*
G36*
X748Y503D02*
X748Y501D01*
X748Y499D01*
X747Y498D01*
X747Y497D01*
X746Y496D01*
X746Y495D01*
X746Y495D01*
X746Y495D01*
X744Y494D01*
X743Y493D01*
X742Y493D01*
X741Y492D01*
X740Y492D01*
X739Y492D01*
X739D01*
X739Y492D01*
X738D01*
X737Y492D01*
X736Y492D01*
X735Y493D01*
X734Y493D01*
X733Y493D01*
X732Y493D01*
X732Y493D01*
X732Y494D01*
X731Y494D01*
X730Y495D01*
X729Y495D01*
X728Y496D01*
X728Y497D01*
X728Y497D01*
X727Y497D01*
X727Y497D01*
X727Y493D01*
X720D01*
Y528D01*
X728D01*
Y503D01*
X728Y502D01*
X729Y501D01*
X729Y501D01*
X730Y500D01*
X730Y500D01*
X731Y499D01*
X731Y499D01*
X731Y499D01*
X732Y499D01*
X733Y498D01*
X734Y498D01*
X734Y498D01*
X735Y498D01*
X735Y498D01*
X736D01*
X737Y498D01*
X737Y498D01*
X738Y498D01*
X739Y498D01*
X739Y499D01*
X739Y499D01*
X739Y499D01*
X740Y499D01*
X740Y500D01*
X740Y500D01*
X740Y501D01*
X741Y502D01*
X741Y502D01*
X741Y503D01*
Y503D01*
Y503D01*
Y528D01*
X748D01*
Y503D01*
D02*
G37*
G36*
X1609Y381D02*
X1584D01*
Y389D01*
X1609D01*
Y381D01*
D02*
G37*
G36*
X1655Y462D02*
X1642D01*
X1640Y463D01*
X1638Y463D01*
X1636Y463D01*
X1635Y463D01*
X1633Y464D01*
X1632Y465D01*
X1631Y465D01*
X1629Y466D01*
X1628Y467D01*
X1627Y468D01*
X1626Y469D01*
X1625Y470D01*
X1625Y471D01*
X1624Y472D01*
X1623Y473D01*
X1623Y474D01*
X1622Y476D01*
X1621Y478D01*
X1621Y480D01*
X1620Y481D01*
X1620Y482D01*
X1620Y483D01*
X1620Y484D01*
X1620Y484D01*
Y485D01*
X1620Y485D01*
Y486D01*
Y486D01*
Y486D01*
X1620Y488D01*
X1620Y490D01*
X1621Y492D01*
X1621Y494D01*
X1621Y496D01*
X1622Y497D01*
X1623Y499D01*
X1623Y500D01*
X1624Y501D01*
X1624Y502D01*
X1625Y502D01*
X1625Y503D01*
X1626Y503D01*
X1626Y504D01*
X1626Y504D01*
X1626Y504D01*
X1627Y505D01*
X1629Y505D01*
X1630Y506D01*
X1632Y507D01*
X1633Y507D01*
X1634Y507D01*
X1636Y508D01*
X1637Y508D01*
X1638Y508D01*
X1639Y508D01*
X1640Y509D01*
X1641Y509D01*
X1642Y509D01*
X1655D01*
Y462D01*
D02*
G37*
G36*
X1603Y487D02*
X1613D01*
Y479D01*
X1603D01*
Y469D01*
X1594D01*
Y479D01*
X1584D01*
Y487D01*
X1594D01*
Y498D01*
X1603D01*
Y487D01*
D02*
G37*
G36*
X1230Y336D02*
X659D01*
Y462D01*
X1230D01*
Y336D01*
D02*
G37*
G36*
X1611Y167D02*
X1597D01*
X1584Y213D01*
X1595D01*
X1604Y176D01*
X1612Y213D01*
X1624D01*
X1611Y167D01*
D02*
G37*
G36*
X1658Y189D02*
X1650D01*
X1649Y189D01*
X1648Y189D01*
X1647Y190D01*
X1647Y190D01*
X1646Y190D01*
X1645Y190D01*
X1645D01*
X1644Y190D01*
X1643Y190D01*
X1642Y189D01*
X1641Y189D01*
X1641Y188D01*
X1640Y188D01*
X1640Y187D01*
X1639Y186D01*
X1639Y185D01*
X1639Y185D01*
X1639Y184D01*
X1639Y183D01*
Y183D01*
X1639Y183D01*
Y182D01*
Y182D01*
X1639Y181D01*
X1639Y180D01*
X1639Y179D01*
X1640Y178D01*
X1640Y177D01*
X1640Y177D01*
X1641Y176D01*
X1641Y176D01*
X1642Y176D01*
X1643Y175D01*
X1644Y175D01*
X1644Y174D01*
X1645Y174D01*
X1646Y174D01*
X1646Y174D01*
X1647D01*
X1648Y174D01*
X1648Y174D01*
X1649Y174D01*
X1650Y175D01*
X1650Y175D01*
X1651Y175D01*
X1651Y175D01*
X1651Y175D01*
X1652Y176D01*
X1653Y176D01*
X1653Y177D01*
X1654Y177D01*
X1654Y178D01*
X1655Y178D01*
X1655Y178D01*
X1655Y179D01*
X1661Y173D01*
X1660Y172D01*
X1659Y171D01*
X1658Y170D01*
X1657Y169D01*
X1656Y169D01*
X1655Y168D01*
X1655Y168D01*
X1655Y168D01*
X1655Y168D01*
X1655D01*
X1653Y167D01*
X1652Y167D01*
X1650Y167D01*
X1649Y166D01*
X1648Y166D01*
X1647D01*
X1647Y166D01*
X1646D01*
X1644Y166D01*
X1642Y166D01*
X1640Y167D01*
X1639Y167D01*
X1638Y167D01*
X1638Y167D01*
X1637Y168D01*
X1637Y168D01*
X1637Y168D01*
X1637Y168D01*
X1636Y168D01*
X1636D01*
X1635Y169D01*
X1634Y170D01*
X1632Y171D01*
X1632Y172D01*
X1631Y173D01*
X1630Y173D01*
X1630Y174D01*
X1630Y174D01*
X1630Y174D01*
Y174D01*
X1629Y175D01*
X1629Y177D01*
X1628Y178D01*
X1628Y180D01*
X1628Y181D01*
X1628Y181D01*
X1628Y182D01*
Y182D01*
Y182D01*
Y182D01*
Y182D01*
X1628Y184D01*
X1628Y186D01*
X1628Y187D01*
X1629Y188D01*
X1629Y189D01*
X1629Y190D01*
X1629Y190D01*
X1629Y190D01*
X1629Y190D01*
Y190D01*
X1630Y192D01*
X1631Y193D01*
X1632Y193D01*
X1632Y194D01*
X1633Y195D01*
X1634Y195D01*
X1634Y195D01*
X1634Y196D01*
X1634D01*
X1635Y196D01*
X1636Y197D01*
X1637Y197D01*
X1638Y197D01*
X1639Y197D01*
X1640Y197D01*
X1641D01*
X1642Y197D01*
X1643Y197D01*
X1644Y197D01*
X1645Y197D01*
X1646Y196D01*
X1647Y196D01*
X1647Y196D01*
X1647Y196D01*
X1647Y196D01*
X1647D01*
Y206D01*
X1631D01*
X1629Y213D01*
X1658D01*
Y189D01*
D02*
G37*
%LPC*%
G36*
X1642Y402D02*
X1640D01*
X1639Y402D01*
X1638Y402D01*
X1636Y402D01*
X1635Y401D01*
X1634Y401D01*
X1633Y400D01*
X1633Y400D01*
X1632Y399D01*
X1632Y399D01*
Y399D01*
X1632Y398D01*
X1631Y398D01*
X1631Y397D01*
X1631Y396D01*
X1630Y394D01*
X1630Y392D01*
X1630Y391D01*
X1630Y390D01*
X1630Y389D01*
Y389D01*
X1630Y388D01*
Y388D01*
Y387D01*
Y387D01*
Y386D01*
X1630Y384D01*
X1630Y383D01*
X1630Y382D01*
X1630Y381D01*
X1630Y380D01*
X1631Y379D01*
X1631Y378D01*
X1631Y378D01*
X1631Y377D01*
X1632Y376D01*
X1632Y376D01*
X1632Y376D01*
X1632Y376D01*
X1632Y375D01*
Y375D01*
X1633Y375D01*
X1633Y374D01*
X1634Y374D01*
X1634Y373D01*
X1636Y373D01*
X1637Y372D01*
X1638Y372D01*
X1638Y372D01*
X1639Y372D01*
X1639Y372D01*
X1642D01*
Y402D01*
D02*
G37*
G36*
X1608Y107D02*
X1605D01*
X1604Y107D01*
X1604Y107D01*
X1602Y107D01*
X1601Y106D01*
X1600Y105D01*
X1599Y105D01*
X1598Y104D01*
X1598Y104D01*
X1598Y104D01*
Y104D01*
X1597Y103D01*
X1597Y102D01*
X1596Y102D01*
X1596Y101D01*
X1596Y99D01*
X1595Y97D01*
X1595Y96D01*
X1595Y95D01*
X1595Y94D01*
Y94D01*
X1595Y93D01*
Y93D01*
Y92D01*
Y92D01*
Y91D01*
X1595Y89D01*
X1595Y88D01*
X1595Y87D01*
X1596Y86D01*
X1596Y85D01*
X1596Y84D01*
X1596Y83D01*
X1597Y82D01*
X1597Y82D01*
X1597Y81D01*
X1597Y81D01*
X1597Y81D01*
X1598Y80D01*
X1598Y80D01*
Y80D01*
X1598Y80D01*
X1599Y79D01*
X1599Y79D01*
X1600Y78D01*
X1601Y78D01*
X1602Y77D01*
X1604Y77D01*
X1604Y77D01*
X1604Y77D01*
X1605Y77D01*
X1608D01*
Y107D01*
D02*
G37*
G36*
X1128Y523D02*
X1127D01*
X1126Y523D01*
X1125Y522D01*
X1124Y522D01*
X1123Y521D01*
X1123Y521D01*
X1122Y520D01*
X1122Y520D01*
X1122Y520D01*
Y520D01*
X1122Y519D01*
X1121Y519D01*
X1121Y517D01*
X1120Y516D01*
X1120Y514D01*
X1120Y513D01*
X1120Y512D01*
X1120Y511D01*
Y511D01*
Y511D01*
Y510D01*
Y510D01*
Y509D01*
X1120Y508D01*
X1120Y507D01*
X1120Y506D01*
X1120Y505D01*
X1120Y505D01*
X1121Y504D01*
X1121Y503D01*
X1121Y503D01*
X1121Y502D01*
X1121Y502D01*
X1122Y501D01*
X1122Y501D01*
X1122Y501D01*
X1122Y501D01*
Y501D01*
X1122Y500D01*
X1123Y500D01*
X1124Y499D01*
X1125Y499D01*
X1126Y498D01*
X1126Y498D01*
X1127Y498D01*
X1127Y498D01*
X1128D01*
X1129Y498D01*
X1129Y498D01*
X1130Y498D01*
X1131Y499D01*
X1132Y499D01*
X1133Y500D01*
X1133Y500D01*
X1134Y501D01*
X1134Y501D01*
X1134Y501D01*
X1134Y502D01*
X1135Y504D01*
X1135Y505D01*
X1135Y507D01*
X1136Y508D01*
X1136Y509D01*
Y509D01*
X1136Y510D01*
Y510D01*
Y510D01*
Y510D01*
Y512D01*
X1136Y513D01*
X1136Y514D01*
X1135Y514D01*
X1135Y515D01*
X1135Y516D01*
X1135Y517D01*
X1135Y517D01*
X1135Y518D01*
X1134Y518D01*
X1134Y519D01*
X1134Y519D01*
X1134Y519D01*
X1134Y520D01*
X1134Y520D01*
Y520D01*
X1133Y520D01*
X1133Y521D01*
X1132Y522D01*
X1131Y522D01*
X1130Y522D01*
X1129Y523D01*
X1128Y523D01*
X1128Y523D01*
D02*
G37*
G36*
X1167Y523D02*
X1165D01*
X1165Y523D01*
X1164Y522D01*
X1163Y522D01*
X1162Y521D01*
X1162Y521D01*
X1161Y520D01*
X1161Y520D01*
X1161Y520D01*
Y520D01*
X1161Y519D01*
X1160Y519D01*
X1160Y517D01*
X1160Y516D01*
X1159Y514D01*
X1159Y513D01*
Y512D01*
X1159Y511D01*
Y511D01*
Y511D01*
Y510D01*
Y510D01*
Y509D01*
X1159Y508D01*
X1159Y507D01*
X1159Y506D01*
X1160Y505D01*
X1160Y505D01*
X1160Y504D01*
X1160Y503D01*
X1160Y503D01*
X1161Y502D01*
X1161Y502D01*
X1161Y501D01*
X1161Y501D01*
X1161Y501D01*
X1161Y501D01*
Y501D01*
X1162Y500D01*
X1162Y500D01*
X1163Y499D01*
X1164Y499D01*
X1165Y498D01*
X1166Y498D01*
X1166Y498D01*
X1166Y498D01*
X1167D01*
X1168Y498D01*
X1168Y498D01*
X1169Y498D01*
X1170Y498D01*
X1171Y499D01*
X1172Y500D01*
X1173Y501D01*
X1173Y501D01*
X1173Y501D01*
X1174Y502D01*
X1174Y502D01*
Y502D01*
Y518D01*
X1173Y519D01*
X1173Y519D01*
X1172Y520D01*
X1171Y521D01*
X1171Y521D01*
X1171Y521D01*
X1170Y521D01*
X1170Y522D01*
X1170Y522D01*
X1169Y522D01*
X1168Y523D01*
X1167Y523D01*
X1167Y523D01*
X1167Y523D01*
D02*
G37*
G36*
X1644Y501D02*
X1641D01*
X1640Y501D01*
X1640Y501D01*
X1638Y500D01*
X1637Y500D01*
X1636Y499D01*
X1635Y499D01*
X1634Y498D01*
X1634Y498D01*
X1634Y498D01*
Y498D01*
X1633Y497D01*
X1633Y496D01*
X1633Y495D01*
X1632Y494D01*
X1632Y492D01*
X1632Y490D01*
X1631Y490D01*
X1631Y489D01*
X1631Y488D01*
Y487D01*
X1631Y487D01*
Y486D01*
Y486D01*
Y486D01*
Y484D01*
X1631Y483D01*
X1631Y482D01*
X1632Y480D01*
X1632Y479D01*
X1632Y478D01*
X1632Y477D01*
X1632Y477D01*
X1633Y476D01*
X1633Y475D01*
X1633Y475D01*
X1633Y474D01*
X1634Y474D01*
X1634Y474D01*
X1634Y474D01*
Y474D01*
X1634Y473D01*
X1635Y473D01*
X1635Y472D01*
X1636Y472D01*
X1637Y471D01*
X1639Y471D01*
X1640Y471D01*
X1640Y471D01*
X1641Y470D01*
X1641Y470D01*
X1644D01*
Y501D01*
D02*
G37*
G36*
X839Y397D02*
X813D01*
Y389D01*
X839D01*
Y397D01*
D02*
G37*
G36*
X961Y418D02*
X950D01*
Y392D01*
Y392D01*
Y392D01*
Y392D01*
Y391D01*
Y391D01*
Y391D01*
X950Y390D01*
X950Y388D01*
X950Y387D01*
X950Y386D01*
X950Y385D01*
Y385D01*
X950Y385D01*
X950Y384D01*
X949Y384D01*
X949Y383D01*
X949Y382D01*
X948Y382D01*
X948Y381D01*
X948Y381D01*
X948Y381D01*
X947Y381D01*
X947Y380D01*
X946Y380D01*
X946Y380D01*
X945Y380D01*
X944Y380D01*
X944D01*
X943Y380D01*
X943Y380D01*
X942Y380D01*
X941Y380D01*
X941Y381D01*
X940Y381D01*
X940Y381D01*
X940Y381D01*
X940Y382D01*
X940Y382D01*
X939Y383D01*
X939Y383D01*
X939Y384D01*
X938Y385D01*
Y385D01*
X938Y386D01*
X938Y386D01*
X938Y387D01*
X938Y388D01*
X938Y389D01*
X938Y391D01*
Y392D01*
Y418D01*
X927D01*
Y388D01*
Y388D01*
Y388D01*
Y388D01*
Y387D01*
X927Y387D01*
Y386D01*
X927Y385D01*
X928Y384D01*
X928Y383D01*
X928Y381D01*
X929Y380D01*
Y380D01*
X929Y380D01*
X929Y379D01*
X929Y379D01*
X930Y378D01*
X930Y378D01*
X931Y377D01*
X932Y376D01*
X933Y375D01*
X935Y374D01*
X935D01*
X935Y374D01*
X935Y374D01*
X935Y374D01*
X936Y373D01*
X936Y373D01*
X937Y373D01*
X937Y373D01*
X939Y372D01*
X940Y372D01*
X942Y372D01*
X944Y372D01*
X945D01*
X945Y372D01*
X946Y372D01*
X947Y372D01*
X948Y372D01*
X949Y372D01*
X951Y373D01*
X952Y373D01*
X953Y374D01*
X954Y374D01*
X955Y375D01*
X956Y375D01*
X957Y376D01*
X957Y376D01*
X957Y376D01*
X957Y377D01*
X957Y377D01*
X958Y377D01*
X958Y378D01*
X958Y379D01*
X959Y379D01*
X959Y380D01*
X960Y381D01*
X960Y382D01*
X960Y383D01*
X961Y384D01*
X961Y385D01*
X961Y387D01*
X961Y388D01*
Y418D01*
D02*
G37*
G36*
X983Y426D02*
X983D01*
X983Y426D01*
X982Y426D01*
X981Y426D01*
X980Y425D01*
X980Y425D01*
X979Y424D01*
X979Y424D01*
X979Y424D01*
X979Y424D01*
X978Y423D01*
X978Y423D01*
X978Y422D01*
X977Y421D01*
X977Y420D01*
Y420D01*
Y420D01*
X977Y419D01*
X978Y419D01*
X978Y418D01*
X978Y417D01*
X978Y417D01*
X979Y416D01*
X979Y416D01*
X979Y416D01*
X980Y415D01*
X980Y415D01*
X981Y415D01*
X982Y415D01*
X983Y414D01*
X983Y414D01*
X984D01*
X984Y414D01*
X985Y414D01*
X986Y415D01*
X987Y415D01*
X987Y415D01*
X988Y416D01*
X988Y416D01*
X988Y416D01*
X988Y417D01*
X989Y417D01*
X989Y418D01*
X989Y418D01*
X990Y419D01*
X990Y420D01*
Y420D01*
Y421D01*
X990Y421D01*
X989Y422D01*
X989Y422D01*
X989Y423D01*
X989Y424D01*
X988Y424D01*
X988Y424D01*
X988Y425D01*
X987Y425D01*
X987Y425D01*
X986Y425D01*
X985Y426D01*
X984Y426D01*
X983Y426D01*
D02*
G37*
G36*
X1062D02*
X1062D01*
X1061Y426D01*
X1061Y426D01*
X1060Y426D01*
X1059Y425D01*
X1058Y425D01*
X1058Y424D01*
X1058Y424D01*
X1058Y424D01*
X1057Y424D01*
X1057Y423D01*
X1057Y423D01*
X1056Y422D01*
X1056Y421D01*
X1056Y420D01*
Y420D01*
Y420D01*
X1056Y419D01*
X1056Y419D01*
X1056Y418D01*
X1057Y417D01*
X1057Y417D01*
X1058Y416D01*
X1058Y416D01*
X1058Y416D01*
X1058Y415D01*
X1059Y415D01*
X1060Y415D01*
X1060Y415D01*
X1061Y414D01*
X1062Y414D01*
X1063D01*
X1063Y414D01*
X1064Y414D01*
X1064Y415D01*
X1065Y415D01*
X1066Y415D01*
X1067Y416D01*
X1067Y416D01*
X1067Y416D01*
X1067Y417D01*
X1068Y417D01*
X1068Y418D01*
X1068Y418D01*
X1068Y419D01*
X1068Y420D01*
Y420D01*
Y421D01*
X1068Y421D01*
X1068Y422D01*
X1068Y422D01*
X1068Y423D01*
X1067Y424D01*
X1067Y424D01*
X1067Y424D01*
X1066Y425D01*
X1066Y425D01*
X1065Y425D01*
X1065Y425D01*
X1064Y426D01*
X1063Y426D01*
X1062Y426D01*
D02*
G37*
G36*
X788Y418D02*
X779D01*
Y381D01*
X770D01*
Y373D01*
X800D01*
Y381D01*
X789D01*
Y408D01*
X798Y402D01*
X802Y409D01*
X788Y418D01*
D02*
G37*
G36*
X1104Y409D02*
X1104D01*
X1103Y409D01*
X1103Y409D01*
X1102Y409D01*
X1102Y408D01*
X1101Y408D01*
X1100Y408D01*
X1100Y408D01*
X1100Y408D01*
X1100Y407D01*
X1100Y407D01*
X1099Y407D01*
X1099Y406D01*
X1099Y406D01*
X1098Y405D01*
X1098Y405D01*
X1098Y405D01*
X1098Y405D01*
X1098Y405D01*
X1098Y406D01*
X1097Y406D01*
X1096Y407D01*
X1095Y408D01*
X1094Y408D01*
X1093Y409D01*
X1092Y409D01*
X1092Y409D01*
X1091Y409D01*
X1090D01*
X1090Y409D01*
X1090Y409D01*
X1089Y409D01*
X1088Y408D01*
X1087Y408D01*
X1086Y407D01*
X1085Y406D01*
X1085Y406D01*
X1085Y406D01*
X1085Y405D01*
X1084Y405D01*
X1084Y403D01*
X1084Y402D01*
X1084Y401D01*
X1084Y401D01*
X1084Y400D01*
Y399D01*
Y373D01*
X1092D01*
Y398D01*
Y398D01*
Y398D01*
Y398D01*
X1093Y399D01*
X1093Y399D01*
X1093Y400D01*
X1093Y400D01*
Y400D01*
X1093Y400D01*
X1093Y401D01*
X1094Y401D01*
X1094Y401D01*
X1094D01*
X1094Y401D01*
X1095Y401D01*
X1095Y401D01*
X1096Y400D01*
X1096Y400D01*
X1097Y399D01*
X1098Y399D01*
Y373D01*
X1105D01*
Y398D01*
Y398D01*
Y398D01*
Y398D01*
X1105Y399D01*
X1105Y399D01*
X1105Y400D01*
X1105Y400D01*
Y400D01*
X1106Y400D01*
X1106Y401D01*
X1106Y401D01*
X1106Y401D01*
X1107D01*
X1107Y401D01*
X1107Y401D01*
X1108Y401D01*
X1109Y400D01*
X1109Y400D01*
X1110Y399D01*
X1110Y399D01*
Y373D01*
X1119D01*
Y408D01*
X1112D01*
X1111Y404D01*
X1111Y405D01*
X1111Y405D01*
X1110Y405D01*
X1110Y406D01*
X1110Y406D01*
X1109Y407D01*
X1108Y407D01*
X1108Y408D01*
X1108Y408D01*
X1107Y408D01*
X1107Y408D01*
X1107Y408D01*
X1106Y409D01*
X1105Y409D01*
X1105Y409D01*
X1104Y409D01*
D02*
G37*
G36*
X904Y420D02*
X904D01*
X903Y419D01*
X902D01*
X902Y419D01*
X901Y419D01*
X900Y419D01*
X898Y419D01*
X897Y419D01*
X896Y418D01*
X894Y418D01*
X893Y417D01*
X892Y416D01*
X890Y416D01*
X889Y415D01*
X888Y414D01*
X893Y408D01*
X893Y408D01*
X893Y408D01*
X894Y408D01*
X894Y409D01*
X895Y409D01*
X896Y410D01*
X897Y410D01*
X898Y411D01*
X898Y411D01*
X898Y411D01*
X899Y411D01*
X900Y411D01*
X900Y411D01*
X901Y411D01*
X902Y412D01*
X903Y412D01*
X904D01*
X904Y412D01*
X905Y411D01*
X906Y411D01*
X907Y411D01*
X908Y411D01*
X908Y410D01*
X908Y410D01*
X909Y410D01*
X909Y410D01*
X909Y410D01*
X909Y409D01*
X910Y409D01*
X910Y408D01*
X910Y407D01*
Y407D01*
Y407D01*
X910Y407D01*
X910Y406D01*
X910Y406D01*
X910Y405D01*
X909Y405D01*
X909Y405D01*
X909Y405D01*
X909Y404D01*
X909Y404D01*
X908Y404D01*
X908Y404D01*
X907Y403D01*
X907Y403D01*
X906Y403D01*
X906Y403D01*
X906Y403D01*
X905Y402D01*
X904Y402D01*
X903Y402D01*
X902Y401D01*
X901Y401D01*
X901D01*
X900Y401D01*
X900Y401D01*
X900Y400D01*
X899Y400D01*
X898Y400D01*
X898Y400D01*
X897Y399D01*
X895Y399D01*
X894Y398D01*
X892Y397D01*
X891Y396D01*
X891Y395D01*
X890Y395D01*
X890Y395D01*
X890Y395D01*
X890Y395D01*
X890Y394D01*
X889Y394D01*
X889Y394D01*
X889Y393D01*
X888Y392D01*
X888Y392D01*
X888Y391D01*
X888Y390D01*
X887Y388D01*
X887Y387D01*
X887Y386D01*
Y386D01*
Y386D01*
Y386D01*
Y386D01*
X887Y385D01*
X887Y385D01*
X887Y384D01*
X888Y382D01*
X888Y381D01*
X889Y380D01*
X889Y379D01*
Y379D01*
X889Y379D01*
X890Y378D01*
X890Y378D01*
X891Y377D01*
X892Y376D01*
X893Y375D01*
X894Y374D01*
X896Y374D01*
X896D01*
X896Y373D01*
X896Y373D01*
X896Y373D01*
X897Y373D01*
X897Y373D01*
X898Y373D01*
X899Y373D01*
X899Y373D01*
X900Y372D01*
X902Y372D01*
X904Y372D01*
X906Y372D01*
X906D01*
X907Y372D01*
X907Y372D01*
X908Y372D01*
X910Y372D01*
X911Y372D01*
X912Y373D01*
X913Y373D01*
X915Y373D01*
X916Y374D01*
X918Y375D01*
X919Y375D01*
X921Y376D01*
X922Y377D01*
X924Y378D01*
X918Y384D01*
X918Y384D01*
X918Y384D01*
X918Y384D01*
X917Y384D01*
X917Y383D01*
X916Y383D01*
X915Y383D01*
X915Y382D01*
X914Y382D01*
X913Y381D01*
X912Y381D01*
X911Y381D01*
X910Y380D01*
X908Y380D01*
X907Y380D01*
X906Y380D01*
X905D01*
X905Y380D01*
X904Y380D01*
X903Y380D01*
X902Y380D01*
X901Y381D01*
X900Y381D01*
X900Y381D01*
X900Y382D01*
X900Y382D01*
X899Y382D01*
X899Y383D01*
X899Y384D01*
X898Y384D01*
X898Y385D01*
Y386D01*
Y386D01*
X898Y386D01*
X899Y387D01*
X899Y387D01*
X899Y388D01*
X900Y389D01*
X900Y389D01*
X900Y389D01*
X900Y390D01*
X901Y390D01*
X902Y390D01*
X902Y391D01*
X904Y391D01*
X904Y391D01*
X905Y392D01*
X906Y392D01*
X907Y392D01*
X907D01*
X907Y392D01*
X907Y392D01*
X908Y393D01*
X909Y393D01*
X909Y393D01*
X910Y393D01*
X911Y394D01*
X913Y395D01*
X915Y396D01*
X916Y396D01*
X916Y397D01*
X917Y397D01*
X918Y398D01*
X918Y398D01*
X918Y398D01*
X918Y398D01*
X918Y398D01*
X919Y399D01*
X919Y399D01*
X920Y400D01*
X920Y401D01*
X921Y403D01*
X921Y404D01*
X921Y405D01*
X921Y406D01*
Y406D01*
Y406D01*
Y407D01*
X921Y407D01*
X921Y408D01*
X921Y409D01*
X921Y410D01*
X920Y411D01*
X920Y412D01*
X919Y413D01*
Y413D01*
X919Y414D01*
X919Y414D01*
X918Y414D01*
X917Y415D01*
X917Y416D01*
X915Y417D01*
X914Y417D01*
X913Y418D01*
X913D01*
X913Y418D01*
X912Y418D01*
X912Y418D01*
X912Y418D01*
X911Y419D01*
X910Y419D01*
X909Y419D01*
X908Y419D01*
X906Y419D01*
X904Y420D01*
D02*
G37*
G36*
X881Y418D02*
X866D01*
X866Y418D01*
X865D01*
X864Y418D01*
X863Y418D01*
X862Y418D01*
X860Y418D01*
X858Y417D01*
X856Y417D01*
X855Y416D01*
X854Y416D01*
X854D01*
X854Y415D01*
X854Y415D01*
X854Y415D01*
X853Y415D01*
X853Y414D01*
X852Y414D01*
X852Y414D01*
X851Y413D01*
X851Y412D01*
X851Y412D01*
X850Y411D01*
X850Y410D01*
X850Y409D01*
X850Y408D01*
X850Y407D01*
Y407D01*
Y407D01*
Y406D01*
X850Y406D01*
X850Y405D01*
X850Y405D01*
X850Y403D01*
X851Y402D01*
X851Y401D01*
X852Y400D01*
X852Y400D01*
X852Y400D01*
X853Y400D01*
X854Y399D01*
X854Y398D01*
X855Y398D01*
X857Y397D01*
X858Y397D01*
X858D01*
X858Y397D01*
X857D01*
X857Y397D01*
X857Y397D01*
X856Y397D01*
X855Y396D01*
X854Y396D01*
X853Y395D01*
X852Y395D01*
X851Y394D01*
X851D01*
X850Y394D01*
X850Y393D01*
X850Y393D01*
X849Y392D01*
X849Y391D01*
X848Y390D01*
X848Y388D01*
X848Y387D01*
Y386D01*
Y386D01*
Y386D01*
Y386D01*
X848Y385D01*
X848Y384D01*
X848Y384D01*
X848Y383D01*
X848Y382D01*
X848Y381D01*
X849Y381D01*
X849Y380D01*
X850Y379D01*
X850Y378D01*
X851Y377D01*
X852Y377D01*
X853Y376D01*
X853D01*
X853Y376D01*
X853Y376D01*
X854Y375D01*
X854Y375D01*
X855Y375D01*
X855Y375D01*
X856Y374D01*
X857Y374D01*
X858Y374D01*
X859Y374D01*
X861Y373D01*
X862Y373D01*
X863Y373D01*
X865Y373D01*
X866Y373D01*
X881D01*
Y418D01*
D02*
G37*
G36*
X1017Y409D02*
X1017D01*
X1017Y409D01*
X1016D01*
X1016Y409D01*
X1015Y409D01*
X1014Y408D01*
X1012Y408D01*
X1011Y407D01*
X1010Y406D01*
X1010Y406D01*
X1010Y406D01*
X1009Y405D01*
X1009Y404D01*
X1008Y403D01*
X1008Y402D01*
X1008Y400D01*
X1008Y398D01*
Y373D01*
X1018D01*
Y395D01*
Y396D01*
Y396D01*
Y396D01*
X1018Y397D01*
Y397D01*
X1018Y398D01*
X1018Y399D01*
X1019Y399D01*
X1019Y400D01*
Y400D01*
X1019Y400D01*
X1019Y400D01*
X1019Y401D01*
X1020Y401D01*
X1020Y401D01*
X1021Y401D01*
X1021Y401D01*
X1022D01*
X1022Y401D01*
X1022Y401D01*
X1023Y401D01*
X1023Y401D01*
X1024Y401D01*
X1024Y400D01*
X1025Y400D01*
X1025Y400D01*
X1025Y400D01*
X1025Y399D01*
X1026Y399D01*
X1026Y399D01*
X1027Y398D01*
X1028Y397D01*
Y373D01*
X1038D01*
Y408D01*
X1029D01*
X1028Y404D01*
X1028Y404D01*
X1028Y404D01*
X1027Y405D01*
X1027Y405D01*
X1026Y406D01*
X1025Y406D01*
X1024Y407D01*
X1023Y408D01*
X1023Y408D01*
X1023Y408D01*
X1022Y408D01*
X1021Y408D01*
X1021Y409D01*
X1020Y409D01*
X1018Y409D01*
X1017Y409D01*
D02*
G37*
G36*
X1076Y408D02*
X1056D01*
Y380D01*
X1047D01*
Y373D01*
X1076D01*
Y380D01*
X1066D01*
Y401D01*
X1076D01*
Y408D01*
D02*
G37*
G36*
X997D02*
X977D01*
Y380D01*
X968D01*
Y373D01*
X997D01*
Y380D01*
X988D01*
Y401D01*
X997D01*
Y408D01*
D02*
G37*
%LPD*%
G36*
X871Y400D02*
X866D01*
X866Y400D01*
X865Y400D01*
X864Y401D01*
X863Y401D01*
X863Y401D01*
X862Y401D01*
X862Y402D01*
X862Y402D01*
X861Y402D01*
X861Y402D01*
X861Y403D01*
X861Y404D01*
X860Y405D01*
X860Y406D01*
Y406D01*
Y406D01*
X860Y407D01*
X861Y407D01*
X861Y408D01*
X861Y408D01*
X861Y409D01*
X862Y410D01*
X862Y410D01*
X862Y410D01*
X863Y410D01*
X863Y410D01*
X864Y410D01*
X865Y411D01*
X866Y411D01*
X867Y411D01*
X871D01*
Y400D01*
D02*
G37*
G36*
Y381D02*
X866D01*
X865Y381D01*
X864Y381D01*
X864Y381D01*
X863Y381D01*
X862Y382D01*
X861Y382D01*
X861Y382D01*
X860Y382D01*
X860Y383D01*
X860Y383D01*
X859Y384D01*
X859Y385D01*
X859Y386D01*
X859Y387D01*
Y387D01*
Y387D01*
Y387D01*
X859Y388D01*
X859Y389D01*
X859Y389D01*
X859Y390D01*
X860Y391D01*
X861Y392D01*
X861Y392D01*
X861Y392D01*
X861Y392D01*
X862Y392D01*
X863Y393D01*
X864Y393D01*
X865Y393D01*
X866Y393D01*
X871D01*
Y381D01*
D02*
G37*
D40*
X945Y567D02*
D03*
D41*
X664Y513D02*
D03*
X1225D02*
D03*
M02*
